<svg width="1000" height="1000" viewBox="0 0 1000 1000" fill="none" xmlns="http://www.w3.org/2000/svg">
<path d="M230 424.179C230 424.179 176.17 264.899 363.93 284.339C551.69 303.779 461.98 233.279 532.93 189.529C603.88 145.779 812.93 281.889 725.47 413.169C638.01 544.449 865.24 424.359 912.64 621.779C941.89 743.609 869.32 833.279 809.45 884.109" stroke="#CCDDE2" stroke-width="5.47" stroke-miterlimit="10"/>
<path d="M827.76 731.902C813.65 650.192 763.69 577.072 682.52 550.902C661.756 544.245 640.523 539.147 619 535.652V535.762C617.878 542.545 615.22 548.983 611.23 554.582C602.77 566.172 591.11 575.692 577.61 580.652C563.83 585.752 546.76 586.412 533.97 578.392C526.27 573.572 518.8 565.082 517.45 555.922C515.91 545.602 521.17 535.832 528.57 529.012C465.85 529.522 406.85 539.842 359.57 551.592C361.209 558.453 363.478 565.148 366.35 571.592C370.369 580.575 376.048 588.718 383.09 595.592C391.873 586.891 399.563 577.153 405.99 566.592C412.138 568.604 417.56 572.38 421.58 577.449C425.599 582.518 428.041 588.656 428.6 595.102V595.432C431.08 618.842 408.54 636.432 389.6 647.252C367.72 659.832 343.33 669.252 319.37 677.082C309.49 680.322 296.65 683.082 286.22 679.702C285.097 679.344 284.001 678.906 282.94 678.392C272.54 673.292 265.58 662.602 260.15 652.832C244.68 625.082 234.62 594.832 227.8 563.782C180.47 569.832 175.05 537.782 172.24 529.922L131.75 643.112C129.626 651.248 129.397 659.763 131.078 668.002C132.76 676.241 136.309 683.985 141.452 690.638C146.594 697.291 153.194 702.676 160.743 706.38C168.293 710.084 176.591 712.007 185 712.002H352.62L428.76 907.302L450.34 962.732H573.6C563.6 962.732 558.13 960.292 554.16 956.312C550.06 952.21 547.752 946.651 547.74 940.852C547.74 928.852 557.59 919.012 573.6 919.012H574.73C573.52 919.012 572.36 918.902 571.15 918.792C571.9 918.711 572.644 918.587 573.38 918.422C572.587 918.403 571.796 918.343 571.01 918.242C578.231 917.389 584.923 914.026 589.915 908.739C594.907 903.453 597.882 896.58 598.32 889.322C598.34 888.945 598.34 888.568 598.32 888.192V887.612C598.148 880.171 595.303 873.04 590.308 867.523C585.312 862.005 578.497 858.47 571.11 857.562C571.95 857.492 572.75 857.422 573.56 857.422C572.83 857.242 572.02 857.132 571.26 857.022C572.46 856.912 573.67 856.832 574.83 856.832L665.01 857.312L681.6 857.382H701.29C702.2 857.382 703.12 857.382 703.99 857.492L733.24 857.642L752.78 857.752C760.947 857.82 768.753 861.12 774.493 866.93C780.233 872.739 783.439 880.585 783.41 888.752C783.4 893.37 782.329 897.923 780.28 902.062C788.664 900.989 796.438 897.112 802.34 891.062C816.41 876.692 822.47 855.182 826.66 836.062C834.07 802.002 833.63 766.112 827.76 731.902ZM599.92 734.202C582.93 760.352 554 758.002 554 758.002C554 758.002 551.6 760.342 546 750.382C540.4 740.422 524.45 733.612 524.45 733.612C523.18 743.612 520.55 758.812 494.45 739.112C468.35 719.412 476.22 690.692 478.45 675.522C480.68 660.352 489.57 655.322 489.57 655.322L500.07 649.782C500.07 649.782 469.7 641.972 468.24 641.682C466.78 641.392 439.73 618.742 467.18 612.762C494.63 606.782 537.42 630.562 545.69 635.262C553.96 639.962 602.29 680.842 602.29 680.842C602.29 680.842 617 708.092 599.92 734.202Z" fill="#353642"/>
<path d="M227.76 563.8C227.76 563.8 250.65 561.02 259.22 544.68L251.75 586.59C251.75 586.59 342.81 555.59 359.51 551.59C359.51 551.59 364.89 586.28 386.31 595.59L408.41 567.49C408.41 567.49 436.12 574.49 428.54 612.25C420.96 650.01 316.12 681.57 298.34 680.84C280.56 680.11 261.42 669.17 241.82 610.38L227.76 563.8Z" fill="#353642"/>
<path d="M265.05 470.441C270.85 479.881 276.68 489.301 282.7 498.601C286.41 504.331 293.17 512.501 285.98 518.491C283.64 520.285 280.814 521.331 277.87 521.491C273.25 521.901 268.4 520.791 265.59 516.821L251.59 493.621C248.8 488.994 244.369 485.588 239.181 484.079C233.992 482.571 228.426 483.072 223.59 485.481" stroke="black" stroke-width="5.47" stroke-miterlimit="10"/>
<path d="M318 500.998C321.66 509.698 319.18 515.308 314.9 518.128C307.9 522.718 298.53 520.518 293.57 513.818L265.1 470.488" stroke="black" stroke-width="5.47" stroke-miterlimit="10"/>
<path d="M289.15 457.841C299.51 470.441 312.58 493.841 319.81 503.611C327.04 513.381 338.22 507.491 338.22 507.491C347.3 502.601 345.76 494.491 341.79 484.641C332.01 460.461 318.05 444.381 302.48 433.841C254.23 401.201 204.73 425.281 190 481.621L131.75 643.111C129.626 651.248 129.397 659.763 131.078 668.002C132.76 676.241 136.309 683.985 141.452 690.638C146.594 697.291 153.194 702.676 160.743 706.38C168.293 710.083 176.591 712.006 185 712.001H352.62L450.37 962.741" stroke="black" stroke-width="5.47" stroke-miterlimit="10"/>
<path d="M349 473.55C361 469.39 360.45 450.25 343.42 443.79C324.61 436.65 291.21 426.55 282.82 424.03C282.768 423.99 282.705 423.966 282.64 423.96C282.05 423.78 281.64 423.63 281.32 423.56L280.85 423.41" stroke="black" stroke-width="5.47" stroke-miterlimit="10"/>
<path d="M526.3 664.919C515.8 652.299 487.06 645.149 468.3 641.689C465.147 641.097 462.272 639.496 460.107 637.128C457.943 634.76 456.607 631.753 456.3 628.559C456.082 626.405 456.331 624.229 457.03 622.179C458.148 619.032 460.291 616.352 463.114 614.568C465.937 612.784 469.278 611.999 472.6 612.339C504.6 615.579 537.6 625.649 562.01 647.339C562.01 647.339 680.34 737.639 694.47 746.429C700.3 749.969 705.74 745.789 701.79 740.229L700.55 738.109C693.595 726.173 685.363 715.028 676 704.869" stroke="black" stroke-width="5.47" stroke-miterlimit="10"/>
<path d="M528.49 529C379.67 530.24 251.75 586.58 251.75 586.58L264.52 515" stroke="black" stroke-width="5.47" stroke-miterlimit="10"/>
<path d="M759.63 918.569C759.63 918.569 743.42 914.899 739.11 927.879C734.8 940.859 730.3 961.509 761.29 962.729C792.28 963.949 774.08 957.859 772.29 947.829C770.5 937.799 759.63 918.569 759.63 918.569Z" fill="#353642"/>
<path d="M512 681.391C512 681.391 494.51 668.131 478.76 681.571C478.097 682.155 477.518 682.828 477.04 683.571" stroke="black" stroke-width="5.47" stroke-miterlimit="10"/>
<g opacity="0.77">
<path opacity="0.77" d="M293.51 513.771C298.51 520.481 307.87 522.671 314.84 518.071C319.07 515.271 321.55 509.691 317.98 501.071C318.63 502.021 319.22 502.861 319.8 503.631C327.02 513.441 338.21 507.531 338.21 507.531C347.29 502.641 345.76 494.531 341.79 484.671C337.905 474.905 332.808 465.666 326.62 457.171C330.67 453.381 335.48 449.551 340.55 451.231C346.02 453.051 347.55 459.911 348.17 465.631C348.46 468.291 348.75 470.921 349.04 473.581L353.42 512.741C354.88 525.741 356.34 538.931 359.51 551.621C361.149 558.482 363.418 565.177 366.29 571.621C370.309 580.604 375.988 588.747 383.03 595.621C391.813 586.92 399.503 577.182 405.93 566.621C412.078 568.633 417.5 572.409 421.52 577.478C425.539 582.547 427.981 588.685 428.54 595.131V595.461C431.02 618.871 408.48 636.461 389.54 647.281C367.66 659.861 343.27 669.281 319.31 677.111C309.43 680.351 296.59 683.111 286.16 679.731C285.037 679.373 283.941 678.935 282.88 678.421C272.48 673.321 265.52 662.631 260.09 652.861C234.09 606.111 223.29 552.431 217.6 499.271C228.98 497.701 240.32 495.951 251.52 493.541C251.52 493.541 251.52 493.621 251.59 493.651L264.5 515.061L265.56 516.841C268.36 520.841 273.21 521.911 277.84 521.511C280.784 521.365 283.612 520.318 285.94 518.511C293.12 512.511 286.38 504.371 282.66 498.641" fill="white"/>
<path opacity="0.77" d="M293.51 513.771C298.51 520.481 307.87 522.671 314.84 518.071C319.07 515.271 321.55 509.691 317.98 501.071C318.63 502.021 319.22 502.861 319.8 503.631C327.02 513.441 338.21 507.531 338.21 507.531C347.29 502.641 345.76 494.531 341.79 484.671C337.905 474.905 332.808 465.666 326.62 457.171C330.67 453.381 335.48 449.551 340.55 451.231C346.02 453.051 347.55 459.911 348.17 465.631C348.46 468.291 348.75 470.921 349.04 473.581L353.42 512.741C354.88 525.741 356.34 538.931 359.51 551.621C361.149 558.482 363.418 565.177 366.29 571.621C370.309 580.604 375.988 588.747 383.03 595.621C391.813 586.92 399.503 577.182 405.93 566.621C412.078 568.633 417.5 572.409 421.52 577.478C425.539 582.547 427.981 588.685 428.54 595.131V595.461C431.02 618.871 408.48 636.461 389.54 647.281C367.66 659.861 343.27 669.281 319.31 677.111C309.43 680.351 296.59 683.111 286.16 679.731C285.037 679.373 283.941 678.935 282.88 678.421C272.48 673.321 265.52 662.631 260.09 652.861C234.09 606.111 223.29 552.431 217.6 499.271C228.98 497.701 240.32 495.951 251.52 493.541C251.52 493.541 251.52 493.621 251.59 493.651L264.5 515.061L265.56 516.841C268.36 520.841 273.21 521.911 277.84 521.511C280.784 521.365 283.612 520.318 285.94 518.511C293.12 512.511 286.38 504.371 282.66 498.641" fill="#3FBDF1"/>
<path opacity="0.77" d="M296.58 516.941C301.01 522.941 308.58 522.181 314.84 518.071C318.62 515.571 321.72 516.301 318.53 508.591C319.12 509.431 319.2 506.591 319.72 507.221C326.17 515.981 319.8 503.601 319.8 503.601C328.8 514.971 348.39 504.261 344.8 495.471C341 486.001 337 472.001 331.93 465.001C335.93 461.221 335.16 461.781 340.25 464.791C341.617 465.669 342.762 466.854 343.593 468.251C344.425 469.648 344.92 471.219 345.04 472.841C345.45 476.651 345.86 480.301 346.27 484.021L350.17 519.021C351.48 530.651 352.78 542.401 355.61 553.721C357.073 559.842 359.102 565.814 361.67 571.561C365.25 579.471 376.75 592.641 383.03 598.671C390.84 590.921 400.2 576.671 405.93 567.201C416.93 570.581 416.45 581.101 417.23 592.591V592.891C419.45 613.781 399.33 629.471 382.47 639.141C362.93 650.371 341.16 658.771 319.77 665.771C310.95 668.671 299.49 671.171 290.18 668.111C289.176 667.794 288.196 667.402 287.25 666.941C277.97 662.381 271.75 652.851 266.9 644.121C245.67 605.991 235.82 562.701 230.4 519.301C230.002 516.053 230.881 512.779 232.851 510.167C234.821 507.555 237.728 505.81 240.96 505.301C247.05 504.301 253.12 503.301 259.15 501.961L259.32 502.041L270.84 521.151C273.35 524.701 273.76 521.921 277.89 521.561C280.5 521.331 285.56 520.821 287.58 519.131C293.99 513.791 290.37 511.581 287.05 506.471" fill="#3FBDF1"/>
</g>
<path d="M509.89 700.692C509.89 700.692 476.68 689.772 476.18 708.132" stroke="black" stroke-width="5.47" stroke-miterlimit="10"/>
<path opacity="0.54" d="M212.62 887.718L147.49 720.858C146.683 717.629 146.623 714.259 147.313 711.003C148.004 707.748 149.428 704.692 151.476 702.069C153.525 699.446 156.144 697.324 159.136 695.865C162.127 694.406 165.412 693.648 168.74 693.648H427.44C433.249 693.647 438.889 695.602 443.452 699.198C448.014 702.793 451.233 707.82 452.59 713.468L523.89 880.288C524.661 883.506 524.692 886.857 523.982 890.089C523.271 893.321 521.838 896.35 519.789 898.948C517.74 901.547 515.129 903.647 512.152 905.092C509.175 906.536 505.909 907.287 502.6 907.288H237.71C231.944 907.292 226.343 905.367 221.797 901.821C217.251 898.275 214.021 893.311 212.62 887.718Z" fill="white"/>
<path d="M520.7 728.838C520.7 728.838 526.09 733.778 524.04 740.838C522.52 746.068 517.32 749.368 512.17 747.578C495.77 741.908 481 732.278 477.4 715.908C475.699 707.62 475.331 699.113 476.31 690.708C477.1 682.918 478.25 674.508 480.87 667.098C484.87 655.718 497.12 647.788 509.01 653.268" stroke="black" stroke-width="5.47" stroke-miterlimit="10"/>
<path d="M212.62 887.718L147.49 720.858C146.683 717.629 146.623 714.259 147.313 711.003C148.004 707.748 149.428 704.692 151.476 702.069C153.525 699.446 156.144 697.324 159.136 695.865C162.127 694.406 165.412 693.648 168.74 693.648H427.44C433.249 693.647 438.889 695.602 443.452 699.198C448.014 702.793 451.233 707.82 452.59 713.468L523.89 880.288C524.661 883.506 524.692 886.857 523.982 890.089C523.271 893.321 521.838 896.35 519.789 898.948C517.74 901.547 515.129 903.647 512.152 905.092C509.175 906.536 505.909 907.287 502.6 907.288H237.71C231.944 907.292 226.343 905.367 221.797 901.821C217.251 898.275 214.021 893.311 212.62 887.718Z" fill="#3FBDF1"/>
<path d="M212.62 887.718L147.49 720.858C146.683 717.629 146.623 714.259 147.313 711.003C148.004 707.748 149.428 704.692 151.476 702.069C153.525 699.446 156.144 697.324 159.136 695.865C162.127 694.406 165.412 693.648 168.74 693.648H427.44C433.249 693.647 438.889 695.602 443.452 699.198C448.014 702.793 451.233 707.82 452.59 713.468L523.89 880.288C524.661 883.506 524.692 886.857 523.982 890.089C523.271 893.321 521.838 896.35 519.789 898.948C517.74 901.547 515.129 903.647 512.152 905.092C509.175 906.536 505.909 907.287 502.6 907.288H237.71C231.944 907.292 226.343 905.367 221.797 901.821C217.251 898.275 214.021 893.311 212.62 887.718Z" stroke="black" stroke-width="5.47" stroke-linecap="square" stroke-linejoin="round"/>
<path d="M222.15 880.998L162.06 726.998C161.317 724.019 161.263 720.91 161.901 717.907C162.539 714.904 163.853 712.085 165.744 709.666C167.634 707.247 170.051 705.29 172.81 703.944C175.57 702.598 178.6 701.898 181.67 701.898H420.33C425.688 701.896 430.891 703.699 435.1 707.015C439.309 710.331 442.279 714.968 443.53 720.178L509.32 874.088C510.03 877.058 510.058 880.15 509.402 883.132C508.746 886.114 507.422 888.908 505.531 891.305C503.641 893.702 501.231 895.64 498.484 896.972C495.737 898.305 492.723 898.998 489.67 898.998H245.29C239.979 899.003 234.819 897.234 230.628 893.974C226.436 890.713 223.453 886.147 222.15 880.998Z" fill="#3FBDF1"/>
<path d="M732.92 856.84L778.68 962.73" stroke="black" stroke-width="5.47" stroke-miterlimit="10"/>
<path d="M950 962.73H50" stroke="black" stroke-width="5.47" stroke-miterlimit="10"/>
<path d="M524.37 484.809C516.95 492.139 505.87 492.129 499.56 485.349" stroke="black" stroke-width="5.47" stroke-miterlimit="10"/>
<path d="M326.62 457.139C330.67 453.349 335.48 449.519 340.55 451.199C346.02 453.019 347.55 459.879 348.17 465.599C349.923 481.319 351.673 497.023 353.42 512.71C355.64 532.71 357.98 553.189 366.29 571.569C370.309 580.552 375.988 588.695 383.03 595.569" stroke="black" stroke-width="5.47" stroke-miterlimit="10"/>
<path d="M428.54 595.449V595.119C427.981 588.674 425.539 582.535 421.52 577.466C417.5 572.398 412.078 568.622 405.93 566.609C399.503 577.17 391.813 586.909 383.03 595.609C360.003 618.506 330.422 633.67 298.39 638.999C299.93 645.129 303.1 650.709 305.29 656.609C307.48 662.509 308.57 669.339 305.91 675.029C302.55 682.289 292.91 681.339 286.21 679.729C286.14 679.729 286.1 679.729 286.03 679.729" stroke="black" stroke-width="5.47" stroke-miterlimit="10"/>
<path d="M251.54 493.531C240.34 495.941 229 497.691 217.62 499.261C223.31 552.421 234.07 606.101 260.11 652.851C265.54 662.621 272.5 673.311 282.9 678.411C283.961 678.926 285.057 679.364 286.18 679.721C296.61 683.151 309.45 680.341 319.33 677.101C343.33 669.261 367.68 659.851 389.56 647.271C408.45 636.441 430.99 618.861 428.56 595.451C428.325 592.873 427.798 590.33 426.99 587.871" stroke="black" stroke-width="5.47" stroke-miterlimit="10"/>
<path d="M438.82 387.488C440.498 394.486 444.329 400.78 449.774 405.484C455.219 410.189 462.003 413.065 469.17 413.708C469.765 410.822 471.056 408.123 472.93 405.849C480.93 396.419 484.34 414.109 509.93 401.409C545.39 383.769 558.85 393.889 558.85 393.889C560.03 394.769 559.85 402.888 560.05 404.368C561.05 412.798 561.95 421.188 562.94 429.608C563.54 434.748 564.13 439.849 564.69 444.949C565.173 444.081 565.707 443.242 566.29 442.438C569.52 431.008 575.29 417.509 587.73 423.319C590.249 424.547 592.442 426.352 594.13 428.588C602.38 439.428 596.13 449.898 587.5 457.648C585.337 460.053 582.919 462.215 580.29 464.099C581.71 467.039 587.51 478.709 587.51 478.749C588.11 479.929 608.38 456.988 609.89 454.488C612.146 448.364 613.356 441.904 613.47 435.379C613.8 408.549 602.88 377.318 581.15 361.928C575.76 358.118 577.48 354.448 577.15 349.268C577.127 348.988 577.02 348.722 576.842 348.504C576.665 348.286 576.425 348.127 576.156 348.048C575.886 347.969 575.599 347.974 575.332 348.061C575.065 348.149 574.831 348.315 574.66 348.539C567.85 356.379 550.99 355.599 550.99 355.599C492.47 340.939 472.8 366.959 460.99 371.599C456.171 373.424 450.867 373.512 445.99 371.849C445.703 373.463 444.98 374.968 443.9 376.202C442.819 377.436 441.423 378.351 439.86 378.849L440.16 381.558C440.415 383.631 439.941 385.727 438.82 387.488Z" fill="#3FBDF1"/>
<path d="M469.21 413.752C462.043 413.108 455.259 410.232 449.814 405.528C444.369 400.824 440.537 394.529 438.86 387.532C438.203 384.848 437.788 382.11 437.62 379.352L438.08 379.302C438.709 379.255 439.328 379.12 439.92 378.902C441.483 378.404 442.879 377.489 443.96 376.255C445.04 375.022 445.763 373.516 446.05 371.902C446.233 371.007 446.27 370.088 446.16 369.182L444.66 355.942C444.66 355.942 455.24 363.812 466.98 359.212C478.72 354.612 498.43 328.592 556.98 343.212C556.98 343.212 570.2 343.992 576.98 336.152C577.151 335.928 577.385 335.762 577.652 335.675C577.919 335.587 578.206 335.583 578.476 335.662C578.745 335.741 578.985 335.9 579.162 336.117C579.34 336.335 579.447 336.602 579.47 336.882C579.82 342.072 581.74 345.742 587.14 349.542C608.87 364.942 619.79 396.162 619.45 422.992C619.35 434.122 615.65 445.112 609.94 454.542C608.43 457.042 588.16 479.982 587.56 478.802C587.56 478.802 581.76 467.092 580.34 464.152L580 463.502L580.65 463.072C583.064 461.433 585.369 459.639 587.55 457.702C596.17 449.952 602.43 439.482 594.18 428.642C592.491 426.406 590.299 424.6 587.78 423.372C575.3 417.562 569.57 431.062 566.34 442.492C565.713 444.676 565.327 446.923 565.19 449.192C565.04 447.792 564.89 446.442 564.74 445.042C564.18 439.942 563.59 434.842 562.99 429.702C561.99 421.282 561.05 412.892 560.1 404.462C559.95 403.022 560.1 394.862 558.9 393.982C558.9 393.982 545.43 383.862 509.98 401.502C484.39 414.202 480.98 396.502 472.98 405.942C471.106 408.217 469.815 410.915 469.22 413.802C469.037 414.729 468.92 415.668 468.87 416.612C468.851 416.734 468.851 416.859 468.87 416.982C468.75 419.052 468.71 421.112 468.66 423.132C468.47 442.622 470.61 462.982 478.26 481.082C487.56 503.022 512.17 524.662 537.76 514.432C545.76 511.222 552.93 506.052 559.49 500.562" stroke="black" stroke-width="5.47" stroke-miterlimit="10"/>
<path d="M486.722 461.286C489.267 460.434 490.495 457.247 489.465 454.168C488.435 451.088 485.536 449.282 482.99 450.134C480.445 450.985 479.217 454.172 480.247 457.252C481.278 460.332 484.177 462.138 486.722 461.286Z" fill="black"/>
<path d="M524.798 460.067C527.343 459.216 528.571 456.029 527.541 452.949C526.51 449.869 523.612 448.063 521.066 448.915C518.521 449.767 517.293 452.954 518.323 456.033C519.353 459.113 522.252 460.919 524.798 460.067Z" fill="black"/>
<path d="M510.24 466.662C510.24 466.662 497.57 473.852 496.8 466.392C496.56 464.092 493.46 441.562 493.46 441.562C493.46 441.562 483.22 430.712 467.53 438.732" stroke="black" stroke-width="5.47" stroke-miterlimit="10"/>
<path d="M507.39 435.249C507.39 435.249 527.85 425.029 541.39 439.759" stroke="black" stroke-width="5.47" stroke-miterlimit="10"/>
<path d="M526.15 516.941L528.5 529.001C521.09 535.831 515.85 545.621 517.38 555.931C518.74 565.071 526.22 573.581 533.89 578.371C546.71 586.371 563.76 585.741 577.56 580.651C591.05 575.651 602.72 566.161 611.18 554.581C615.164 548.983 617.818 542.55 618.94 535.771V535.651" stroke="black" stroke-width="5.47" stroke-miterlimit="10"/>
<path d="M528.5 529L533.08 550.78" stroke="black" stroke-width="5.47" stroke-miterlimit="10"/>
<path d="M593.27 473.551L600.19 519.501C600.872 523.999 603.146 528.103 606.598 531.066C610.05 534.03 614.45 535.657 619 535.651C640.537 539.141 661.782 544.235 682.56 550.891C763.73 577.071 813.69 650.191 827.8 731.891C833.67 766.101 834.11 801.981 826.74 836.001C822.55 855.151 816.49 876.661 802.42 891.001C784.15 909.701 756.11 902.001 734.52 893.551C667.49 867.481 611.74 821.101 563.6 768.001C537.86 739.601 504.6 716.841 504.6 716.841" stroke="black" stroke-width="5.47" stroke-miterlimit="10"/>
<path d="M244.3 846.532C236.78 846.462 230.23 840.392 228.54 831.942C225.2 815.322 224.32 789.622 248.69 784.012C279.14 777.012 302.56 810.172 314.04 831.132C317.9 838.132 313.53 847.132 306.34 847.132L244.3 846.532Z" fill="#D7E8F0"/>
<path d="M254.353 769.9C260.817 765.598 260.917 754.384 254.574 744.853C248.232 735.321 237.85 731.081 231.385 735.383C224.92 739.685 224.821 750.899 231.163 760.43C237.506 769.962 247.888 774.202 254.353 769.9Z" fill="#D7E8F0"/>
<path d="M754.77 919.118C754.3 919.188 753.77 919.258 753.31 919.368H753.13L682 918.998L575.27 918.448C574.86 918.448 574.46 918.448 574.06 918.448C573.267 918.429 572.476 918.369 571.69 918.268C578.921 917.428 585.624 914.064 590.62 908.769C595.615 903.474 598.583 896.586 599 889.318C599.02 888.942 599.02 888.565 599 888.188V887.608C598.971 880.497 596.493 873.613 591.983 868.114C587.474 862.616 581.208 858.838 574.24 857.418C573.51 857.238 572.71 857.128 571.94 857.018C573.15 856.908 574.35 856.828 575.52 856.828L665.69 857.308L682.29 857.378L704.68 857.488C712.346 858.188 719.476 861.722 724.675 867.4C729.873 873.077 732.767 880.49 732.79 888.188C732.791 889.641 732.681 891.092 732.46 892.528C731.394 899.857 727.733 906.56 722.143 911.417C716.553 916.275 709.406 918.965 702 918.998H756.18C753.06 918.998 753.93 918.998 754.77 919.118Z" fill="white"/>
<path d="M610.49 956.312C612.522 958.355 614.939 959.975 617.601 961.077C620.264 962.179 623.119 962.741 626 962.732H573.62C563.62 962.732 558.16 960.292 554.18 956.312C550.09 952.204 547.787 946.648 547.77 940.852C547.77 928.852 557.61 919.012 573.62 919.012H626C621.676 919.005 617.447 920.282 613.849 922.682C610.251 925.081 607.446 928.494 605.791 932.489C604.135 936.484 603.702 940.881 604.548 945.122C605.393 949.363 607.479 953.257 610.54 956.312H610.49Z" fill="#D7E8F0"/>
<path d="M783.48 888.738C783.467 893.357 782.392 897.911 780.34 902.048C778.874 905.176 776.863 908.017 774.4 910.438C770.339 914.462 765.239 917.277 759.67 918.568C757.374 919.098 755.026 919.367 752.67 919.368C753.15 919.258 753.67 919.188 754.13 919.118C753.29 919.038 752.42 919.008 755.55 919.008H701.36C708.771 918.98 715.925 916.29 721.519 911.43C727.113 906.57 730.776 899.862 731.84 892.528C732.061 891.092 732.171 889.641 732.17 888.188C732.147 880.489 729.252 873.075 724.051 867.397C718.85 861.719 711.718 858.186 704.05 857.488L733.3 857.638L752.84 857.748C761.006 857.817 768.812 861.115 774.553 866.922C780.295 872.729 783.504 880.572 783.48 888.738Z" fill="#3FBDF1"/>
<path d="M783.48 888.73C783.419 896.901 780.123 904.714 774.312 910.459C768.502 916.204 760.651 919.412 752.48 919.38L574.56 918.46C573.37 918.46 572.18 918.37 570.98 918.25C578.48 917.4 585.407 913.829 590.45 908.212C595.492 902.596 598.299 895.325 598.339 887.777C598.378 880.23 595.647 872.93 590.664 867.261C585.68 861.592 578.791 857.948 571.3 857.02C572.489 856.895 573.684 856.835 574.88 856.84L752.8 857.76C760.97 857.816 768.785 861.106 774.535 866.91C780.285 872.714 783.501 880.56 783.48 888.73Z" stroke="black" stroke-width="5.47" stroke-linecap="square" stroke-linejoin="round"/>
<path d="M732.15 888.179C732.134 896.348 728.882 904.178 723.105 909.954C717.329 915.731 709.499 918.983 701.33 918.999H574.74C573.544 918.992 572.349 918.925 571.16 918.799C578.654 917.909 585.562 914.301 590.575 908.659C595.587 903.016 598.355 895.731 598.355 888.184C598.355 880.637 595.587 873.352 590.575 867.709C585.562 862.067 578.654 858.459 571.16 857.569C572.35 857.459 573.55 857.379 574.74 857.379H701.33C709.495 857.397 717.32 860.648 723.096 866.419C728.871 872.191 732.126 880.014 732.15 888.179Z" stroke="black" stroke-width="5.47" stroke-linecap="square" stroke-linejoin="round"/>
<path d="M547.77 940.858C547.769 943.726 548.334 946.566 549.432 949.216C550.531 951.865 552.14 954.272 554.17 956.298C558.17 960.298 563.6 962.728 573.61 962.728H755.54C752.41 962.728 753.26 962.668 754.11 962.588C748.787 961.962 743.879 959.403 740.317 955.397C736.755 951.392 734.788 946.218 734.788 940.858C734.788 935.498 736.755 930.325 740.317 926.319C743.879 922.314 748.787 919.755 754.11 919.128C753.26 919.048 752.41 918.988 755.54 918.988H573.61C557.59 918.998 547.77 928.838 547.77 940.858Z" stroke="black" stroke-width="5.47" stroke-linecap="square" stroke-linejoin="round"/>
<path d="M604.07 940.858C604.083 946.655 606.392 952.21 610.49 956.308C614.589 960.407 620.144 962.715 625.94 962.728H751.57C752.41 962.728 753.26 962.668 754.11 962.588C748.787 961.962 743.879 959.403 740.317 955.397C736.755 951.392 734.788 946.218 734.788 940.858C734.788 935.498 736.755 930.325 740.317 926.319C743.879 922.314 748.787 919.755 754.11 919.128C753.26 919.048 752.41 918.988 751.57 918.988H625.94C620.145 919.004 614.591 921.313 610.493 925.411C606.395 929.509 604.086 935.063 604.07 940.858Z" stroke="black" stroke-width="5.47" stroke-linecap="square" stroke-linejoin="round"/>
<path d="M400.42 774H344.3C341.732 773.996 339.221 773.244 337.073 771.838C334.925 770.432 333.232 768.432 332.2 766.08C331.802 765.205 331.631 764.243 331.705 763.284C331.778 762.325 332.093 761.401 332.62 760.596C333.147 759.792 333.869 759.134 334.719 758.683C335.569 758.233 336.518 758.005 337.48 758.02H397.14C394.33 762.75 395.76 769.32 400.42 774Z" fill="#D7E8F0"/>
<path d="M436.71 768.218C436.707 769.748 436.099 771.214 435.017 772.295C433.936 773.377 432.47 773.986 430.94 773.988H400.42C395.76 769.318 394.33 762.748 397.14 757.988H424.09C426.655 757.989 429.164 758.734 431.314 760.132C433.463 761.531 435.161 763.524 436.2 765.868C436.523 766.611 436.696 767.409 436.71 768.218Z" fill="#3FBDF1"/>
<path d="M422.67 773.999C422.512 774.304 422.328 774.595 422.12 774.869C418.12 780.339 409.43 780.869 402.68 775.929C401.882 775.34 401.127 774.695 400.42 773.999C395.76 769.329 394.33 762.759 397.14 757.999C397.298 757.694 397.482 757.403 397.69 757.129C401.69 751.619 410.34 751.129 417.09 756.029C417.903 756.637 418.668 757.306 419.38 758.029C424 762.679 425.44 769.209 422.67 773.999Z" fill="white"/>
<path d="M450.82 803.451C450.809 804.982 450.194 806.447 449.107 807.526C448.021 808.605 446.551 809.211 445.02 809.211H386.13C388.97 804.431 387.55 797.911 382.88 793.211H438.2C440.769 793.212 443.281 793.96 445.432 795.364C447.582 796.769 449.277 798.769 450.31 801.121C450.64 801.854 450.813 802.647 450.82 803.451Z" fill="#3FBDF1"/>
<path d="M386.13 809.208H358.42C355.855 809.21 353.344 808.466 351.194 807.067C349.044 805.668 347.347 803.674 346.31 801.328C345.983 800.594 345.81 799.802 345.8 798.998C345.799 798.242 345.947 797.492 346.236 796.792C346.525 796.093 346.949 795.458 347.484 794.922C348.019 794.387 348.655 793.963 349.354 793.674C350.054 793.385 350.803 793.237 351.56 793.238H382.88C387.55 797.908 389 804.428 386.13 809.208Z" fill="#D7E8F0"/>
<path d="M386.13 809.209C386 809.523 385.828 809.819 385.62 810.089C381.62 815.589 372.96 816.089 366.22 811.179C365.404 810.571 364.636 809.902 363.92 809.179C359.29 804.509 357.87 797.989 360.64 793.179C360.8 792.871 360.984 792.577 361.19 792.299C365.19 786.829 373.88 786.299 380.62 791.249C381.423 791.832 382.178 792.477 382.88 793.179C387.55 797.909 389 804.429 386.13 809.209Z" fill="white"/>
<path d="M405.75 844.181H370.49C367.926 844.178 365.418 843.432 363.269 842.034C361.119 840.635 359.421 838.644 358.38 836.301C357.983 835.423 357.814 834.459 357.888 833.499C357.963 832.538 358.278 831.612 358.805 830.805C359.333 829.999 360.055 829.338 360.905 828.885C361.756 828.431 362.706 828.2 363.67 828.211H402.47C399.69 833.001 401.12 839.511 405.75 844.181Z" fill="#3FBDF1"/>
<path d="M462.89 838.46C462.882 839.981 462.271 841.438 461.192 842.51C460.112 843.582 458.651 844.182 457.13 844.18H405.75C401.12 839.51 399.69 832.99 402.47 828.18H450.27C452.838 828.18 455.351 828.929 457.502 830.333C459.652 831.738 461.347 833.738 462.38 836.09C462.709 836.837 462.883 837.643 462.89 838.46Z" fill="#D7E8F0"/>
<path d="M428 844.181C427.84 844.488 427.656 844.782 427.45 845.061C423.45 850.561 414.8 851.061 408.05 846.151C407.239 845.54 406.474 844.872 405.76 844.151C401.13 839.481 399.7 832.961 402.48 828.151C402.633 827.842 402.813 827.547 403.02 827.271C407.02 821.801 415.71 821.331 422.46 826.221C423.262 826.804 424.018 827.449 424.72 828.151C429.38 832.881 430.8 839.441 428 844.181Z" fill="white"/>
<path d="M161.61 525.371L162.49 525.621L162.16 526.901C161.951 526.401 161.767 525.89 161.61 525.371Z" fill="#353642"/>
<path d="M318.106 605.375C331.27 601.511 338.186 585.589 333.555 569.813C328.924 554.038 314.499 544.381 301.336 548.245C288.172 552.11 281.256 568.031 285.887 583.807C290.518 599.583 304.943 609.239 318.106 605.375Z" fill="#D7E8F0"/>
</svg>
