<svg width="313" height="163" viewBox="0 0 313 163" fill="none" xmlns="http://www.w3.org/2000/svg">
<mask id="mask0_1_389" style="mask-type:alpha" maskUnits="userSpaceOnUse" x="0" y="0" width="313" height="163">
<rect width="313" height="163" rx="25" fill="#D9D9D9"/>
</mask>
<g mask="url(#mask0_1_389)">
<mask id="mask1_1_389" style="mask-type:luminance" maskUnits="userSpaceOnUse" x="-164" y="-105" width="590" height="388">
<path d="M401 -105H-139C-152.807 -105 -164 -93.8071 -164 -80V257.522C-164 271.329 -152.807 282.522 -139 282.522H401C414.807 282.522 426 271.329 426 257.522V-80C426 -93.8071 414.807 -105 401 -105Z" fill="white"/>
</mask>
<g mask="url(#mask1_1_389)">
<path d="M401 -105H-139C-152.807 -105 -164 -93.807 -164 -79.9999V257.522C-164 271.329 -152.807 282.522 -139 282.522H401C414.807 282.522 426 271.329 426 257.522V-79.9999C426 -93.807 414.807 -105 401 -105Z" fill="#98E8F1"/>
<g style="mix-blend-mode:overlay">
<path fill-rule="evenodd" clip-rule="evenodd" d="M352.002 311.336C466.524 311.336 559.364 211.65 559.364 88.6791C559.364 -34.2911 466.524 -133.978 352.002 -133.978C237.481 -133.978 144.641 -34.2911 144.641 88.6791C144.641 211.65 237.481 311.336 352.002 311.336Z" fill="#E3DEA8" fill-opacity="0.9"/>
</g>
<path fill-rule="evenodd" clip-rule="evenodd" d="M239.073 72.0708C239.216 71.9714 239.249 71.7283 239.075 71.7391C238.96 71.7462 238.853 71.8336 238.797 71.9447C238.716 72.1058 238.925 72.1734 239.073 72.0708ZM246.345 74.3464C246.402 74.219 246.339 74.0296 246.212 74.0859C246.094 74.138 246.026 74.3049 245.953 74.4876C245.895 74.6289 245.973 74.8304 246.098 74.7427C246.2 74.6715 246.272 74.5096 246.345 74.3464ZM241.101 64.6969C241.28 64.5961 241.335 64.3574 241.197 64.2051C240.91 63.887 240.831 64.0301 240.79 64.5013C240.776 64.6677 240.956 64.779 241.101 64.6969ZM320.8 22.0438C320.85 21.7958 320.584 21.5464 320.417 21.7363C320.304 21.8646 320.289 21.992 320.374 22.1349C320.487 22.3278 320.756 22.2634 320.8 22.0438ZM239.575 58.5629C239.322 58.5629 239.141 58.826 239.344 58.9752C239.527 59.1098 239.746 59.108 239.866 58.9271C239.982 58.752 239.784 58.5629 239.575 58.5629ZM294.681 26.9739C294.462 27.0335 294.454 27.361 294.681 27.3565C294.718 27.3557 294.754 27.3512 294.789 27.3427C294.819 27.3352 294.85 27.3245 294.88 27.3105C295.096 27.2098 294.92 26.9085 294.69 26.9712L294.683 26.9733L294.681 26.9739ZM273.727 89.5555C273.986 89.5784 274.156 89.2927 274.013 89.0762C274.008 89.0684 274.003 89.0607 273.998 89.0529C273.847 88.824 273.497 88.8748 273.418 89.1373C273.358 89.334 273.495 89.5357 273.7 89.5532L273.727 89.5555ZM325.365 12.679C325.233 12.4643 324.884 12.5238 324.888 12.7761C324.889 12.8609 324.905 12.9254 324.938 12.9763C324.968 13.0226 325.013 13.0576 325.076 13.0865C325.305 13.1915 325.497 12.8938 325.365 12.679ZM320.94 13.1869L320.936 13.1655C320.916 13.0568 320.567 12.9053 320.457 12.8996C320.435 12.8985 320.412 12.897 320.39 12.8955C320.22 12.8839 320.054 12.8727 319.992 13.0308C319.78 13.5604 320.167 13.6828 320.55 13.6921C320.811 13.6984 320.989 13.4438 320.94 13.1869ZM245.702 71.9213C245.62 71.977 245.508 71.9451 245.462 71.8565C245.418 71.7709 245.379 71.7063 245.337 71.656C245.162 71.4488 244.883 71.7405 244.907 72.0105C244.927 72.2375 244.927 72.4615 244.926 72.7161V72.7196C244.926 72.7684 244.97 72.8057 245.018 72.7982C245.624 72.7033 245.875 72.623 245.942 72.0584C245.957 71.928 245.811 71.8479 245.702 71.9213ZM243.387 74.0885C243.361 73.9685 243.128 73.95 243.006 73.9624C242.892 73.9739 242.763 73.9296 242.643 73.8886C242.419 73.812 242.23 73.7472 242.248 74.0841C242.238 73.8894 243.138 75.1684 243.087 75.1273C243.465 75.4342 243.512 74.658 243.407 74.1821C243.4 74.1514 243.393 74.1202 243.387 74.0885ZM326.642 12.8942C326.664 13.1453 326.63 13.3992 326.535 13.6329C326.424 13.9051 326.315 14.1772 326.205 14.4493C326.043 14.8471 325.882 15.2449 325.72 15.6427C325.654 15.8083 325.602 15.9543 325.557 16.0808C325.377 16.5891 325.308 16.7824 324.815 16.6684C324.655 16.6312 324.591 16.4501 324.681 16.3122C324.92 15.9476 325.306 15.3611 325.263 15.1835C325.222 15.0164 324.841 14.8097 324.494 14.6226C324.281 14.507 324.08 14.3987 323.983 14.3119C323.702 14.0606 323.599 13.8318 323.492 13.5898C323.467 13.5347 323.442 13.4789 323.415 13.422C323.326 13.2373 323.342 12.9529 323.293 12.7538C323.228 12.4845 322.933 12.7506 322.843 13.0125C322.809 13.11 322.775 13.2074 322.741 13.3049L322.74 13.3081C322.695 13.4394 322.665 13.5803 322.701 13.7146C322.76 13.9389 322.9 14.0547 323.058 14.1855C323.214 14.3135 323.386 14.456 323.519 14.7286L323.543 14.7803C323.736 15.1751 323.791 15.289 323.76 15.3606C323.748 15.3895 323.721 15.4116 323.684 15.4426C323.606 15.5071 323.482 15.61 323.343 15.8939C323.214 16.1553 323.125 16.4415 323.037 16.72C322.947 17.0099 322.859 17.2914 322.732 17.5279C322.601 17.7712 322.642 18.1575 322.891 18.2755C323.099 18.3735 323.081 18.6363 323.096 18.8652C323.1 18.9437 323.157 18.9899 323.245 19.0134C323.683 19.1305 324.11 19.5114 323.929 19.9267C323.906 19.9785 323.883 20.0304 323.86 20.0822C323.716 20.4129 323.31 20.5391 323.059 20.2797C322.738 19.9486 322.486 19.5454 322.235 19.1435C322.058 18.8602 321.651 18.8857 321.501 19.1849C321.22 19.745 320.939 20.3052 320.66 20.8654L320.648 20.8878C320.625 20.9342 320.662 20.9878 320.713 20.9826C320.862 20.9679 321.011 20.9531 321.159 20.9385C321.317 20.9229 321.474 20.9072 321.631 20.8916C321.715 20.8833 321.77 20.9686 321.727 21.0406C321.56 21.3173 321.253 21.8255 321.287 21.9626C321.371 22.2887 321.7 22.3846 322.022 22.4785C322.415 22.5929 322.797 22.7042 322.713 23.2228C322.697 23.3163 321.948 24.1453 321.508 24.5791C321.392 24.6939 321.423 24.9192 321.576 24.9779C321.78 25.0563 321.915 25.108 321.967 25.2397C322.072 25.5061 321.671 25.6475 321.431 25.4915C321.381 25.4596 321.332 25.4276 321.283 25.3957C321.152 25.3105 320.976 25.3564 320.902 25.494C320.891 25.5136 320.881 25.5331 320.87 25.5527C320.87 25.5528 320.87 25.5529 320.87 25.553C320.87 25.5531 320.87 25.5532 320.87 25.5532C320.756 25.7656 320.641 25.9788 320.54 26.1987C320.39 26.5283 320.386 26.901 320.315 27.2564C320.286 27.4037 320.238 27.5474 320.173 27.6874C320.068 27.8547 319.955 28.0152 319.834 28.1688C319.68 28.3647 319.551 28.5801 319.52 28.8273C319.483 29.1196 319.457 29.5254 319.445 29.9511C319.419 30.8829 320.256 32.4963 319.324 32.4963C319.18 32.4963 319.065 32.4901 318.971 32.485C318.573 32.4637 318.562 32.4632 318.327 33.0427C318.067 33.6854 318.316 34.837 318.249 35.5271C318.22 35.8279 318.215 36.131 318.211 36.4549C318.208 36.6509 318.204 36.8546 318.196 37.07C318.169 37.7575 318.023 38.4418 317.879 39.12C317.867 39.1785 317.854 39.237 317.842 39.2955C317.823 39.3848 317.939 39.4322 317.988 39.3555C318.087 39.2033 318.312 39.2248 318.355 39.4011C318.505 40.0206 318.376 40.5953 318.233 41.2393C318.189 41.4371 317.823 41.5451 317.706 41.7112C317.678 41.7526 317.65 41.8001 317.621 41.8482C317.526 42.0123 317.426 42.1826 317.269 42.1346C316.825 41.9985 316.84 41.8836 316.863 41.7032C316.879 41.5783 316.9 41.4219 316.776 41.2055C316.718 41.1055 316.674 41.021 316.635 40.9473C316.498 40.6827 316.432 40.5544 316.05 40.3353C315.584 40.0691 314.869 39.9865 314.231 39.9127C313.979 39.8836 313.739 39.8558 313.53 39.8187C312.313 39.6003 311.094 39.5434 309.863 39.4859L309.814 39.4837C305.142 39.2659 300.486 39.2101 295.815 39.4861C291.518 39.7401 287.117 40.3877 282.903 41.2648C282.603 41.3273 282.304 41.3894 282.004 41.4516C277.83 42.3169 273.738 43.1653 269.684 44.6391C269.31 44.7749 268.937 44.9766 268.563 45.1782C268.097 45.4293 267.631 45.6806 267.165 45.8047C266.837 45.8922 266.509 45.9432 266.178 45.9947C265.707 46.068 265.229 46.142 264.741 46.3242C263.641 46.7345 262.52 47.09 261.4 47.4456C260.494 47.7328 259.588 48.02 258.694 48.3363C258.12 48.5388 257.535 48.7325 256.945 48.9275C255.314 49.4668 253.653 50.0162 252.145 50.7919C251.692 51.0245 251.261 51.299 250.83 51.5737C250.41 51.841 249.991 52.1083 249.551 52.3375C249.366 52.4335 249.154 52.5277 248.932 52.627C248.137 52.98 247.201 53.3967 246.854 54.1859C246.681 54.5802 246.711 54.866 246.817 55.2745C247.017 56.0309 247.176 56.0141 247.661 55.9633C247.701 55.9591 247.744 55.9546 247.789 55.9503C248.301 55.9016 248.91 55.6135 249.487 55.3399C249.827 55.1789 250.157 55.0228 250.449 54.9235C252.616 54.1901 254.807 53.6029 257.01 53.0154C258.672 52.5718 260.338 51.9843 262.001 51.3982C264.293 50.5899 266.578 49.784 268.841 49.3604C270.004 49.1426 271.136 48.737 272.269 48.3306C273.393 47.928 274.518 47.5247 275.677 47.3033C275.843 47.2715 276.111 47.1672 276.412 47.0501C277.037 46.8076 277.802 46.5107 278.085 46.6933C278.159 46.7413 278.305 47.1423 278.422 47.4638C278.48 47.6227 278.532 47.7621 278.564 47.8301C278.907 48.5683 279.301 49.2811 279.763 49.9422C280.785 51.4059 282.062 52.6605 283.328 53.9039C283.786 54.354 284.244 54.8028 284.686 55.2595C286.083 56.7002 287.345 58.2499 288.612 59.8056C289.031 60.3203 289.451 60.8358 289.877 61.3482C289.939 61.4234 290.055 61.4222 290.116 61.3459C290.214 61.2245 290.433 61.3093 290.448 61.4642C290.542 62.4248 291.191 63.1869 291.796 63.8997C291.858 63.9724 291.919 64.0447 291.98 64.1168C292.88 65.1899 293.603 66.1985 294.312 67.4222C294.716 68.1175 295.197 68.753 295.674 69.3818C295.885 69.6603 296.095 69.9376 296.297 70.2183C296.673 70.7414 296.976 71.3275 297.281 71.917C297.5 72.341 297.72 72.767 297.969 73.1724C298.489 74.0191 299.004 74.872 299.521 75.725C299.521 75.7254 299.522 75.7258 299.522 75.7262L299.524 75.7282C299.524 75.7285 299.524 75.7289 299.524 75.7292C299.524 75.7295 299.524 75.7298 299.524 75.73C300.365 77.1174 301.204 78.5056 302.058 79.8648C302.705 80.8981 303.218 82.0618 303.731 83.2385C303.855 83.5197 304.052 83.8906 304.268 84.295C304.569 84.8603 304.905 85.493 305.125 86.0448C305.366 86.649 305.371 87.3154 305.501 87.9527C305.65 88.6899 305.812 89.4846 305.395 89.058C305.302 88.9624 305.14 88.9684 305.071 89.0829C305.042 89.1318 305.012 89.1806 304.983 89.2295C304.914 89.3442 305.034 89.4795 305.157 89.4251C305.232 89.3908 305.33 89.5184 305.314 89.5999C305.262 89.8595 305.549 90.0149 305.821 90.1627C305.881 90.1954 305.94 90.2276 305.994 90.2604C306.221 90.3963 306.158 90.6654 305.975 90.8561C305.904 90.9306 305.849 91.0182 305.797 91.1073C305.655 91.3502 305.49 91.4417 305.301 91.3815C305.067 91.3069 304.839 91.1812 304.605 91.1062C304.331 91.0198 304.2 91.3562 304.45 91.4971C304.517 91.5349 304.584 91.5637 304.649 91.5916C304.9 91.7003 305.127 91.7989 305.249 92.3539C305.401 93.051 305.043 93.3075 304.567 93.648C304.44 93.7393 304.304 93.8364 304.167 93.9509C304.167 93.9503 304.167 93.9493 304.166 93.9491L304.15 93.9466C304.168 93.6767 304.116 93.4423 304.005 93.2435C303.848 92.9606 303.491 93.1469 303.491 93.4706C303.491 93.6723 303.633 93.8457 303.831 93.8841C303.938 93.9048 304.044 93.9255 304.15 93.9466C304.15 93.9542 304.158 93.9582 304.164 93.9534C304.165 93.9525 304.166 93.9517 304.167 93.9509C304.063 94.3828 303.754 94.3031 303.387 94.2089C303.35 94.1987 303.313 94.19 303.275 94.1799C303.246 94.1726 303.217 94.1668 303.188 94.1596C302.395 93.9842 301.538 93.6857 300.726 93.4031C300.471 93.3147 300.222 93.2278 299.98 93.1466C297.786 92.4119 295.575 91.7916 293.307 91.2887C289.457 90.4352 285.631 90.2468 281.772 90.0569C280.474 89.9932 279.173 89.9294 277.868 89.8385C277.821 89.8353 277.789 89.7914 277.798 89.7454C277.864 89.4526 277.891 89.3338 277.875 89.2208C277.862 89.1454 277.831 89.0715 277.777 88.9483C277.771 88.9309 277.763 88.9121 277.753 88.8918C277.837 89.0845 277.688 89.1019 277.539 89.1179C277.108 89.1672 277.103 89.9111 276.671 89.9545C275.474 90.0751 274.242 90.058 273.016 90.041C272.12 90.0289 271.225 90.0168 270.35 90.0578C270.255 90.0623 270.19 89.9676 270.234 89.883C270.399 89.569 270.108 89.5484 269.828 89.7663C268.798 90.5695 266.928 90.543 265.298 90.5207C264.542 90.5105 263.839 90.5004 263.293 90.5743C262.635 90.6627 261.981 90.7988 261.328 90.935C261.328 90.9351 261.327 90.9352 261.327 90.9352C261.326 90.9352 261.326 90.9352 261.325 90.9353C260.857 91.0338 260.391 91.1308 259.922 91.2105C259.842 91.2235 259.764 91.238 259.685 91.2511C259.211 91.3293 258.734 91.4105 258.27 91.5452C258.1 91.5931 257.892 91.6945 257.674 91.8018C257.638 91.819 257.602 91.8364 257.566 91.8537C257.019 92.1166 256.865 91.219 256.491 91.6974C256.39 91.8264 256.291 91.9539 256.257 91.9597C256.193 91.9699 256.117 91.9829 256.036 91.9974C255.455 92.0975 255.022 91.5827 255.181 91.0155C255.34 90.4479 255.514 89.8875 255.688 89.3266C256.097 88.0107 256.504 86.6948 256.723 85.292C256.751 85.1109 256.785 84.9167 256.821 84.7138C257.079 83.2414 257.423 81.2792 256.221 80.3532C255.625 79.8938 254.726 79.7213 253.946 79.5706C253.745 79.5315 253.552 79.4938 253.374 79.4547C253.077 79.3866 252.712 79.3416 252.325 79.2938C251.467 79.1866 250.501 79.0677 249.931 78.6692C249.687 78.4997 249.517 78.3345 249.352 78.1765C249.081 77.9156 248.829 77.6722 248.3 77.4562C248.107 77.378 247.935 77.2997 247.774 77.2258C247.213 76.9708 246.804 76.7837 246.193 76.9037C246.096 76.9227 246.021 76.8119 246.083 76.736C246.433 76.3143 246.723 75.9618 246.062 75.4978C245.932 75.4078 245.754 75.402 245.58 75.3962C245.236 75.3849 244.659 75.3261 244.552 75.6534C244.511 75.7786 244.492 75.9091 244.471 76.0529C244.456 76.1593 244.439 76.2731 244.412 76.3977C244.398 76.4617 244.39 76.5274 244.397 76.5926C244.412 76.7324 244.441 76.8691 244.486 77.0021C244.529 77.1294 244.476 77.2744 244.353 77.3273L243.875 77.5345C243.789 77.5717 243.705 77.4835 243.686 77.3915C243.663 77.2819 243.553 77.2709 243.438 77.2592C243.322 77.2476 243.2 77.2345 243.155 77.1229C243.026 76.8143 243.049 76.3844 243.07 75.9985C243.081 75.8101 242.898 75.6759 242.723 75.7451C242.5 75.8331 242.282 75.9366 242.09 76.0729C241.684 76.3598 240.849 76.5201 241.093 76.0871C241.122 76.0352 241.158 75.9781 241.2 75.9131C241.321 75.7198 241.205 75.4458 240.985 75.5057C240.883 75.5333 240.806 75.5892 240.746 75.6685C240.53 75.9523 240.229 76.2056 239.891 76.0933C239.856 76.082 239.822 76.0707 239.788 76.0594C239.734 76.0412 239.745 75.9363 239.8 75.9199C240.265 75.782 240.428 75.3234 240.471 74.7992C240.479 74.698 240.379 74.6251 240.284 74.6587L240.091 74.7258C239.77 74.8387 239.534 75.1146 239.473 75.4494L239.453 75.5612C239.408 75.8074 239.279 76.0602 239.028 76.0695C238.517 76.0885 237.775 75.6615 237.387 75.4385C237.338 75.4103 237.294 75.3852 237.257 75.3649C237.216 75.3414 237.175 75.3186 237.135 75.2959L237.132 75.2948C235.821 74.5657 235.342 74.2999 235.535 72.5726C235.603 71.9577 235.705 71.3415 235.807 70.7245C235.954 69.8434 236.101 68.9605 236.148 68.0777C236.229 66.6065 236.097 65.045 235.972 63.5561V63.5539C235.956 63.3562 235.938 63.1597 235.922 62.9649C235.825 61.7749 235.706 60.5913 235.586 59.4086C235.382 57.3947 235.18 55.3838 235.085 53.349C235.064 52.8816 235.042 52.4143 235.021 51.9469V51.9434C234.96 50.6631 234.899 49.3824 234.852 48.1015C234.844 47.8719 234.825 47.6386 234.806 47.4085C234.768 46.944 234.731 46.4923 234.785 46.1105C234.913 45.2191 235.931 44.1283 236.596 43.5204C236.82 43.3148 236.975 43.0219 237.225 42.8467C237.277 42.81 237.33 42.7981 237.384 42.811C237.645 42.8732 237.821 43.1884 238.076 43.1052C238.223 43.0571 238.367 42.9767 238.51 42.9158C238.994 42.7092 239.516 42.2303 240.014 41.7755C240.378 41.4413 240.729 41.1203 241.039 40.9302C241.252 40.8002 241.533 40.6541 241.839 40.4943C242.663 40.065 243.679 39.5358 244.087 38.9481C244.389 38.5118 244.266 38.3469 244.129 38.1612C244.021 38.0148 243.902 37.8556 243.975 37.5402C244.187 36.6246 244.919 37.7983 245.115 38.1112C245.131 38.137 245.168 38.1404 245.19 38.1195C245.283 38.0322 245.428 37.9268 245.587 37.8114C245.835 37.6309 246.118 37.4256 246.292 37.2252C246.442 37.0526 246.297 36.8492 246.073 36.8061C245.937 36.78 245.894 36.5909 246.007 36.5097C246.307 36.2919 246.685 36.0182 246.916 35.9696C247.035 35.9445 247.118 35.918 247.182 35.8982C247.259 35.8737 247.303 35.8593 247.342 35.8703C247.398 35.8858 247.442 35.9529 247.547 36.116C247.621 36.2303 247.782 36.2243 247.844 36.1033C247.857 36.0796 247.869 36.0551 247.882 36.03C248.061 35.6788 248.304 35.2069 248.473 35.0837C248.539 35.0355 248.797 34.9969 249.026 34.9624C249.188 34.9382 249.335 34.916 249.393 34.8943C249.796 34.741 249.953 34.4853 250.104 34.239C250.225 34.0418 250.343 33.8503 250.58 33.7219C250.718 33.6471 250.874 33.6738 251.023 33.6993C251.151 33.7213 251.274 33.7425 251.375 33.6951C251.557 33.6093 251.645 33.4151 251.731 33.2208C251.811 33.0447 251.889 32.8686 252.039 32.7725C252.186 32.6779 252.455 32.6769 252.724 32.6759C252.952 32.675 253.179 32.6741 253.328 32.6156C253.689 32.474 253.798 32.339 253.95 32.1495C254.027 32.0555 254.114 31.9482 254.247 31.8201C254.57 31.5099 254.879 31.4029 255.201 31.2912C255.442 31.2077 255.691 31.1216 255.961 30.9461C256.279 30.7376 256.418 30.4011 256.546 30.0907C256.68 29.7675 256.801 29.4725 257.103 29.3791C257.443 29.2742 257.674 29.3635 257.861 29.4356C258.11 29.5313 258.28 29.5972 258.525 29.1451C258.564 29.0735 258.516 28.9876 258.463 28.8919C258.385 28.7495 258.293 28.5853 258.458 28.4141C258.752 28.1083 258.896 28.3844 259.031 28.6418C259.05 28.6763 259.068 28.7105 259.086 28.7429C259.089 28.7486 259.097 28.7484 259.1 28.7426C259.149 28.6428 259.199 28.5429 259.248 28.443C259.454 28.0254 260.121 28.0385 260.348 27.6318C260.428 27.4906 260.529 27.3095 260.784 27.1745C260.924 27.1004 261.052 27.1322 261.183 27.1645C261.323 27.1996 261.468 27.2353 261.634 27.1385C261.774 27.0568 261.845 26.9173 261.916 26.779C261.963 26.686 262.01 26.5935 262.078 26.5193C262.176 26.4116 262.261 26.2919 262.346 26.1727C262.54 25.8983 262.733 25.6262 263.083 25.5085C262.97 25.5463 263.505 25.5427 263.892 25.518C264.148 25.5017 264.183 25.34 264.046 25.1234C263.972 25.0063 263.897 24.8891 263.822 24.772C263.822 24.7718 263.822 24.7716 263.822 24.7714C263.822 24.7708 263.822 24.7703 263.823 24.7703C263.979 24.7703 264.133 24.7736 264.283 24.7769C264.878 24.7901 265.431 24.8024 266.032 24.602L266.044 24.598C266.311 24.5093 266.719 24.3739 266.937 24.1945L266.955 24.1797C267.224 23.9583 267.342 23.8615 267.39 23.7341C267.428 23.6351 267.424 23.5177 267.417 23.3089C267.411 23.134 267.61 23.0259 267.772 23.092C268.543 23.4064 269.435 23.1777 270.149 22.6036C270.334 22.4545 270.491 22.2927 270.647 22.132C270.856 21.9173 271.063 21.7039 271.334 21.5241C271.47 21.4482 271.608 21.3756 271.748 21.3065C271.884 21.2387 272 21.1361 272.13 21.055C272.184 21.0208 272.239 20.999 272.293 20.9896C272.609 20.9355 272.959 21.1642 273.211 20.966C273.221 20.9577 273.232 20.949 273.244 20.9401C273.348 20.8588 273.437 20.7572 273.496 20.6385C273.603 20.4242 273.815 20.2886 274.051 20.246C274.233 20.213 274.414 20.171 274.593 20.1201C274.933 20.0219 275.234 19.8813 275.518 19.7496C276.158 19.4509 276.703 19.1964 277.392 19.5767C277.486 19.6283 277.608 19.5955 277.652 19.4981C277.792 19.1899 278.334 19.212 278.625 19.0386C278.715 18.9852 278.808 18.9079 278.908 18.8244C279.048 18.7079 279.202 18.5795 279.382 18.4876C279.512 18.4202 279.665 18.3786 279.812 18.3381C279.913 18.3105 280.012 18.2834 280.101 18.249C280.171 18.2222 280.247 18.2119 280.319 18.2303C280.477 18.2702 280.638 18.1794 280.685 18.0238C280.737 17.8504 280.79 17.677 280.842 17.5035C280.892 17.3374 281.073 17.2574 281.227 17.3361C281.585 17.519 282.119 17.7924 282.316 17.7723C282.526 17.7511 282.758 17.5319 282.986 17.3164C283.175 17.1393 283.36 16.9647 283.527 16.9054C283.85 16.791 283.923 16.828 284.029 16.8816C284.109 16.9222 284.207 16.9722 284.448 16.9741C284.503 16.9745 284.555 16.976 284.604 16.9773C285.03 16.9894 284.892 16.3387 285.303 16.2261C285.495 16.1734 285.742 16.1292 285.959 16.0905C286.089 16.0672 286.209 16.0457 286.299 16.0257C286.525 15.9749 286.722 15.9533 286.9 15.9336C287.292 15.8903 287.592 15.8572 287.925 15.5433C288.004 15.4683 287.946 15.3423 287.837 15.3423C287.72 15.3423 287.662 15.2005 287.748 15.1217C287.963 14.9225 288.004 14.9319 288.178 14.9722C288.256 14.9903 288.361 15.0145 288.519 15.029C288.562 15.0327 288.638 15.06 288.728 15.093C289.164 15.2526 290.056 15.3228 290.519 15.3017C290.681 15.2943 290.874 15.2416 291.177 15.1574C291.325 15.1162 291.466 15.0369 291.606 14.9574C291.807 14.8426 292.011 14.7268 292.247 14.7223C292.432 14.7188 292.591 14.7597 292.746 14.7993C292.916 14.8428 293.078 14.8845 293.26 14.8632C293.446 14.8419 294.051 14.6038 294.35 14.486C294.384 14.4726 294.414 14.4606 294.439 14.4509C294.629 14.3766 294.787 14.2612 294.942 14.1479C295.106 14.0286 295.266 13.9115 295.458 13.8469C295.675 13.7727 295.926 13.785 296.177 13.7973C296.397 13.8082 296.618 13.8189 296.819 13.7715C297.236 13.6727 297.598 13.5183 297.944 13.3708C299.071 12.8891 300.845 11.9626 302.064 12.0898C302.289 12.1133 302.505 12.1492 302.691 12.1802C302.715 12.1842 302.739 12.1881 302.762 12.192C302.917 12.2177 303.051 12.2545 303.178 12.2888C303.52 12.3829 303.797 12.4584 304.235 12.2349C304.448 12.1271 304.621 11.9918 304.793 11.857C305.016 11.6816 305.239 11.5072 305.545 11.3951C305.896 11.2673 306.348 11.1688 306.742 11.0831C306.818 11.0669 306.89 11.051 306.959 11.0354C307.229 10.944 307.504 10.9147 307.785 10.9479C308.084 10.9931 308.333 11.1394 308.53 11.3861C308.528 11.3891 308.528 11.3917 308.527 11.394C308.526 11.4043 308.536 11.394 308.53 11.3861C308.571 11.2776 309.222 10.7598 309.154 10.8182C309.307 10.6865 309.435 10.6118 309.547 10.5461C309.696 10.4592 309.818 10.3879 309.937 10.2211C310.102 9.98875 309.926 9.68302 309.648 9.62003L309.647 9.61959C309.531 9.5934 309.416 9.56721 309.3 9.54106C309.27 9.53423 309.273 9.48946 309.304 9.48699C309.757 9.45047 310.124 9.42076 310.551 9.62061C310.691 9.68683 310.873 9.87393 311.061 10.0672C311.316 10.3296 311.581 10.6034 311.773 10.6039C312.036 10.6042 313.386 10.4153 313.649 10.4015C313.903 10.3883 314.208 10.2676 314.594 10.0474C314.659 10.0107 314.722 9.97421 314.787 9.93754L314.794 9.93399C314.794 9.93394 314.794 9.93386 314.794 9.93377C314.794 9.93369 314.794 9.93361 314.794 9.93357C314.846 9.90394 314.898 9.87423 314.95 9.84457C314.979 9.82802 315.004 9.80653 315.028 9.7827C315.268 9.53496 315.508 9.53342 315.746 9.77848C315.782 9.81571 315.822 9.85013 315.866 9.87639C315.928 9.91246 315.99 9.94849 316.051 9.98453C316.173 10.0558 316.33 10.0131 316.399 9.88972C316.605 9.52465 317.14 9.55357 317.552 9.6316C317.762 9.6715 318.001 9.64272 318.295 9.58047C318.519 9.53293 318.859 9.29352 319.186 9.06295C319.524 8.82587 319.848 8.5982 320.018 8.59835C320.111 8.59835 320.216 8.71414 320.336 8.84616C320.467 8.99093 320.615 9.15513 320.785 9.20716C321.182 9.32959 321.742 9.13381 322.084 8.80013C322.206 8.68067 322.471 8.68702 322.54 8.84364C322.543 8.85035 322.546 8.85706 322.549 8.86377C322.598 8.97549 322.744 9.00292 322.83 8.91651C322.834 8.91325 322.837 8.90999 322.84 8.90673C322.841 8.90596 322.842 8.90526 322.843 8.90464C322.844 8.90401 322.844 8.9033 322.845 8.90251C322.853 8.89509 322.86 8.88766 322.867 8.88023C323.085 8.66093 323.542 8.82986 323.841 8.90906C323.989 8.94826 324.156 8.94465 324.315 8.94123C324.602 8.935 324.857 8.92948 324.907 9.18034C324.966 9.47394 324.169 10.1113 323.693 10.4911C323.546 10.6091 323.564 10.8329 323.75 10.8618C324.425 10.9664 325.181 10.2712 325.759 9.73901C325.967 9.54734 326.321 9.55526 326.431 9.81609C326.513 10.0131 326.481 10.2031 326.286 10.4862C325.992 10.914 325.858 10.8244 325.701 10.7205C325.363 10.4938 325.268 11.188 325.639 11.0197C325.675 11.0034 325.712 10.9849 325.75 10.9657C325.84 10.9206 325.935 10.9952 325.925 11.0952C325.891 11.4474 325.966 11.4729 326.082 11.5121C326.179 11.5451 326.306 11.5879 326.419 11.845C326.586 12.2233 326.611 12.5271 326.642 12.8942ZM222.671 62.7379C222.971 62.5192 223.387 62.2968 223.57 62.6195C223.635 62.7338 223.695 62.8371 223.873 62.8122C224.024 62.7909 224.147 62.6184 224.272 62.4416C224.38 62.288 224.492 62.1311 224.625 62.068C225.238 61.7799 226.127 61.7357 226.943 61.6953C227.326 61.6763 227.693 61.6581 228.008 61.6159C228.526 61.5463 229.014 61.383 229.497 61.2213C229.951 61.0695 230.398 60.9193 230.865 60.8493C231.262 60.79 231.551 60.8671 231.926 60.9851C231.953 60.9936 231.98 61.0017 232.005 61.0097C232.356 61.1194 232.529 61.1735 232.634 61.2953C232.735 61.4137 232.772 61.5962 232.844 61.9557L232.847 61.9707C233.232 63.8723 232.935 65.8949 232.638 67.9161C232.118 71.4689 228.801 75.5343 225.212 75.6504C222.477 75.7389 219.745 75.9073 217.021 76.1998C216.141 76.2943 215.365 75.6107 215.372 74.7257C215.385 72.8913 215.399 71.0592 215.269 69.2264C215.21 68.3879 215.129 67.5518 215.047 66.7156C215.024 66.4708 214.999 66.2259 214.976 65.9808C214.854 64.6909 214.883 64.6846 215.755 64.4922C215.81 64.4799 215.87 64.4669 215.932 64.4527C216.243 64.3824 216.442 64.2317 216.649 64.0728C216.809 63.9515 216.975 63.8253 217.203 63.7266C217.466 63.6119 217.633 63.6687 217.83 63.7362C217.928 63.7695 218.032 63.8053 218.16 63.8247C218.661 63.9007 218.805 63.8568 219.085 63.7719C219.194 63.7388 219.322 63.6997 219.5 63.659C219.832 63.5829 220.152 63.532 220.461 63.4826C221.255 63.3559 221.982 63.24 222.671 62.7379ZM326.809 23.6309C326.879 23.5641 326.867 23.4503 326.785 23.399C326.733 23.3666 326.681 23.3343 326.63 23.3019C326.477 23.2066 326.276 23.2685 326.206 23.4338C325.274 25.6285 324.644 27.9084 324.007 30.2171C323.91 30.5695 323.813 30.9228 323.714 31.2764C323.311 32.7192 322.91 34.1622 322.511 35.606C322.437 35.8713 322.347 36.1467 322.256 36.4278C321.944 37.392 322.767 37.6422 323.27 36.7625C324.01 35.4682 324.728 34.1591 325.423 32.8367C325.983 31.7716 326.53 30.698 327.064 29.6175C327.133 29.4774 327.219 29.3286 327.308 29.1749C327.501 28.8415 327.706 28.4854 327.78 28.1465C327.876 27.7114 327.973 27.5824 327.946 27.504C327.845 27.2163 327.66 26.891 327.945 27.0007C327.98 27.0141 328.012 27.031 328.044 27.0472C328.129 27.0909 328.203 27.1294 328.28 27.0813C328.47 26.963 328.728 26.596 328.933 26.3054C329.034 26.1607 328.964 25.9573 328.791 25.9203C328.68 25.8966 328.556 25.8716 328.424 25.845C327.641 25.6872 326.58 25.4731 326.288 25.1295C325.822 24.58 326.321 24.1009 326.809 23.6309Z" fill="#FF5678"/>
<path fill-rule="evenodd" clip-rule="evenodd" d="M194.746 117.756C194.396 117.193 193.327 117.389 193.63 117.979C193.775 118.26 194.048 118.495 194.358 118.649C194.836 118.886 195.115 118.349 194.833 117.896L194.746 117.756ZM177.57 90.6713C177.669 89.9439 176.957 89.3731 176.268 89.627C175.612 89.8688 175.41 90.7096 175.889 91.2194C175.916 91.2472 175.942 91.2749 175.968 91.3027C176.522 91.8895 177.451 91.5506 177.559 90.7505L177.57 90.6713ZM223.982 93.2449C224.816 92.5599 224.655 91.2906 223.592 91.1061C223.395 91.0719 223.196 91.0434 222.997 91.0192C222.12 90.9125 221.415 91.7139 221.565 92.5848C221.743 93.6186 222.971 94.0757 223.781 93.4099C223.848 93.3549 223.915 93.2999 223.982 93.2449ZM191.625 196.325C192.166 195.966 192.255 195.225 191.969 194.641C191.301 193.282 190.18 191.065 189.888 191.22C189.68 191.331 189.664 193.596 189.633 193.917C189.605 194.214 189.577 194.511 189.549 194.808C189.438 195.983 190.642 196.978 191.625 196.325ZM180.7 161.887C179.939 162.415 179.484 163.423 179.764 164.306C179.882 164.677 179.999 165.047 180.117 165.418C180.252 165.845 180.332 166.476 180.572 166.852C180.885 167.342 180.649 167.629 181.066 167.094C181.514 166.519 181.647 164.984 181.841 164.28C181.939 163.926 182.036 163.572 182.134 163.218C182.432 162.132 181.625 161.245 180.7 161.887ZM150.056 112.331C150.056 111.272 148.847 110.656 148.009 111.303C147.949 111.35 147.889 111.396 147.829 111.443C146.817 112.232 147.408 114.374 148.691 114.386C148.811 114.388 148.928 114.382 149.043 114.369C149.342 114.334 149.668 114.382 149.948 114.269C150.058 114.224 150.118 114.131 150.127 113.989C150.145 113.706 150.056 113.424 150.056 113.14V112.331ZM178.145 120.36C176.944 119.617 175.394 120.481 175.394 121.893C175.394 123.462 177.291 124.32 178.46 123.274C178.478 123.257 178.497 123.24 178.516 123.223C179.397 122.432 179.239 121.037 178.232 120.414C178.203 120.396 178.174 120.378 178.145 120.36ZM235.861 146.663C234.931 144.218 231.88 144.651 231.776 147.265C231.772 147.367 231.768 147.47 231.764 147.572C231.739 148.159 231.529 149.042 231.893 149.555C232.257 150.069 233.296 150.355 233.824 150.629C235.373 151.436 237.099 149.917 236.478 148.284C236.272 147.744 236.067 147.203 235.861 146.663ZM270.253 111.933C270.202 114.469 272.894 116.129 275.138 114.944C277.583 113.651 277.479 110.114 274.961 108.969C272.783 107.978 270.301 109.54 270.253 111.933ZM232.523 123.034C232.466 125.087 233.001 125.313 233.311 123.283C233.523 121.907 233.739 120.532 233.96 119.157C234.404 116.41 234.871 113.667 235.362 110.93C236.117 106.712 236.934 102.506 237.817 98.317C238.25 96.2649 236.889 94.3837 234.892 93.7423C233.565 93.317 231.751 94.7997 231.903 96.1848C232.069 97.703 232.321 99.2299 232.448 100.703C232.7 103.643 232.836 106.569 232.815 109.522C232.78 114.027 232.647 118.531 232.523 123.034ZM143.302 195.491C146.724 200.153 148.271 200.08 147.877 194.311C147.848 193.884 147.828 193.559 147.823 193.378C147.785 192.039 147.758 190.699 147.741 189.359C147.699 186.112 144.032 184.126 141.229 185.766C139.128 186.995 138.355 189.859 139.909 191.732C139.955 191.788 140.001 191.843 140.048 191.897C141.106 193.138 142.321 194.155 143.302 195.491ZM223.874 145.496C226.938 147.102 230.6 145.001 230.891 141.554C230.92 141.201 230.952 140.848 230.985 140.495C231.097 139.302 232.171 132.957 230.452 133.107C229.474 133.191 227.759 134.73 226.862 135.267C225.679 135.98 224.493 136.689 223.303 137.39C220.244 139.191 220.33 143.639 223.474 145.287C223.607 145.357 223.74 145.426 223.874 145.496ZM220.613 96.0746C222.572 93.2482 217.798 90.3909 214.427 89.7077C213.386 89.4962 212.344 89.5252 211.297 89.3831C210.547 89.2802 209.081 88.618 208.383 88.8353C207.505 89.1078 207.186 93.835 207.065 95.0219C206.871 96.9334 206.74 99.2521 207.534 101.048C209.064 104.508 213.19 101.807 215.198 100.355C216.918 99.1101 218.866 97.8493 220.392 96.3378C220.475 96.2556 220.548 96.1677 220.613 96.0746ZM229.135 124.509C229.761 126.447 231.799 126.98 231.878 124.945C231.957 122.929 232.001 120.912 232.055 118.896C232.151 115.302 232.241 111.708 232.212 108.112C232.182 104.601 232.021 101.095 231.648 97.6044C231.515 96.3711 231.648 94.2625 231.042 93.2104C230.49 92.2511 228.775 92.2409 227.84 92.3003C226.787 92.3656 225.933 93.4423 225.154 94.1234C224.292 94.877 222.521 95.9378 222.38 97.0624C222.221 98.3174 222.863 100.109 223.112 101.327C224.021 105.771 225.127 110.17 226.293 114.544C227.18 117.873 228.075 121.226 229.135 124.509ZM190.353 116.194C191.59 117.089 193.53 116 192.857 114.629C192.455 113.811 191.801 112.99 191.31 112.215C189.904 109.998 188.328 107.873 186.797 105.755C185.394 103.816 183.957 101.895 182.488 100.014C181.669 98.9666 180.824 97.9406 179.986 96.9117C179.019 95.7267 177.697 96.2134 177.491 97.7292C177.04 101.054 176.654 104.389 176.337 107.733C176.139 109.838 175.966 111.948 175.822 114.06C175.781 114.656 175.351 116.668 175.626 117.223C175.915 117.806 177.682 118.587 178.223 118.944C179.737 119.944 180.912 121.449 182.35 119.806C183.342 118.676 184.139 117.08 185.245 116.093C185.823 115.579 186.365 115.603 187.013 115.298C187.766 114.944 187.788 114.602 188.687 115.084C189.31 115.419 189.832 115.818 190.353 116.194ZM124.14 135.427C119.743 138.046 115.617 143.511 118.763 147.548C120.414 149.666 122.129 150.156 124.451 150.992C125.817 151.485 125.913 151.032 127.021 150.2C128.073 149.41 129.22 148.777 130.257 147.964C132.496 146.209 134.731 144.399 136.906 142.552C137.637 141.931 137.529 142.144 137.418 141.399C137.317 140.719 136.864 139.855 136.616 139.211C136.168 138.043 135.64 136.912 135.111 135.785C134.512 134.505 133.99 133.115 133.246 131.921C132.937 131.426 132.57 130.978 132.208 130.527C131.45 129.576 131.477 129.611 130.569 130.388C128.652 132.03 126.868 133.805 124.71 135.088C124.52 135.201 124.33 135.314 124.14 135.427ZM171.753 114.658C173.329 115.663 174.977 114.725 175.11 112.861C175.332 109.774 175.59 106.697 175.935 103.617C176.182 101.419 176.468 99.2275 176.747 97.0348C176.86 96.1421 177.299 94.6437 177.055 93.7756C176.815 92.922 175.756 92.1105 175.174 91.4917C175.019 91.3265 174.539 90.6294 174.332 90.5975C174.111 90.5642 173.279 91.2192 173.038 91.3671C172.19 91.8902 171.357 92.4409 170.536 93.0119C168.99 94.0915 167.491 95.248 166.024 96.4494C165.893 96.557 165.762 96.665 165.631 96.7733C160.917 100.672 161.189 107.552 166.243 110.998C168.065 112.243 169.898 113.472 171.753 114.658ZM141.803 199.833C139.351 196.19 134.487 195.881 130.43 197.563C130.387 197.581 130.344 197.598 130.3 197.616C127.794 198.627 125.315 199.016 122.725 199.617C121.418 199.92 120.19 200.252 118.857 200.463C118.385 200.538 117.75 200.548 117.175 200.629C116.573 200.715 115.614 200.55 115.566 201.156C115.548 201.38 115.628 201.656 115.635 201.881C115.638 201.949 115.64 202.018 115.642 202.087C115.815 204.611 117.323 207.647 118.64 209.699C119.409 210.898 120.387 212.012 121.36 213.019C122.459 214.155 123.092 214.957 124.623 214.481C127.204 213.679 129.483 212.061 132.099 211.348C134.168 210.785 135.887 209.603 137.906 208.992C141.754 207.825 144.049 203.169 141.803 199.833ZM150.887 110.722C150.695 112.985 152.468 114.992 154.683 115.495C158.161 116.284 161.664 117.285 164.699 119.167C166.325 120.175 168.388 121.733 168.864 123.819C169.433 126.311 167.194 127.855 165.324 128.633C163.079 129.568 160.636 129.926 158.256 130.22C156.997 130.376 155.732 130.46 154.468 130.539C153.708 130.585 152.558 130.464 151.632 130.576C151.057 130.645 150.21 130.491 150.107 131.061C150.057 131.342 150.154 131.707 150.141 131.993C150.137 132.078 150.133 132.163 150.129 132.247L150.032 134.302C149.967 135.672 149.902 137.04 149.837 138.408C149.836 138.439 149.834 138.47 149.833 138.501C149.66 142.171 153.232 143.829 156.204 141.67C157.337 140.845 158.462 140.021 159.592 139.199C160.064 138.856 160.354 138.373 160.819 138.051C161.437 137.627 161.985 137.37 162.565 136.814C164.931 134.538 167.562 132.572 170.073 130.484C171.213 129.536 172.461 128.663 173.546 127.645C174.683 126.579 174.525 125.701 174.497 124.168C174.473 122.81 174.858 121.175 174.833 119.76C174.823 119.238 175.076 118.623 174.739 118.224C174.515 117.959 174.122 117.874 173.836 117.677C173.615 117.525 173.393 117.373 173.172 117.221C172.443 116.721 171.715 116.219 170.985 115.718C168.086 113.727 165.188 111.733 162.288 109.74C160.839 108.744 159.392 107.75 157.943 106.755C157.538 106.476 156.219 105.22 155.765 105.258C155.303 105.295 154.499 106.266 154.152 106.575C153.62 107.049 153.104 107.547 152.527 107.963C152.376 108.076 152.22 108.183 152.061 108.284C151.782 108.459 151.41 108.478 151.184 108.717C150.856 109.064 151.03 109.658 150.957 110.13C150.927 110.322 150.905 110.52 150.887 110.722ZM211.185 187.518C213.748 186.321 215.113 184.051 214.421 181.308C213.401 177.266 211.866 173.232 208.874 170.612C204.704 166.957 198.605 168.368 195.342 172.661C193.708 174.81 192.695 177.352 191.942 179.986C191.169 182.689 190.031 186.212 190.24 189.07C190.33 190.323 191.33 191.671 191.901 192.764C192.49 193.894 192.881 195.513 194.27 195.122C196.423 194.515 198.614 193.122 200.628 192.125C202.667 191.116 204.812 190.287 206.926 189.313C208.329 188.667 209.786 188.174 211.185 187.518ZM277.223 146.609C277.45 151.254 280.936 154.777 284.249 151.513C286.209 149.581 288.334 147.723 290.139 145.625C292.001 143.46 293.473 140.902 294.905 138.4C296.352 135.875 298.308 133.146 299.199 130.331C299.652 128.9 299.846 127.313 300.131 125.833C300.2 125.478 300.661 124.152 300.516 123.852C300.313 123.441 299.029 123.397 298.677 123.336C295.87 122.859 292.896 122.836 290.081 123.262C284.635 124.087 280.08 127.369 278.359 133.109C277.067 137.418 276.999 142.032 277.223 146.609ZM262.53 95.7186C260.306 95.7086 259.804 96.7933 261.866 97.6276C263.422 98.2536 264.97 98.9173 266.481 99.6593C269.593 101.188 272.912 102.184 275.892 104.033C282.317 108.018 289.291 110.827 295.78 114.638C296.792 115.232 298.768 116.663 299.923 116.542C300.537 116.477 300.08 117.009 300.478 115.96C300.621 115.583 300.669 115.092 300.749 114.687C300.989 113.476 301.175 112.253 301.445 111.047C301.89 109.065 302.344 107.224 302.531 105.185C302.611 104.321 302.697 103.459 302.707 102.59C302.717 101.708 302.905 99.5028 302.535 98.7405C302.29 98.2348 302.241 98.4087 301.629 98.2652C301.276 98.184 300.908 98.0145 300.57 97.9C299.775 97.6348 298.979 97.3798 298.145 97.3015C297.322 97.2232 296.796 96.9537 296.024 96.7986C295.213 96.6334 294.381 96.8334 293.555 96.6044C292.665 96.3566 292.24 96.1305 291.309 96.2247C290.405 96.3175 290.146 96.1016 289.262 95.8378C288.524 95.6175 287.645 95.7712 286.876 95.7045C285.945 95.6219 285.018 95.4972 284.086 95.419C279.898 95.0625 275.66 95.59 271.463 95.548C269.181 95.5262 266.948 95.8885 264.668 95.7755C263.962 95.7411 263.247 95.7218 262.53 95.7186ZM269.36 126.307C269.426 123.148 266.408 121.282 263.719 122.942C261.54 124.287 259.456 125.717 257.44 127.33C254.053 130.042 250.097 133.294 249.205 138.027C248.29 142.884 252.215 146.864 255.894 148.852C262.367 152.345 269.27 146.12 269.243 138.765C269.227 134.612 269.273 130.459 269.36 126.307ZM210.214 149.385C209.473 147.177 207.237 146.595 205.16 147.648C204.133 148.168 203.14 148.561 202.181 149.232C200.617 150.324 198.806 151.261 197.172 152.107C193.127 154.197 189.202 156.794 185.198 159.111C184.138 159.725 183.79 160.114 183.431 161.379C183.04 162.751 182.673 164.134 182.296 165.512C181.945 166.797 181.387 168.173 181.534 169.529C181.662 170.709 182.23 171.823 182.659 172.9C183.737 175.608 184.905 178.275 186.114 180.92C187.278 183.471 190.42 182.979 191.11 180.262C192.024 176.66 193.374 173.222 195.823 170.525C200.01 165.909 206.694 165.844 210.731 170.607C212.648 172.871 213.815 175.721 214.732 178.585C215.214 180.091 215.538 181.624 215.848 183.178C216.178 184.838 216.097 185.719 217.801 185.215C219.155 184.817 220.59 184.498 221.916 184.041C222.604 183.805 223.276 183.54 223.307 182.956C223.346 182.218 222.422 180.707 222.15 180.012C220.74 176.429 219.33 172.845 217.919 169.261C216.387 165.37 214.856 161.479 213.324 157.588C212.56 155.646 211.795 153.705 211.031 151.763C210.755 151.063 210.497 150.228 210.214 149.385ZM269.649 115.651C269.672 113.883 269.699 112.114 269.72 110.344C269.732 109.289 270.171 107.25 269.315 106.497C268.787 106.03 267.215 105.672 266.544 105.353C265.222 104.723 263.791 104.442 262.46 103.816C257.251 101.364 251.831 99.3202 246.466 97.3435C245.31 96.9174 244.128 96.5682 242.964 96.1494C242.335 95.9219 240.008 94.5915 239.427 94.9408C238.917 95.2451 238.534 98.8739 238.37 99.626C237.984 101.41 237.615 103.198 237.26 104.989C236.501 108.823 235.81 112.671 235.163 116.527C234.466 120.676 238.296 123.327 241.937 121.22C244.738 119.6 247.528 117.984 250.348 116.402C251.143 115.955 253.942 113.902 254.598 114.708C255.649 116 253.145 117.518 252.486 118.071C249.945 120.215 247.258 122.084 244.539 123.954C241.722 125.891 238.79 127.603 235.958 129.504C234.935 130.191 233.303 131.027 232.901 132.186C232.384 133.679 232.758 135.492 233.229 136.918C234.384 140.419 235.649 143.88 236.989 147.306C237.597 148.864 238.221 150.414 238.857 151.959C239.614 153.8 240.609 154.188 242.259 155.034C247.633 157.793 253.166 160.444 258.491 163.405C261.099 164.854 260.986 166.142 258.343 164.76C256.277 163.682 254.209 162.608 252.146 161.527C248.171 159.444 244.03 163.311 246.109 167.288C246.912 168.822 247.74 170.341 248.591 171.845C248.935 172.453 248.609 173.294 248.122 172.793C247.689 172.346 247.399 171.474 247.105 170.914C246.499 169.758 245.901 168.597 245.29 167.445C244.023 165.051 242.71 162.695 241.554 160.237C240.684 158.388 240.011 155.156 238.222 154.224C235.181 152.638 231.523 154.882 231.641 158.309C231.869 164.925 232.372 171.484 233.028 178.12C233.074 178.582 233.485 179.943 232.655 179.81C232.282 179.75 232.155 177.224 232.09 176.697C231.788 174.279 231.532 171.856 231.322 169.428C230.904 164.582 230.678 159.717 230.649 154.85C230.114 159.582 229.579 164.313 229.045 169.045L228.284 175.771C228.152 176.947 228.018 178.126 227.885 179.302C227.824 179.844 227.863 180.552 227.686 181.067C227.45 181.754 226.752 181.276 226.848 180.556C227.598 174.936 228.293 169.309 228.914 163.671C229.247 160.654 229.559 157.636 229.846 154.613C229.923 153.801 229.999 152.987 230.073 152.175C230.111 151.759 230.444 150.427 230.259 150.082C230.076 149.742 228.864 149.385 228.515 149.211C227.751 148.83 226.988 148.449 226.224 148.067C223.747 146.822 221.271 145.568 218.82 144.262C217.749 143.691 216.625 142.809 215.459 142.505C214.298 142.202 213.454 143.07 212.462 143.62C211.69 144.051 209.87 144.622 209.354 145.352C208.874 146.03 210.365 148.748 210.756 149.749C211.861 152.576 212.966 155.402 214.071 158.228C216.312 163.958 218.553 169.688 220.792 175.42C221.34 176.82 221.888 178.221 222.436 179.621C222.786 180.52 223.373 183.077 224.225 183.178C224.601 183.222 225.22 182.782 225.585 182.654C226.128 182.466 226.63 182.469 227.175 182.369C228.175 182.188 229.212 181.633 230.193 181.244C232.715 180.246 235.329 179.601 237.872 178.668C240.426 177.73 242.94 176.676 245.483 175.739C247.794 174.887 250.125 173.917 252.346 172.809C254.689 171.636 257.094 170.604 259.378 169.306C263.538 166.941 267.655 164.731 271.331 161.831C272.195 161.148 273.115 160.463 273.97 159.733C274.72 159.092 276.15 158.301 276.66 157.459C276.854 157.137 277.022 156.507 276.795 156.125C276.551 155.715 275.472 155.753 274.967 155.681C274.496 155.612 274.025 155.544 273.553 155.476C271.852 155.23 270.395 156.653 270.528 158.367C270.681 160.329 269.82 160.381 269.828 158.414C269.83 158.054 269.831 157.73 269.815 157.478C269.775 156.888 269.914 155.731 269.669 155.207C269.399 154.633 268.654 154.64 267.978 154.484C265.114 153.817 262.276 153.259 259.503 152.203C254.82 150.42 249.223 147.41 248.176 141.605C247.086 135.553 251.878 130.308 255.912 126.933C258.328 124.911 260.897 123.162 263.555 121.538C264.797 120.778 266.038 120.02 267.289 119.277C267.744 119.007 269.237 118.451 269.477 117.979C269.722 117.494 269.596 116.202 269.649 115.651ZM169.459 208.601C169.21 208.731 168.93 208.494 169.017 208.227C171.462 200.733 173.875 193.265 175.923 185.627C176.943 181.821 177.976 178.018 179.03 174.223C179.486 172.585 180.604 170.332 180.294 168.635C179.761 165.736 176.147 164.703 173.671 166.302C171.254 167.863 168.821 169.396 166.394 170.936C162.754 173.246 159.052 175.3 155.386 177.587C153.508 178.757 151.571 179.547 149.611 180.505C148.017 181.282 148.635 183.659 148.658 185.247C148.739 190.854 148.735 196.48 149.052 202.078C149.167 204.117 149.018 206.459 150.226 208.156C151.771 210.325 153.205 212.538 154.613 214.823C155.141 215.678 157.359 220.313 158.186 220.21C158.725 220.145 159.222 218.268 159.493 217.823C160.075 216.864 160.926 216.039 161.7 215.267C165.045 211.932 168.756 209.582 172.615 207.144C176.534 204.668 180.545 202.363 184.538 200.014C185.44 199.484 186.412 199.101 187.308 198.559C187.663 198.345 188.365 198.004 188.587 197.622C188.92 197.049 188.808 195.462 188.877 194.777C189.02 193.377 189.275 191.925 189.289 190.515C189.302 189.122 188.524 187.926 187.958 186.712C185.6 181.64 177.746 182.164 176.313 187.571C176.128 188.266 175.945 188.961 175.764 189.657C174.893 192.991 173.844 196.272 172.821 199.556C172.3 201.233 171.776 202.908 171.253 204.586C170.849 205.892 170.637 207.805 169.459 208.601ZM207.335 88.96C206.541 87.6021 204.248 88.4797 202.696 88.2194C202.224 88.1402 201.751 88.0411 201.264 87.9296C200.793 87.8209 200.379 87.776 199.9 87.731C199.359 87.6789 198.866 87.3644 198.391 87.3021C198.033 87.2557 197.405 87.418 197.062 87.5412C196.268 87.8267 196.293 87.6832 196.26 88.6745C196.208 90.2063 196.169 91.7381 196.091 93.2698C195.783 99.2941 195.187 105.26 194.372 111.228C194.206 112.434 193.744 114.016 193.999 115.213C194.228 116.293 195.095 117.447 195.669 118.352C196.848 120.216 199.626 121.136 201.579 121.664C203.641 122.222 205.779 122.426 207.737 122.923C208.279 123.061 208.902 122.819 209.48 122.956C210.016 123.084 210.431 123.4 210.925 123.627C212.135 124.187 213.487 124.29 214.737 124.72C217.217 125.575 219.871 125.524 222.352 126.346C222.986 126.555 223.534 127.084 224.145 127.265C224.702 127.43 225.277 127.236 225.861 127.329C226.492 127.428 227.101 127.596 227.585 127.925C228.256 128.381 229.375 128.741 229.269 127.936C229.185 127.298 228.855 126.52 228.673 125.906C228.211 124.336 227.747 122.767 227.286 121.199C226.374 118.093 225.467 114.984 224.625 111.856C223.872 109.057 223.188 106.237 222.591 103.395C222.286 101.952 222.032 100.5 221.771 99.0478C221.695 98.626 221.771 97.9565 221.377 97.6754C221.019 97.4218 220.185 98.3348 219.808 98.6289C217.17 100.681 211.122 106.753 207.825 103.171C206.049 101.243 206.153 97.8522 206.346 95.3596C206.465 93.8278 206.714 92.3163 206.995 90.8106C207.064 90.4352 207.491 89.2281 207.335 88.96ZM297.711 121.929C298.784 122.06 299.978 121.102 299.595 120.09C299.297 119.305 298.571 119.218 297.771 118.893C296.507 118.378 295.216 117.932 293.966 117.379C291.251 116.177 288.55 114.96 285.833 113.76C284.643 113.232 283.244 112.372 281.951 112.802C280.558 113.266 279.182 114.211 277.878 114.902C276.402 115.686 274.928 116.471 273.453 117.257C272.762 117.625 272.07 117.993 271.378 118.361C270.292 118.939 270.148 118.999 270.062 120.32C269.626 127.078 269.658 134.099 269.848 140.868C269.945 144.322 269.836 147.794 270.067 151.242C270.084 151.507 270.067 153.004 270.221 153.208C270.438 153.495 271.969 153.592 272.336 153.665C274.584 154.106 276.536 152.134 276.405 149.847C276.014 143.062 275.724 135.737 278.809 129.83C282.583 122.606 290.648 121.041 297.711 121.929ZM232.116 44.589C232.539 43.5534 233.267 42.6791 233.89 41.7706C234.227 41.2793 234.809 40.6921 235.024 40.1175C235.331 39.2997 235.329 39.4748 234.871 38.7585C234.438 38.0817 234.447 38.0307 233.777 37.9097C233.213 37.8078 232.611 37.9809 232.035 37.8698C231.452 37.7575 229.851 37.23 230.219 36.2336C230.203 36.2772 231.13 35.7862 231.201 35.7011C231.433 35.4287 231.507 34.8477 231.622 34.5183C231.993 33.4626 232.122 32.7791 231.71 31.655C231.094 29.9764 228.658 29.4796 227.143 30.0444C226.385 30.3264 225.952 30.9243 225.612 31.6759C225.396 32.1532 225.344 32.8429 225.065 33.2585C224.643 33.884 224.617 33.8146 223.742 33.704C222.629 33.5634 221.715 33.1036 220.659 32.7829C219.509 32.4333 218.762 33.1443 217.758 33.7176C215.945 34.7532 214.192 35.1125 212.162 35.2768C208.833 35.5464 206.524 37.8756 208.028 40.8576C208.308 41.4111 208.585 41.969 208.849 42.5398C209.059 42.9981 209.4 43.4662 209.408 43.9963C209.418 44.4955 208.745 45.1748 208.82 45.5879C208.982 46.4692 210.787 47.1746 211.47 47.4227C213.405 48.1237 215.606 49.4959 217.735 48.9447C218.902 48.6425 219.53 46.6622 220.628 46.5167C222.266 46.2987 222.28 49.2926 223.926 49.14C225.169 49.0248 226.41 48.7539 227.468 48.3508C228.472 47.9691 229.32 47.3994 230.236 46.8345C231.376 46.1311 231.614 45.9379 232.116 44.589ZM195.512 94.3654C195.811 90.2126 192.682 87.2625 188.519 87.2008C187.102 87.1798 185.687 87.2224 184.278 87.4224C183.412 87.5456 182.558 87.7427 181.708 87.9528C181.097 88.1035 179.155 88.231 178.747 88.7194C178.376 89.1657 178.373 91.2164 178.296 91.7946C178.126 93.0815 178.172 93.5264 178.935 94.5219C181.449 97.7971 184.066 100.975 186.543 104.287C189.566 108.329 194.532 107.378 194.897 102.344C194.927 101.927 194.959 101.514 194.993 101.107C195.18 98.8608 195.352 96.6131 195.512 94.3654ZM147.274 129.744C147.46 129.744 147.694 129.771 147.934 129.791C148.506 129.836 149.373 130.12 149.455 129.552C149.495 129.277 149.395 128.906 149.406 128.628C149.41 128.536 149.414 128.444 149.418 128.352C149.477 126.861 149.545 125.368 149.608 123.877C149.667 122.512 149.725 121.148 149.775 119.783C149.809 118.851 150.247 116.542 149.897 115.7C149.662 115.135 149.103 115.264 148.426 115.18C147.781 115.102 147.134 115.029 146.493 114.922C145.678 114.786 144.775 114.473 143.947 114.669C143.115 114.866 142.51 115.692 141.857 116.218C140.822 117.048 139.767 117.848 138.724 118.665C136.83 120.152 134.955 121.667 133.076 123.177C132.3 123.8 132.151 123.584 132.529 124.48C132.763 125.033 133.296 125.659 133.619 126.159C134.264 127.155 134.906 128.663 135.735 129.472C136.938 130.647 140.279 129.901 141.879 129.892C143.703 129.884 145.461 129.914 147.274 129.744ZM151.995 129.646C153.577 129.481 155.174 129.552 156.746 129.323C158.456 129.075 160.151 128.707 161.857 128.43C163.558 128.156 168.731 127.045 168.221 124.317C167.681 121.433 163.72 119.707 161.529 118.738C160.583 118.319 159.626 117.954 158.659 117.628C154.55 116.238 150.601 119.2 150.465 123.536C150.42 124.958 150.381 126.382 150.381 127.807C150.381 128.149 150.272 128.86 150.403 129.179C150.707 129.929 151.064 129.646 151.995 129.646ZM146.794 130.885C142.056 130.885 138.784 135.822 140.842 140.09C140.965 140.346 141.089 140.601 141.215 140.855C142.475 143.406 144.02 145.842 145.507 148.281C146.1 149.255 147.714 149.541 148.214 148.516C148.561 147.807 148.552 146.762 148.608 145.941C148.755 143.809 148.823 141.657 148.873 139.519C148.917 137.648 148.993 135.789 149.128 133.921C149.156 133.512 149.577 131.385 149.337 131.034C149.122 130.724 147.235 130.888 146.794 130.885ZM188.369 65.6276C190.071 65.6273 191.777 65.6043 193.479 65.635C195.024 65.6632 197.038 65.374 198.453 66.2291C199.339 66.7643 199.409 67.5573 199.046 68.4319C197.798 71.4389 198.032 73.2828 201.094 72.1755C203.382 71.3478 205.714 70.7921 208.048 70.1438C208.631 69.9818 211.134 69.6647 211.451 69.1846C211.764 68.7084 211.062 65.8353 210.991 65.2292C210.952 64.8974 210.956 64.4576 210.921 64.0422C210.877 63.5059 211.101 62.6856 210.592 62.5121C210.305 62.4144 209.974 62.5584 209.671 62.5571C209.632 62.5569 209.592 62.5568 209.553 62.5566C208.133 62.5688 206.711 62.6397 205.294 62.6902C200.415 62.8647 195.657 63.0975 190.821 63.9155C188.572 64.2959 186.304 64.7637 184.069 65.2305C182.186 65.6234 182.503 65.9531 184.261 65.958C185.637 65.9619 186.999 65.7424 188.369 65.6276ZM328.234 27.1811C328.264 27.1148 328.303 27.0525 328.349 26.9959C328.732 26.523 328.515 25.8131 327.933 25.6343C327.632 25.5419 327.331 25.4496 327.03 25.3573C326.28 25.127 325.875 25.1797 326.21 24.2782C326.628 23.1487 328.537 23.0193 329.456 22.9768C332.617 22.8299 335.937 23.9108 338.94 24.8629C340.405 25.3277 341.554 26.0468 342.793 27.0031C343.334 27.4208 343.959 27.8129 344.433 28.3146C344.925 28.8359 345.13 29.5037 345.612 30.0263C346.401 30.8832 347.41 31.3099 347.797 32.5467C348.241 33.9664 347.711 35.5916 347.054 36.8295C346.388 38.0859 345.397 39.0359 344.592 40.1775C343.954 41.0833 342.621 43.558 344.704 43.2713C345.806 43.1194 347.235 41.0999 348.028 40.2955C349.164 39.1416 350.283 37.9613 351.486 36.8867C352.553 35.9339 353.784 34.957 355.211 34.7894C356.715 34.6129 357.467 35.6478 358.201 36.9063C358.891 38.0932 359.002 39.2519 359.489 40.4668C359.724 41.0525 360.022 41.379 360.161 42.0176C360.373 42.9998 360.394 44.0712 360.502 45.0726C360.672 46.6451 360.833 47.8816 360.549 49.4223C360.284 50.8643 360.211 52.3959 359.988 53.8631C359.735 55.5246 359.524 57.1937 359.275 58.8558C359.063 60.264 358.259 62.2695 359.048 63.5789C360.942 66.7256 363.217 62.0933 363.814 60.3627C364.868 57.3217 365.404 53.9974 366.332 50.894C366.83 49.2342 367.263 47.5588 367.549 45.8405C367.785 44.4194 367.667 42.6882 368.393 41.4224C368.956 40.4393 369.958 39.6925 371.058 39.9926C372.433 40.3684 372.962 42.5056 373.366 43.805C374.435 47.2319 374.042 50.3182 373.606 53.8132C373.405 55.4314 373.214 57.052 372.867 58.6434C372.634 59.7169 371.668 61.8898 373.105 62.4736C375.142 63.3019 377.3 57.021 377.882 55.6027C379.401 51.888 379.984 48.204 380.61 44.2237C380.754 43.3085 380.863 42.3738 381.079 41.4744C381.267 40.6914 381.825 39.9002 381.877 39.1172C381.927 38.3336 381.444 37.7868 381.939 37.0176C382.35 36.3773 383.094 36.3386 383.765 36.333C385.344 36.3198 386.854 37.0647 388.323 37.6051C390.469 38.3947 391.293 36.7828 389.724 35.119C386.212 31.3972 382.579 27.8482 378.436 24.8967C375.877 23.0723 373.315 21.3191 370.548 19.8314C367.744 18.3245 364.533 17.3067 361.53 16.395C359.898 15.899 358.275 15.3368 356.663 14.7679C355.227 14.2613 353.782 14.1653 352.378 13.5907C349.325 12.3427 345.913 11.8591 342.752 10.9742C341.355 10.5838 339.944 10.2489 338.545 9.88703C337.074 9.50676 335.009 8.84636 333.51 8.91056C332.231 8.96534 331.799 10.5413 331.183 11.6375C330.29 13.2289 329.527 14.8822 328.825 16.5797C327.385 20.0576 325.866 23.6506 324.836 27.284C324.271 29.2789 323.713 31.276 323.157 33.2742C322.579 35.3551 323.853 35.7874 324.881 33.8884C326.07 31.6926 327.195 29.4556 328.234 27.1811ZM218.055 62.4889C216.127 62.5832 214.78 64.4546 215.028 66.3686C215.177 67.5177 215.263 68.6778 215.311 69.8425C215.457 73.3164 218.416 76.0043 221.887 75.8002C223.036 75.7327 224.186 75.6824 225.336 75.6462C228.868 75.535 232.201 71.5284 232.65 68.0232C232.831 66.6175 232.932 65.2634 232.905 63.8451C232.881 62.5147 233.237 61.3963 231.926 60.9848C230.885 60.6586 230.228 61.2022 229.237 61.4503C228.049 61.7472 226.757 61.7832 225.548 61.9446C223.032 62.2807 220.606 62.4778 218.055 62.4889ZM184.233 71.1099C184.297 71.1064 184.36 71.0953 184.422 71.0773C186.948 70.3416 189.578 70.2847 192.177 70.0652C193.795 69.9286 193.888 69.1658 192.268 69.2656C190.966 69.3452 189.665 69.4035 188.363 69.4714C187.364 69.5239 184.969 69.471 183.771 70.2933C183.315 70.6066 183.68 71.14 184.233 71.1099ZM322.345 8.41436C317.408 8.87984 312.24 8.80752 307.34 9.73326C301.727 10.7932 295.877 11.4582 290.436 13.3262C285.099 15.159 279.655 16.4419 274.394 18.5939C269.279 20.6859 264.352 22.9115 259.536 25.7097C257.177 27.0792 254.884 28.5308 252.636 30.1038C250.442 31.6392 248.037 32.8981 245.912 34.5257C244.019 35.9746 242.387 37.3036 240.735 39.0788C238.972 40.9769 237.256 42.9262 235.49 44.821C234.015 46.4019 234.949 50.2669 235.042 52.3709C235.172 55.2876 235.395 58.1633 235.729 61.0609C236.044 63.822 236.371 66.7898 235.953 69.545C235.777 70.7034 235.17 72.7044 235.46 73.8606C235.691 74.7866 237.228 75.4656 238.011 75.7674C238.971 76.1365 239.95 75.9809 240.935 76.4506C242.033 76.9752 242.96 77.6302 244.127 77.9056C245.565 78.2461 247.183 78.5331 248.662 78.5432C250.028 78.5519 251.4 79.0287 252.763 79.3214C254.98 79.7982 257.145 79.9475 257.006 82.8212C256.89 85.2311 256.212 87.3922 255.57 89.6016C255.197 90.8867 256.234 92.336 257.47 91.8221C258.524 91.3845 259.648 91.2671 260.755 91.0787C263.201 90.6599 265.586 90.5251 268.049 90.2584C272.56 89.7701 277.15 89.828 281.664 89.8802C283.95 89.9063 286.429 90.0961 288.684 90.4787C290.996 90.87 293.392 91.1163 295.633 91.8685C297.523 92.5032 299.475 92.9365 301.405 93.4974C302.274 93.7495 303.315 93.9553 304.137 94.2379C305.885 94.8404 307.085 93.884 306.629 92.0921C306.243 90.5772 305.809 89.0757 305.494 87.5166C304.922 84.6834 303.78 82.1763 302.52 79.504C301.959 78.3113 301.544 77.0462 301.001 75.8441C300.398 74.5068 299.552 73.399 298.824 72.1485C297.336 69.5908 295.746 67.1304 294.285 64.5545C293.009 62.3055 291.551 60.1495 290.153 57.9788C288.616 55.5918 286.482 53.7905 284.737 51.6008C284.002 50.6759 283.302 49.8165 282.476 48.9677C281.718 48.1862 280.64 46.4563 279.479 46.3754C278.809 46.3286 277.652 46.7326 277.015 46.9493C275.834 47.3509 274.584 47.6126 273.366 47.966C272.031 48.353 270.721 48.8564 269.386 49.2241C268.851 49.371 268.217 49.3012 267.71 49.4677C267.18 49.642 266.757 50.0262 266.177 50.2024C263.319 51.074 260.477 52.0635 257.598 52.8569C254.633 53.674 251.623 54.3697 248.749 55.527C248.201 55.7479 247.592 56.2697 247.171 55.9269C246.856 55.6708 246.654 54.9475 246.736 54.5254C247.013 53.1199 249.104 52.6123 250.11 52.0481C252.81 50.536 255.491 49.4697 258.391 48.443C259.82 47.9378 261.244 47.3984 262.693 46.9619C263.903 46.5973 265.163 45.9804 266.401 45.7937C267.502 45.6276 268.285 45.1616 269.378 44.7488C270.987 44.1406 272.644 43.6414 274.28 43.1218C277.077 42.2336 280.041 41.8602 282.903 41.2647C289.532 39.8848 296.416 39.194 303.181 39.2795C306.592 39.3227 310.159 39.2156 313.531 39.8184C314.343 39.9636 316.052 39.9357 316.612 40.7197C316.913 41.1405 316.75 41.7667 316.827 42.2228C316.935 42.8606 317.95 42.6898 318.077 42.0554C318.701 38.9494 319.397 35.8855 320.163 32.8045C321.002 29.4206 321.781 25.9752 322.903 22.6387C324.09 19.1085 325.531 15.3655 327.307 12.1347C327.671 11.4697 328.583 10.4132 328.661 9.66936C328.742 8.90172 327.741 8.30726 327.054 8.22176C325.511 8.03018 323.86 8.35828 322.345 8.41436ZM355.502 62.6352C356.004 57.3713 357.472 51.8652 356.652 46.5805C356.305 44.3434 356.034 42.2077 354.992 40.1883C354.466 39.167 354.256 38.4169 353.251 39.0192C352.232 39.6287 351.296 41.1341 350.453 42.0068C348.902 43.6107 347.279 45.2623 345.423 46.4535C343.96 47.3913 341.056 48.2804 339.958 46.2515C338.909 44.3179 340.307 41.6195 341.309 40.0243C342.458 38.1992 344.631 36.5088 343.411 34.257C342.887 33.2878 342.131 33.0338 341.336 32.3977C340.65 31.8472 340.074 31.134 339.386 30.5736C337.394 28.9495 335.209 28.2539 332.908 27.3258C331.847 26.897 331.708 26.4937 331.094 27.4736C330.427 28.5382 330.063 30.0302 329.581 31.2073C328.617 33.5655 327.587 35.7998 326.343 37.9987C325.087 40.2177 323.976 42.5356 322.788 44.7987C322.341 45.6524 321.92 46.5202 321.391 47.3216C321.102 47.7576 320.746 48.1463 320.511 48.6237C320.166 49.3294 320.32 49.9729 320.104 50.6756C319.174 53.7074 317.817 49.4749 317.558 48.4854C317.262 47.36 316.551 46.4825 316.09 45.4326C315.71 44.5657 315.449 43.2771 314.53 42.869C313.778 42.5346 312.806 42.9934 312.039 43.0381C310.626 43.1204 309.204 42.9977 307.785 43.0926C306.459 43.1811 305.136 43.3179 303.81 43.4052C302.483 43.4927 301.158 43.2517 299.848 43.4017C297.498 43.6711 295.095 43.6278 292.75 44.0011C291.372 44.2202 290.002 44.4466 288.63 44.6638C286.613 44.9832 286.008 46.7148 287.537 48.0679C288.476 48.8989 289.219 49.8581 290.166 50.6486C291.126 51.4512 291.696 52.6381 292.491 53.6025C293.269 54.547 293.99 55.3389 294.671 56.3957C297.963 61.4987 301.359 66.4133 304.073 71.9288C305.448 74.7202 306.759 77.707 307.698 80.7025C308.705 83.9139 309.2 87.3586 309.798 90.6801C310.096 92.3366 310.252 93.7336 309.926 95.3987C309.864 95.6797 309.802 95.9607 309.737 96.2417C309.685 96.4697 309.541 96.7269 309.507 96.9583C309.426 97.5004 310.204 97.7114 310.506 98.1686C310.608 98.3226 310.68 98.5018 310.691 98.7565C310.711 99.2318 310.464 99.7811 310.085 100.049C309.399 100.532 309.354 99.9532 308.732 100.003C308.64 100.01 308.553 100.046 308.474 100.093C308.456 100.103 308.438 100.113 308.42 100.123C308.043 100.341 307.562 100.219 307.324 99.8555C307.296 99.8126 307.264 99.7723 307.226 99.737C307.218 99.7289 307.209 99.7209 307.201 99.7131C306.635 99.1929 305.846 99.9805 305.868 100.749C305.967 104.115 305.488 107.233 304.782 110.599C304.39 112.459 303.721 114.28 303.384 116.144C303.103 117.693 303.488 118.615 304.229 119.558C304.65 120.093 304.425 120.727 303.948 121.212C303.523 121.644 303.632 121.697 303.632 122.374C303.632 123.613 303.412 124.833 303.23 126.051C302.895 128.307 302.589 130.642 301.866 132.801C300.555 136.724 298.433 140.797 296.271 144.252C295.061 146.186 293.85 148.382 292.333 150.051C290.811 151.724 289.303 153.414 287.785 155.094C284.798 158.399 281.533 160.683 277.954 163.157C276.536 164.138 275.044 165.212 273.824 166.432C272.586 167.673 270.938 168.541 269.457 169.441C268.796 169.844 268.327 170.42 267.613 170.751C266.944 171.059 266.476 171.161 265.913 171.567C264.519 172.574 263.012 173.436 261.478 174.195C259.606 175.123 257.763 176.201 255.839 176.991C254.963 177.352 254.139 177.745 253.29 178.166C252.372 178.623 251.381 178.921 250.44 179.408C249.644 179.818 248.837 180.057 248.027 180.392C247.365 180.668 246.846 181.111 246.171 181.398C244.769 181.992 243.494 182.312 242.132 183.014C240.323 183.946 238.179 184.38 236.274 185.051C234.146 185.801 231.939 186.545 229.755 187.076C228.827 187.302 228.035 187.598 227.137 187.941C226.553 188.163 225.883 188.286 225.235 188.497C223.445 189.084 221.656 189.65 219.857 190.148C216.342 191.122 212.75 192.291 209.342 193.615C207.555 194.309 205.741 195.142 204.027 196.026C202.088 197.023 200 197.6 198.054 198.588C194.295 200.495 190.55 202.46 186.835 204.463C184.884 205.515 182.961 206.599 181.056 207.744C180.366 208.16 179.61 208.331 178.923 208.738C178.025 209.27 177.288 210.053 176.368 210.58C172.824 212.615 169.205 214.532 165.949 217.106C164.245 218.454 162.414 219.833 160.942 221.475C160.455 222.016 159.613 222.853 159.525 223.639C159.521 223.679 159.517 223.716 159.513 223.751C159.443 224.382 160.637 224.591 160.245 225.091C160.006 225.397 159.543 225.406 159.166 225.31C158.52 225.146 157.732 224.668 157.337 224.434C156.425 223.894 155.942 223.211 155.355 222.304C154.084 220.338 152.843 218.352 151.533 216.413C150.355 214.668 149.202 212.748 147.861 211.147C146.953 210.06 146.884 210.535 145.874 211.147C145.121 211.602 144.248 211.796 143.468 212.225C140.499 213.861 137.234 215.068 134.187 216.207C133.493 216.467 133.123 216.88 132.513 217.238C131.737 217.694 130.754 217.917 129.923 218.242C127.635 219.136 125.359 220.064 123.088 221.004C121.334 221.732 119.649 222.304 118.276 223.645C117.729 224.178 117.068 224.561 116.504 225.101C115.872 225.705 115.025 226.674 114.225 227.062C114.163 227.092 114.104 227.128 114.052 227.172C113.804 227.381 113.444 227.391 113.184 227.197C112.991 227.053 112.797 226.908 112.604 226.765C112.264 226.513 111.925 226.262 111.587 226.008C110.737 225.374 109.893 224.73 109.049 224.088C107.134 222.629 105.207 221.184 103.426 219.538C100.262 216.613 96.9781 213.847 93.6701 211.108C90.1974 208.233 86.811 205.224 83.2196 202.523C79.9642 200.074 76.4119 198.006 73.2563 195.42C71.667 194.12 70.0818 192.81 68.4601 191.549C68.3711 191.481 67.0516 190.612 67.0394 190.515C67.0165 190.336 67.4509 189.873 67.5791 189.723C68.1862 189.013 68.8581 188.382 69.4625 187.666C72.2822 184.324 75.9626 184.441 79.8522 184.283C81.6169 184.212 83.5299 185.086 85.2056 185.682C87.2536 186.409 89.23 187.477 91.2092 188.4C95.2877 190.302 99.497 191.925 103.616 193.687C105.236 194.378 106.85 194.716 108.497 195.193C110.167 195.675 111.889 195.214 113.676 195.249C114.603 195.267 115.48 195.326 116.415 195.27C116.97 195.235 117.608 195.122 118.156 195.132C118.599 195.141 119.059 195.338 119.468 195.288C121.256 195.07 123.145 194.765 124.989 194.514C126.82 194.267 128.708 194.144 130.515 193.755C131.424 193.559 132.321 193.284 133.197 192.952C133.957 192.664 135.338 192.338 135.961 191.754C136.519 191.234 136.274 191.226 135.964 190.376C135.841 190.038 135.713 189.528 135.531 189.205C135.039 188.329 134.561 188.054 134.848 186.957C135.354 185.027 137.077 183.793 138.552 182.841C141.875 180.699 144.913 177.952 148.411 176.134C155.62 172.39 162.189 167.525 169.218 163.413C176.945 158.893 184.255 153.589 192.09 149.261C199.382 145.23 206.641 141.177 213.994 137.274C216.015 136.202 218.186 135.181 220.278 134.048C222.057 133.084 221.49 130.597 219.477 130.405C218.637 130.324 217.787 130.398 216.951 130.256C216.016 130.095 215.133 129.689 214.201 129.52C212.598 129.229 211.156 128.639 209.551 128.42C207.831 128.187 206.145 127.643 204.417 127.491C200.801 127.172 197.537 125.739 194.367 123.933C193.583 123.485 192.938 123.742 192.185 123.438C191.771 123.27 191.331 122.601 190.866 122.242C188.99 120.794 186.291 121.291 184.958 123.251C182.237 127.253 178.495 130.404 174.884 133.523C172.453 135.621 169.817 137.399 167.361 139.457C165.458 141.052 163.729 142.481 161.699 143.749C159.748 144.968 157.915 146.613 156.055 148.075C154.794 149.067 153.317 149.816 151.977 150.677C150.882 151.379 148.743 152.429 148.445 153.705C148.199 154.747 148.677 155.988 147.197 155.508C145.871 155.081 144.91 153.498 144.139 152.384C143.419 151.345 142.716 150.293 142.025 149.232C140.435 146.792 136.21 146.64 134.125 148.674C133.161 149.614 132.16 150.488 131.118 151.327C130.612 151.734 130.102 152.134 129.595 152.542C129.397 152.701 128.945 152.947 128.815 153.173C128.513 153.702 128.696 153.463 128.744 154.102C128.816 155.105 129.128 155.892 128.601 156.853C128.105 157.754 127.025 158.138 126.268 158.754C124.467 160.219 122.573 161.776 120.575 162.921C120.121 163.18 119.692 163.405 119.27 163.722C118.564 164.253 118.694 164.445 117.983 163.937C116.873 163.142 115.912 161.822 114.91 160.863C112.808 158.854 110.684 156.87 108.532 154.926C104.432 151.216 100.209 147.693 96.1606 143.918C92.3128 140.329 88.1872 137.241 84.214 133.831C83.1239 132.895 82.0472 131.941 80.972 130.986C80.0141 130.137 78.4599 129.2 77.7516 128.113C76.7236 126.535 80.748 124.377 81.9609 124.055C84.0548 123.501 86.7625 123.817 88.859 124.272C91.0595 124.748 93.3017 126.342 95.3565 127.333C97.6729 128.452 100.033 129.418 102.367 130.473C103.407 130.944 104.51 131.321 105.476 131.954C106.502 132.628 107.418 133.395 108.508 133.96C109.764 134.609 111.069 135.215 112.391 135.696C112.988 135.914 113.633 136.132 114.262 136.221C115.154 136.346 115.032 135.905 115.773 135.659C116.402 135.448 116.55 136.002 117.117 136.156C117.648 136.301 118.046 136.154 118.508 135.846C119.536 135.16 120.45 134.215 121.478 133.501C122.432 132.838 123.483 132.22 124.378 131.469C124.776 131.136 125.071 130.678 125.464 130.337C126.094 129.794 126.343 130.01 127.077 129.634C127.679 129.329 128.224 128.758 128.795 128.379C129.15 128.145 130.01 127.847 130.24 127.468C130.951 126.29 128.534 124.878 128.334 123.517C128.266 123.05 128.253 122.632 128.356 122.357C128.626 121.642 129.336 121.775 129.932 121.397C132.173 119.975 133.827 117.392 135.924 115.721C137.901 114.145 139.645 112.264 141.604 110.66C143.28 109.286 145.114 107.944 146.641 106.462C148.446 104.71 150.759 103.348 152.723 101.782C154.751 100.168 156.636 98.3695 158.642 96.7363C160.572 95.1639 162.469 93.522 164.452 92.0265C166.236 90.6816 168.105 89.4527 169.85 88.089C170.807 87.3427 171.852 86.6862 172.944 86.1964C174.03 85.7094 174.98 85.137 176.039 84.6124C178.146 83.569 180.889 82.8473 183.18 82.5488C185.699 82.2198 188.227 81.9242 190.77 81.9227C192.125 81.9213 193.44 82.198 194.786 82.2864C196.022 82.3661 197.361 82.7024 198.588 82.6589C199.144 82.6386 199.627 82.385 200.167 82.4676C200.616 82.5357 201.007 82.827 201.489 82.8777C202.564 82.9922 203.644 82.8777 204.73 83.027C207.226 83.3705 209.724 83.8588 212.225 84.1313C214.889 84.4211 217.53 84.4762 220.181 84.9646C222.77 85.4413 225.377 85.9355 227.952 86.4877C233.424 87.6586 238.954 88.8035 244.34 90.5439C245.599 90.9512 246.864 91.3381 248.075 91.896C248.663 92.167 249.227 92.4945 249.839 92.6974C250.716 92.9873 250.889 93.0959 251.341 92.3061C252.119 90.9439 252.547 89.144 253.112 87.6629C253.304 87.1597 253.509 86.6552 253.71 86.1478C254.335 84.5667 253.271 83.3139 251.572 83.3748C250.384 83.4197 249.211 83.3922 248.025 83.3835C245.634 83.369 243.766 82.6096 241.504 81.814C239.598 81.1416 237.059 80.7561 235.606 79.2185C234.826 78.3939 234.566 78.249 233.395 78.3968C232.212 78.5461 231.044 78.8026 229.851 78.8446C225.352 79.0055 220.873 79.8489 216.354 80.0156C215.131 80.062 212.074 80.6836 212.274 78.4562C212.316 77.9925 212.646 77.5911 212.71 77.1157C212.779 76.6056 212.66 76.087 212.586 75.588C212.31 73.7463 210.422 72.6079 208.644 73.1617C205.635 74.099 202.602 74.9295 199.554 75.7464C197.813 76.2132 195.016 77.2868 193.216 76.6984C191.256 76.0574 190.179 73.0201 188.194 73.5767C186.243 74.1238 184.276 74.6134 182.358 74.7866C181.286 74.8836 180.243 75.1386 179.992 73.7455C179.673 71.9615 179.031 70.4273 177.373 69.696C176.304 69.2245 175.656 68.3024 175.924 66.3415C176.39 62.9225 179.033 62.2419 181.846 61.6174C185.318 60.846 188.865 60.5888 192.361 59.9646C195.402 59.4214 198.721 58.8157 201.826 59.09C203.47 59.2348 205.124 59.2678 206.768 59.4316C207.544 59.5087 208.289 59.6377 209.04 59.8652C209.732 60.0746 210.701 60.7238 211.411 60.7354C212.482 60.7535 213.773 59.1967 214.925 58.837C216.352 58.3911 217.89 58.3102 219.364 58.2009C221.035 58.0778 222.71 58.0091 224.38 57.8636C224.76 57.8304 226.2 57.9315 226.499 57.6918C226.938 57.3426 226.646 55.5514 226.615 54.8156C226.587 54.1348 226.71 52.8599 226.27 52.593C225.858 52.3426 224.656 52.6862 224.25 52.756C222.568 53.0456 220.971 53.0124 219.295 52.9388C218.52 52.905 217.777 53.1266 217.011 53.0173C216.188 52.9005 215.361 52.6032 214.542 52.4378C212.768 52.0796 211.151 51.6337 209.623 50.5653C208.281 49.6278 206.693 48.9931 205.942 47.3512C205.041 45.3763 205.571 41.4855 204.843 39.4402C204.662 38.9312 204.496 38.4155 204.342 37.8961C204.237 37.5387 204.167 37.0008 204.009 36.6892C203.451 35.5874 203.969 36.5647 203.171 36.124C202.385 35.689 201.817 35.3445 201.202 34.5877C200.221 33.381 199.808 31.8957 199.684 30.3232C199.517 28.1875 199.202 25.7794 199.492 23.6546C199.994 19.9741 202.497 17.2088 205.04 14.9828C206.421 13.7742 208.239 13.3241 209.858 12.5906C211.421 11.8824 213.167 11.14 214.814 10.9739C216.301 10.8239 217.75 10.3022 219.238 10.0919C221.284 9.80225 223.33 9.9105 225.386 9.82254C226.332 9.7821 227.276 9.63864 228.218 9.52951C228.75 9.46763 229.648 9.53356 230.135 9.3072C230.933 8.93592 230.502 9.71544 230.787 8.58015C231.328 6.42042 231.77 4.39503 232.591 2.29646C233.354 0.34122 234.282 -1.52823 235.51 -3.19987C236.661 -4.76775 238.152 -5.91463 239.508 -7.25397C240.513 -8.24623 241.651 -9.14256 242.797 -9.94512C243.452 -10.4039 244.182 -10.6519 244.822 -11.0571C245.617 -11.5595 246.318 -11.9405 247.211 -12.2482C249.13 -12.9083 251.035 -13.6092 253.072 -13.5748C255.268 -13.5377 257.471 -14.0872 259.61 -13.3904C262.301 -12.5135 264.062 -10.1065 264.897 -7.32391C265.496 -5.3289 267.364 -4.26162 269.445 -4.34835C270.77 -4.40357 272.344 -4.27995 273.646 -4.01547C276.172 -3.50232 278.77 -1.99299 280.277 0.294411C281.714 2.47602 281.929 5.37266 281.046 7.84773C280.623 9.03258 279.953 10.0866 279.238 11.0877C278.364 12.3135 279.036 13.1173 280.476 12.6778C289.27 9.99401 298.117 8.05455 307.205 6.75257C312.331 6.01813 317.467 6.38593 322.601 5.9661C324.793 5.78683 327.176 6.03769 329.442 6.04711C330.399 6.05131 331.144 5.90828 331.838 5.24252C332.54 4.56908 333.101 3.74435 333.92 4.71632C334.129 4.96442 334.174 5.56453 334.454 5.75119C334.796 5.97726 335.786 5.82206 336.195 5.84887C337.62 5.94248 339.01 6.20232 340.411 6.50172C342.978 7.05126 345.53 7.60672 348.067 8.30407C352.898 9.6324 357.665 10.917 362.427 12.4937C367.286 14.1024 372.195 16.0874 376.674 18.6916C378.845 19.9528 381.012 21.5273 383.007 23.0877C383.934 23.8134 384.765 24.5985 385.572 25.4735C386.434 26.4089 387.489 27.0401 388.343 27.9825C390.201 30.0322 392.052 32.2066 393.737 34.4273C394.616 35.5866 395.425 36.8096 396.208 38.0453C396.758 38.9124 398.207 40.4998 397.873 41.6199C397.695 42.2178 397.075 42.6362 396.505 42.4897C396.315 42.4409 396.157 42.1757 395.994 42.1504C395.445 42.0668 395.945 41.8589 395.303 42.1383C394.028 42.694 393.622 43.8089 392.003 43.5551C387.711 42.8822 383.638 44.5814 382.838 48.8511C382.799 49.056 382.759 49.2606 382.716 49.4648C382.106 52.3652 381.089 55.1313 379.86 57.7917C378.782 60.1259 377.397 62.6134 375.49 64.2816C374.034 65.5544 370.441 67.1356 369.371 64.4256C368.918 63.2747 369.594 61.4863 369.784 60.3017C370.042 58.7121 370.324 57.118 370.479 55.5123C370.605 54.2078 370.668 52.8956 370.784 51.5896C370.885 50.4662 371.164 48.0543 370.576 47.062C370.223 46.464 370.192 47.0509 369.985 47.6478C369.736 48.3718 369.528 49.0897 369.346 49.8354C368.956 51.4197 368.605 53.0149 368.238 54.6048C367.581 57.4456 366.857 60.2241 365.487 62.7785C364.272 65.0468 362.56 67.535 359.96 67.9066C358.742 68.0803 357.154 67.482 356.224 66.6003C355.181 65.6112 355.493 63.9797 355.502 62.6352Z" fill="black"/>
<path fill-rule="evenodd" clip-rule="evenodd" d="M299.036 175.132C298.107 176.281 298.75 177.102 299.91 176.187C301.399 175.013 302.812 173.732 304.257 172.498C306.981 170.172 309.454 167.622 311.804 164.848C316.441 159.376 319.932 152.333 321.519 145.136C322.322 141.495 323.315 137.228 322.859 133.465C322.701 132.157 322.459 131.917 321.267 131.769C320.728 131.701 319.36 131.536 318.876 131.763C317.619 132.353 316.94 134.864 316.568 136.127C315.467 139.854 314.819 143.713 313.823 147.471C312.848 151.155 311.276 154.892 309.722 158.336C306.907 164.572 303.2 169.979 299.036 175.132ZM324.465 136.328C323.61 146.764 320.915 156.707 314.87 165.109C311.997 169.104 308.619 172.58 304.956 175.736C301.175 178.997 297.313 182.066 293.023 184.498C291.881 185.144 290.737 185.789 289.581 186.406C288.94 186.748 287.322 188.009 286.583 187.811C285.991 187.65 285.837 187.157 285.744 186.516C285.538 185.079 286.406 184.362 287.285 183.438C290.815 179.728 294.357 176.005 297.658 172.059C304.177 164.267 309.073 154.934 311.796 144.865C312.635 141.766 313.382 138.631 314.288 135.551C314.839 133.676 315.621 130.339 317.453 129.404C318.435 128.902 319.58 129.389 320.614 129.089C321.582 128.807 322.225 128.233 323.05 129.197C324.499 130.889 324.564 134.208 324.465 136.328Z" fill="black"/>
<path fill-rule="evenodd" clip-rule="evenodd" d="M178.264 24.6622C178.175 25.166 178.293 25.2063 178.52 24.7478C179.251 23.2715 180.728 20.2484 181.038 19.7808C182.434 17.6683 184.251 15.9104 186.002 14.146C189.714 10.4087 194.058 7.39209 197.695 3.58797C198.891 2.3366 201.036 0.440338 200.562 -1.67577C200.091 -3.77897 196.121 -3.35161 194.761 -2.7431C192.629 -1.78881 190.897 0.206872 189.308 1.94575C187.575 3.84274 185.828 5.71843 184.36 7.86526C182.777 10.1802 181.274 12.6873 180.302 15.3739C179.215 18.3835 178.791 21.4981 178.264 24.6622ZM179.11 31.4041C179.046 32.8903 179.685 34.5718 178.847 35.8005C178.122 36.8626 176.904 33.5902 176.722 32.9724C175.648 29.3218 176.128 24.887 176.715 21.1807C177.01 19.3109 177.202 17.4105 177.601 15.5609C177.991 13.7575 178.84 12.0437 179.622 10.4031C181.191 7.12066 183.269 4.06258 185.627 1.38622C187.992 -1.29898 190.629 -3.98548 193.749 -5.63857C196.327 -7.00385 200.415 -6.05652 201.621 -3.07453C202.856 -0.0271721 201.187 3.29219 199.214 5.43482C196.642 8.22914 193.838 11.0046 190.948 13.4141C189.463 14.6527 188.218 16.1506 186.774 17.4428C185.239 18.8185 183.91 20.2023 182.774 21.9814C181.674 23.7053 180.542 25.4278 179.827 27.3848C179.338 28.7241 179.169 30.0468 179.11 31.4041Z" fill="black"/>
<path fill-rule="evenodd" clip-rule="evenodd" d="M111.976 165.301C111.745 165.304 111.52 165.236 111.33 165.105C107.551 162.505 103.773 160.184 100.482 156.849C97.1509 153.472 94.2394 149.664 90.5307 146.733C88.6797 145.273 86.7706 143.9 84.952 142.39C83.2278 140.957 81.2446 139.729 79.685 138.096C75.7813 134.001 79.8912 132.72 84.3176 136.243C85.6544 137.308 87.003 138.335 88.3113 139.35C92.6583 142.722 96.6477 146.655 100.771 150.329C104.742 153.868 108.701 157.44 112.577 161.073C113.596 162.027 114.576 163.029 115.607 163.969C115.733 164.083 116.8 164.809 116.8 165.003C116.8 165.467 115.973 165.757 115.679 165.886C115.213 166.09 113.954 166.596 113.427 166.425C113.253 166.368 113.186 166.252 113.111 166.137C113.021 165.999 112.91 165.87 112.829 165.726C112.668 165.442 112.352 165.295 112.026 165.3C112.009 165.301 111.992 165.301 111.976 165.301Z" fill="black"/>
<path fill-rule="evenodd" clip-rule="evenodd" d="M147.215 47.4977C144.628 46.8423 141.832 46.9152 139.429 48.0764C136.804 49.345 134.781 51.4547 134.305 55.0506C133.676 59.7865 136.678 64.168 140.364 66.3848C144.35 68.7832 149.345 69.1816 153.318 66.5238C157.499 63.7256 158.448 58.1181 155.903 53.7188C153.824 50.124 150.716 48.3846 147.215 47.4977ZM144.112 44.5651C145.381 44.5222 146.662 44.6031 147.876 44.9769C152.275 46.3321 156.138 49.9289 157.657 54.5767C159.442 60.0325 157.803 66.0308 153.079 69.02C143.533 75.062 130.774 64.993 133.078 53.4201C133.664 50.4817 135.325 48.2062 137.582 46.4857C139.534 44.9967 141.808 44.643 144.112 44.5651Z" fill="black"/>
<path fill-rule="evenodd" clip-rule="evenodd" d="M116.866 79.0736C119.304 78.8012 121.731 78.4085 124.165 78.1505C126.672 77.8841 126.631 75.2381 124.214 74.5164C123.463 74.2918 122.71 74.0702 121.956 73.8513C120.517 73.4337 119.081 72.9917 117.636 72.6015C116.518 72.2994 115.544 72.1256 115.113 70.8141C114.613 69.2874 116.004 69.5187 116.871 69.9066C118.068 70.4415 119.37 70.7741 120.61 71.2189C123.377 72.2116 126.16 73.1246 128.951 74.0273C129.82 74.3077 134.85 75.3453 133.038 77.1491C132.262 77.9215 130.531 78.3447 129.583 78.8997C128.367 79.6098 127.042 79.8939 125.689 80.1765C122.87 80.7663 119.943 80.9924 117.088 81.5039C115.63 81.7648 114.173 82.0271 112.715 82.2879C111.861 82.4415 111.531 82.4256 111.309 81.4025C111.147 80.659 111.359 79.9142 111.514 79.1939C111.909 77.3636 112.349 75.5418 112.785 73.7219C112.951 73.0276 113.243 69.9755 113.819 69.6416C115.127 68.8841 114.118 73.1096 114.021 73.627C113.892 74.312 113.755 74.9953 113.623 75.6794C113.243 77.644 114.882 79.3366 116.866 79.0736Z" fill="black"/>
<path fill-rule="evenodd" clip-rule="evenodd" d="M148.738 95.4685C150.241 94.9712 151.568 95.9946 150.132 96.6624C148.867 97.2479 147.625 97.8667 146.338 98.3956C143.63 99.5057 140.902 100.538 138.259 101.823C133.217 104.272 128.108 106.626 123.145 109.249C121.912 109.901 120.677 110.551 119.433 111.179C118.146 111.828 116.67 112.922 115.294 113.293C114.093 113.616 113.968 112.698 114.679 111.851C115.596 110.76 117.016 109.944 118.168 109.186C122.909 106.062 128.084 103.52 133.263 101.371C138.377 99.2488 143.503 97.1997 148.738 95.4685Z" fill="black"/>
<path fill-rule="evenodd" clip-rule="evenodd" d="M164.589 20.5662C164.504 18.6288 164.578 16.6887 164.642 14.7499C164.722 12.318 162.217 11.5549 161.839 13.9585C161.477 16.2569 161.884 18.7121 162.662 21.0533C163.087 22.3317 164.677 21.9105 164.589 20.5662ZM166.78 20.3394C166.812 22.2779 166.915 24.2153 166.739 26.144C166.731 26.2356 166.725 26.3251 166.721 26.4127C166.592 29.1874 166.54 30.671 164.748 28.5487C163.472 27.0386 162.522 25.0325 161.677 23.2193C159.878 19.3566 158.638 15.2211 160.079 10.9802C160.613 9.40836 161.266 7.27139 162.68 6.35623C164.231 5.35136 165.42 6.76852 166.063 8.22626C167.636 11.783 166.437 16.5217 166.78 20.3394Z" fill="black"/>
<path fill-rule="evenodd" clip-rule="evenodd" d="M119.089 101.021C115.579 102.14 114.915 101.38 118.273 99.8651C120.538 98.8463 122.965 98.2304 125.31 97.4507C127.617 96.6855 129.913 95.8624 132.183 94.9755C132.884 94.7016 137.935 92.0583 138.2 92.4452C139.075 93.7234 128.474 97.742 127.442 98.142C124.694 99.2044 121.895 100.126 119.089 101.021Z" fill="black"/>
<path fill-rule="evenodd" clip-rule="evenodd" d="M144.931 44.3044C145.172 44.3171 145.14 44.5421 144.899 44.5411C144.641 44.5401 144.619 44.292 144.878 44.302C144.895 44.3027 144.913 44.3035 144.931 44.3044Z" fill="black"/>
<path fill-rule="evenodd" clip-rule="evenodd" d="M296.09 43.718C296.77 43.7142 297.45 43.7103 298.125 43.7061C297.444 43.7103 296.768 43.7142 296.09 43.718Z" fill="black"/>
<path fill-rule="evenodd" clip-rule="evenodd" d="M225.753 57.7439C225.021 57.8076 224.287 57.8718 223.555 57.9357C224.288 57.8715 225.021 57.8076 225.753 57.7439Z" fill="black"/>
<path fill-rule="evenodd" clip-rule="evenodd" d="M301.596 43.4609C302.116 43.4599 302.634 43.4589 303.148 43.4577C302.628 43.4592 302.113 43.4602 301.596 43.4609Z" fill="black"/>
<path fill-rule="evenodd" clip-rule="evenodd" d="M197.239 59.268C196.596 59.3305 195.949 59.3929 195.306 59.4554C195.951 59.3929 196.596 59.3305 197.239 59.268Z" fill="black"/>
<path fill-rule="evenodd" clip-rule="evenodd" d="M224.636 9.59152C224.874 9.58633 224.842 9.826 224.604 9.82756C224.381 9.82901 224.339 9.60835 224.562 9.59461C224.587 9.59308 224.611 9.59206 224.636 9.59152Z" fill="black"/>
<path fill-rule="evenodd" clip-rule="evenodd" d="M106.951 129.228C107.192 129.122 107.081 129.719 106.896 129.533C106.815 129.452 106.823 129.29 106.926 129.239C106.934 129.235 106.943 129.231 106.951 129.228Z" fill="black"/>
<path fill-rule="evenodd" clip-rule="evenodd" d="M304.701 7.10281C304.125 7.15832 303.549 7.21383 302.972 7.26933C303.549 7.21339 304.125 7.15832 304.701 7.10281Z" fill="black"/>
<path fill-rule="evenodd" clip-rule="evenodd" d="M201.341 59.0328C201.913 59.1032 201.839 59.0914 201.268 59.0207C201.292 59.0258 201.317 59.0298 201.341 59.0328Z" fill="black"/>
<path fill-rule="evenodd" clip-rule="evenodd" d="M253.478 83.3009C254.129 83.2222 254.166 83.3335 253.51 83.3019C253.497 83.3013 253.486 83.3009 253.478 83.3009Z" fill="black"/>
<path fill-rule="evenodd" clip-rule="evenodd" d="M218.082 130.346C218.457 130.353 218.831 130.362 219.202 130.368C218.825 130.36 218.454 130.353 218.082 130.346Z" fill="black"/>
<path fill-rule="evenodd" clip-rule="evenodd" d="M123.068 80.4329C123.366 80.4416 123.664 80.4503 123.958 80.459C123.659 80.4503 123.363 80.4416 123.068 80.4329Z" fill="black"/>
<path fill-rule="evenodd" clip-rule="evenodd" d="M116.866 79.0736C116.394 79.1359 115.92 79.1982 115.448 79.262C115.922 79.1982 116.394 79.1359 116.866 79.0736Z" fill="black"/>
<path fill-rule="evenodd" clip-rule="evenodd" d="M181.704 74.7581C181.995 74.7707 182.288 74.7831 182.575 74.7968C182.283 74.7849 181.993 74.7717 181.704 74.7581Z" fill="black"/>
<path fill-rule="evenodd" clip-rule="evenodd" d="M203.973 127.523C204.27 127.501 204.565 127.481 204.858 127.459C204.561 127.479 204.267 127.501 203.973 127.523Z" fill="black"/>
<path fill-rule="evenodd" clip-rule="evenodd" d="M166.78 20.3393C166.739 19.8832 166.697 19.4276 166.657 18.9734C166.697 19.4301 166.739 19.8847 166.78 20.3393Z" fill="black"/>
<path fill-rule="evenodd" clip-rule="evenodd" d="M220.702 9.91531C220.215 9.97386 219.725 10.0328 219.238 10.0918C219.727 10.0328 220.215 9.97386 220.702 9.91531Z" fill="black"/>
<path fill-rule="evenodd" clip-rule="evenodd" d="M144.868 70.6777C145.168 70.6729 145.469 70.668 145.766 70.663C145.463 70.668 145.165 70.6729 144.868 70.6777Z" fill="black"/>
<path fill-rule="evenodd" clip-rule="evenodd" d="M191.094 65.6272C190.802 65.6272 190.802 65.376 191.094 65.3803C191.378 65.3845 191.378 65.6271 191.094 65.6272Z" fill="black"/>
<path fill-rule="evenodd" clip-rule="evenodd" d="M231.642 45.7493C231.438 46.0659 231.095 45.7092 231.278 45.38C231.474 45.0269 231.861 45.4098 231.642 45.7493Z" fill="black"/>
<path fill-rule="evenodd" clip-rule="evenodd" d="M269.772 138.545C269.804 139.513 269.836 140.481 269.867 141.45C269.835 140.48 269.804 139.513 269.772 138.545Z" fill="black"/>
<path fill-rule="evenodd" clip-rule="evenodd" d="M231.509 155.759C231.534 156.567 231.559 157.375 231.584 158.182C231.559 157.373 231.533 156.566 231.509 155.759Z" fill="black"/>
<path fill-rule="evenodd" clip-rule="evenodd" d="M205.053 88.4165C204.614 88.4209 204.175 88.4252 203.741 88.431C204.181 88.4266 204.616 88.4209 205.053 88.4165Z" fill="black"/>
<path fill-rule="evenodd" clip-rule="evenodd" d="M203.623 62.7503C203.262 62.7369 202.9 62.7237 202.544 62.7119C202.907 62.7255 203.264 62.7377 203.623 62.7503Z" fill="black"/>
<path fill-rule="evenodd" clip-rule="evenodd" d="M147.648 130.891C147.36 130.889 147.073 130.886 146.79 130.885C147.078 130.888 147.363 130.889 147.648 130.891Z" fill="black"/>
<path fill-rule="evenodd" clip-rule="evenodd" d="M269.519 117.015C269.562 116.558 269.606 116.103 269.649 115.65C269.606 116.106 269.562 116.56 269.519 117.015Z" fill="black"/>
<path fill-rule="evenodd" clip-rule="evenodd" d="M183.227 71.0086C183.236 71.0057 183.245 71.0051 183.255 71.0059C183.352 71.0149 183.35 71.1582 183.252 71.1636C183.236 71.1645 183.22 71.1653 183.204 71.1662C183.155 71.1689 183.112 71.1272 183.134 71.0841C183.152 71.0481 183.183 71.023 183.227 71.0086Z" fill="black"/>
<path fill-rule="evenodd" clip-rule="evenodd" d="M276.354 147.559C276.331 147.145 276.308 146.73 276.285 146.317C276.308 146.733 276.331 147.146 276.354 147.559Z" fill="black"/>
<path fill-rule="evenodd" clip-rule="evenodd" d="M189.746 69.4233C189.456 69.4297 189.165 69.4355 188.877 69.4414C189.17 69.4352 189.458 69.4292 189.746 69.4233Z" fill="black"/>
<path fill-rule="evenodd" clip-rule="evenodd" d="M195.524 87.402C195.226 87.4078 194.927 87.4122 194.633 87.418C194.932 87.4122 195.228 87.4078 195.524 87.402Z" fill="black"/>
<path fill-rule="evenodd" clip-rule="evenodd" d="M178.169 25.2029C178.215 24.9397 178.46 24.8914 178.425 25.1563C178.416 25.2285 178.398 25.2987 178.372 25.3598C178.292 25.5457 178.135 25.4021 178.169 25.2029Z" fill="black"/>
<path fill-rule="evenodd" clip-rule="evenodd" d="M164.589 20.5661C164.558 19.87 164.528 19.1743 164.497 18.4803C164.528 19.177 164.558 19.8713 164.589 20.5661Z" fill="black"/>
<path fill-rule="evenodd" clip-rule="evenodd" d="M212.784 36.6207C215.051 36.6466 214.338 38.4325 212.151 39.0289C211.92 39.0919 211.69 39.1607 211.462 39.2367C211.081 39.3637 209.831 40.1438 209.375 39.9383C208.683 39.6254 209.033 38.8226 209.325 38.394C210.106 37.2483 211.502 36.6063 212.784 36.6207Z" fill="black"/>
<path fill-rule="evenodd" clip-rule="evenodd" d="M213.727 43.9805C212.547 43.5899 213.802 43.0344 214.56 42.0482C215.054 41.4059 215.841 40.476 216.024 41.2651C216.27 42.3237 215.575 43.8768 214.613 44.0428C214.295 44.0976 213.999 44.0704 213.727 43.9805Z" fill="black"/>
</g>
<path d="M19.0645 42.4902V48.2227C18.8301 48.4896 18.472 48.776 17.9902 49.082C17.515 49.388 16.9062 49.6517 16.1641 49.873C15.4219 50.0879 14.5365 50.1953 13.5078 50.1953C12.5768 50.1953 11.7305 50.0456 10.9688 49.7461C10.207 49.4401 9.55273 48.9941 9.00586 48.4082C8.45898 47.8158 8.03581 47.0931 7.73633 46.2402C7.44336 45.3874 7.29688 44.4108 7.29688 43.3105V42.4707C7.29688 41.3704 7.44336 40.3939 7.73633 39.541C8.0293 38.6882 8.44271 37.9688 8.97656 37.3828C9.51042 36.7904 10.1452 36.3411 10.8809 36.0352C11.6165 35.7292 12.4303 35.5762 13.3223 35.5762C14.5918 35.5762 15.6302 35.7812 16.4375 36.1914C17.2448 36.5951 17.8568 37.1549 18.2734 37.8711C18.6966 38.5872 18.957 39.4108 19.0547 40.3418H15.9883C15.9232 39.8665 15.793 39.4564 15.5977 39.1113C15.4089 38.7663 15.1387 38.5026 14.7871 38.3203C14.4355 38.1315 13.9798 38.0371 13.4199 38.0371C12.9707 38.0371 12.5638 38.1315 12.1992 38.3203C11.8411 38.5026 11.5384 38.7793 11.291 39.1504C11.0436 39.5215 10.8548 39.9837 10.7246 40.5371C10.5944 41.084 10.5293 41.722 10.5293 42.4512V43.3105C10.5293 44.0397 10.5944 44.681 10.7246 45.2344C10.8613 45.7878 11.0599 46.25 11.3203 46.6211C11.5807 46.9857 11.9095 47.2624 12.3066 47.4512C12.7103 47.64 13.179 47.7344 13.7129 47.7344C14.1296 47.7344 14.4811 47.7018 14.7676 47.6367C15.054 47.5651 15.2884 47.4772 15.4707 47.373C15.653 47.2624 15.7897 47.1615 15.8809 47.0703V44.707H13.3516V42.4902H19.0645ZM26.0664 50.1953C25.2266 50.1953 24.4746 50.0618 23.8105 49.7949C23.1465 49.528 22.5833 49.1602 22.1211 48.6914C21.6654 48.2161 21.3171 47.6693 21.0762 47.0508C20.8353 46.4323 20.7148 45.7715 20.7148 45.0684V44.6973C20.7148 43.9095 20.8255 43.1836 21.0469 42.5195C21.2682 41.8555 21.5905 41.2793 22.0137 40.791C22.4434 40.2962 22.9707 39.9154 23.5957 39.6484C24.2207 39.375 24.9336 39.2383 25.7344 39.2383C26.4831 39.2383 27.1504 39.362 27.7363 39.6094C28.3223 39.8503 28.8171 40.1986 29.2207 40.6543C29.6243 41.1035 29.9303 41.6471 30.1387 42.2852C30.3535 42.9167 30.4609 43.6263 30.4609 44.4141V45.6641H21.9453V43.7012H27.4727V43.4668C27.4727 43.0957 27.4043 42.7702 27.2676 42.4902C27.1374 42.2103 26.9421 41.9954 26.6816 41.8457C26.4277 41.6895 26.1055 41.6113 25.7148 41.6113C25.3438 41.6113 25.0345 41.6895 24.7871 41.8457C24.5397 42.002 24.3411 42.2233 24.1914 42.5098C24.0482 42.7897 23.944 43.1185 23.8789 43.4961C23.8138 43.8672 23.7812 44.2676 23.7812 44.6973V45.0684C23.7812 45.4785 23.8366 45.8529 23.9473 46.1914C24.0579 46.5299 24.2207 46.8197 24.4355 47.0605C24.6504 47.3014 24.9108 47.4902 25.2168 47.627C25.5228 47.7637 25.8711 47.832 26.2617 47.832C26.7435 47.832 27.2025 47.7409 27.6387 47.5586C28.0749 47.3698 28.4525 47.0768 28.7715 46.6797L30.1973 48.3105C29.9824 48.623 29.6797 48.9258 29.2891 49.2188C28.9049 49.5052 28.4427 49.7396 27.9023 49.9219C27.362 50.1042 26.75 50.1953 26.0664 50.1953ZM37.3164 39.4336V41.5723H31.0469V39.4336H37.3164ZM32.4824 36.8164H35.5391V46.6895C35.5391 46.9824 35.5749 47.207 35.6465 47.3633C35.7181 47.5195 35.8353 47.6302 35.998 47.6953C36.1608 47.7539 36.3691 47.7832 36.623 47.7832C36.8053 47.7832 36.9616 47.7767 37.0918 47.7637C37.222 47.7507 37.3424 47.7344 37.4531 47.7148V49.9219C37.1927 50.0065 36.916 50.0716 36.623 50.1172C36.3301 50.1693 36.0111 50.1953 35.666 50.1953C35.0085 50.1953 34.4388 50.0879 33.957 49.873C33.4818 49.6582 33.1172 49.3197 32.8633 48.8574C32.6094 48.3887 32.4824 47.7799 32.4824 47.0312V36.8164ZM51.291 46.25C51.291 46.0091 51.2552 45.7943 51.1836 45.6055C51.112 45.4102 50.9818 45.2311 50.793 45.0684C50.6042 44.9056 50.3372 44.7428 49.9922 44.5801C49.6471 44.4108 49.1947 44.2383 48.6348 44.0625C47.9967 43.8542 47.388 43.6198 46.8086 43.3594C46.2357 43.0924 45.7246 42.7832 45.2754 42.4316C44.8262 42.0801 44.4714 41.6699 44.2109 41.2012C43.957 40.7324 43.8301 40.1855 43.8301 39.5605C43.8301 38.9551 43.9635 38.4082 44.2305 37.9199C44.4974 37.4316 44.8717 37.015 45.3535 36.6699C45.8353 36.3184 46.4017 36.0514 47.0527 35.8691C47.7038 35.6803 48.4199 35.5859 49.2012 35.5859C50.2428 35.5859 51.1576 35.7715 51.9453 36.1426C52.7396 36.5072 53.3581 37.0215 53.8008 37.6855C54.2435 38.3431 54.4648 39.1081 54.4648 39.9805H51.3008C51.3008 39.5964 51.2194 39.2578 51.0566 38.9648C50.9004 38.6654 50.6595 38.431 50.334 38.2617C50.015 38.0924 49.6146 38.0078 49.1328 38.0078C48.6641 38.0078 48.2702 38.0794 47.9512 38.2227C47.6387 38.3594 47.401 38.5482 47.2383 38.7891C47.082 39.0299 47.0039 39.2936 47.0039 39.5801C47.0039 39.8079 47.0625 40.0163 47.1797 40.2051C47.3034 40.3874 47.4792 40.5599 47.707 40.7227C47.9414 40.8789 48.2279 41.0286 48.5664 41.1719C48.9049 41.3151 49.2923 41.4518 49.7285 41.582C50.4902 41.8229 51.1641 42.0898 51.75 42.3828C52.3424 42.6758 52.8405 43.0078 53.2441 43.3789C53.6478 43.75 53.9505 44.1699 54.1523 44.6387C54.3607 45.1074 54.4648 45.638 54.4648 46.2305C54.4648 46.862 54.3411 47.4219 54.0938 47.9102C53.8529 48.3984 53.5013 48.8151 53.0391 49.1602C52.5833 49.4987 52.0365 49.7559 51.3984 49.9316C50.7604 50.1074 50.0475 50.1953 49.2598 50.1953C48.5436 50.1953 47.8372 50.1042 47.1406 49.9219C46.444 49.7331 45.8125 49.4466 45.2461 49.0625C44.6862 48.6784 44.237 48.1901 43.8984 47.5977C43.5664 46.9987 43.4004 46.2891 43.4004 45.4688H46.584C46.584 45.8984 46.6458 46.263 46.7695 46.5625C46.8932 46.8555 47.069 47.0931 47.2969 47.2754C47.5312 47.4577 47.8145 47.5879 48.1465 47.666C48.4785 47.7441 48.8496 47.7832 49.2598 47.7832C49.735 47.7832 50.1191 47.7181 50.4121 47.5879C50.7116 47.4512 50.9329 47.2656 51.0762 47.0312C51.2194 46.7969 51.291 46.5365 51.291 46.25ZM61.5547 39.4336V41.5723H55.2852V39.4336H61.5547ZM56.7207 36.8164H59.7773V46.6895C59.7773 46.9824 59.8132 47.207 59.8848 47.3633C59.9564 47.5195 60.0736 47.6302 60.2363 47.6953C60.3991 47.7539 60.6074 47.7832 60.8613 47.7832C61.0436 47.7832 61.1999 47.7767 61.3301 47.7637C61.4603 47.7507 61.5807 47.7344 61.6914 47.7148V49.9219C61.431 50.0065 61.1543 50.0716 60.8613 50.1172C60.5684 50.1693 60.2493 50.1953 59.9043 50.1953C59.2467 50.1953 58.6771 50.0879 58.1953 49.873C57.7201 49.6582 57.3555 49.3197 57.1016 48.8574C56.8477 48.3887 56.7207 47.7799 56.7207 47.0312V36.8164ZM68.6152 47.4805V42.9492C68.6152 42.6302 68.5664 42.3568 68.4688 42.1289C68.3711 41.901 68.2181 41.722 68.0098 41.5918C67.8014 41.4616 67.5312 41.3965 67.1992 41.3965C66.9193 41.3965 66.6751 41.4453 66.4668 41.543C66.265 41.6406 66.1087 41.7806 65.998 41.9629C65.8939 42.1452 65.8418 42.3698 65.8418 42.6367H62.7949C62.7949 42.1615 62.9023 41.7188 63.1172 41.3086C63.332 40.8984 63.638 40.5371 64.0352 40.2246C64.4388 39.9121 64.9206 39.6712 65.4805 39.502C66.0404 39.3262 66.6686 39.2383 67.3652 39.2383C68.1921 39.2383 68.9277 39.3783 69.5723 39.6582C70.2233 39.9316 70.7376 40.3451 71.1152 40.8984C71.4928 41.4453 71.6816 42.1354 71.6816 42.9688V47.3926C71.6816 48.0306 71.7174 48.5319 71.7891 48.8965C71.8672 49.2546 71.9779 49.5671 72.1211 49.834V50H69.0449C68.9017 49.694 68.7943 49.3164 68.7227 48.8672C68.651 48.4115 68.6152 47.9492 68.6152 47.4805ZM68.9961 43.5547L69.0156 45.2344H67.502C67.1634 45.2344 66.8704 45.2767 66.623 45.3613C66.3822 45.446 66.1868 45.5632 66.0371 45.7129C65.8874 45.8561 65.7767 46.0254 65.7051 46.2207C65.64 46.4095 65.6074 46.6178 65.6074 46.8457C65.6074 47.0605 65.6595 47.2559 65.7637 47.4316C65.8678 47.6009 66.0111 47.7344 66.1934 47.832C66.3757 47.9297 66.5872 47.9785 66.8281 47.9785C67.2253 47.9785 67.5638 47.9004 67.8438 47.7441C68.1302 47.5879 68.3516 47.3991 68.5078 47.1777C68.6641 46.9499 68.7422 46.7383 68.7422 46.543L69.4746 47.8125C69.3574 48.0729 69.2142 48.3431 69.0449 48.623C68.8757 48.8965 68.6608 49.1536 68.4004 49.3945C68.14 49.6289 67.8242 49.821 67.4531 49.9707C67.0885 50.1204 66.6491 50.1953 66.1348 50.1953C65.4707 50.1953 64.8685 50.0618 64.3281 49.7949C63.7878 49.5215 63.3548 49.1471 63.0293 48.6719C62.7103 48.1966 62.5508 47.6497 62.5508 47.0312C62.5508 46.4779 62.6517 45.9863 62.8535 45.5566C63.0553 45.127 63.3581 44.7624 63.7617 44.4629C64.1719 44.1634 64.6862 43.9388 65.3047 43.7891C65.9232 43.6328 66.6458 43.5547 67.4727 43.5547H68.9961ZM76.7402 41.8945V50H73.6934V39.4336H76.5547L76.7402 41.8945ZM79.8945 39.3555L79.8457 42.1973C79.7155 42.1777 79.5462 42.1615 79.3379 42.1484C79.1296 42.1289 78.9505 42.1191 78.8008 42.1191C78.4102 42.1191 78.0716 42.168 77.7852 42.2656C77.5052 42.3568 77.2708 42.4935 77.082 42.6758C76.8997 42.8581 76.763 43.0859 76.6719 43.3594C76.5807 43.6263 76.5352 43.9355 76.5352 44.2871L75.959 44.0039C75.959 43.3073 76.0273 42.6693 76.1641 42.0898C76.3008 41.5104 76.4993 41.0091 76.7598 40.5859C77.0202 40.1562 77.3392 39.8242 77.7168 39.5898C78.0944 39.3555 78.5241 39.2383 79.0059 39.2383C79.1621 39.2383 79.3216 39.248 79.4844 39.2676C79.6471 39.2871 79.7839 39.3164 79.8945 39.3555ZM87.0039 39.4336V41.5723H80.7344V39.4336H87.0039ZM82.1699 36.8164H85.2266V46.6895C85.2266 46.9824 85.2624 47.207 85.334 47.3633C85.4056 47.5195 85.5228 47.6302 85.6855 47.6953C85.8483 47.7539 86.0566 47.7832 86.3105 47.7832C86.4928 47.7832 86.6491 47.7767 86.7793 47.7637C86.9095 47.7507 87.0299 47.7344 87.1406 47.7148V49.9219C86.8802 50.0065 86.6035 50.0716 86.3105 50.1172C86.0176 50.1693 85.6986 50.1953 85.3535 50.1953C84.696 50.1953 84.1263 50.0879 83.6445 49.873C83.1693 49.6582 82.8047 49.3197 82.5508 48.8574C82.2969 48.3887 82.1699 47.7799 82.1699 47.0312V36.8164ZM93.4492 50.1953C92.6094 50.1953 91.8574 50.0618 91.1934 49.7949C90.5293 49.528 89.9661 49.1602 89.5039 48.6914C89.0482 48.2161 88.6999 47.6693 88.459 47.0508C88.2181 46.4323 88.0977 45.7715 88.0977 45.0684V44.6973C88.0977 43.9095 88.2083 43.1836 88.4297 42.5195C88.651 41.8555 88.9733 41.2793 89.3965 40.791C89.8262 40.2962 90.3535 39.9154 90.9785 39.6484C91.6035 39.375 92.3164 39.2383 93.1172 39.2383C93.8659 39.2383 94.5332 39.362 95.1191 39.6094C95.7051 39.8503 96.1999 40.1986 96.6035 40.6543C97.0072 41.1035 97.3132 41.6471 97.5215 42.2852C97.7363 42.9167 97.8438 43.6263 97.8438 44.4141V45.6641H89.3281V43.7012H94.8555V43.4668C94.8555 43.0957 94.7871 42.7702 94.6504 42.4902C94.5202 42.2103 94.3249 41.9954 94.0645 41.8457C93.8105 41.6895 93.4883 41.6113 93.0977 41.6113C92.7266 41.6113 92.4173 41.6895 92.1699 41.8457C91.9225 42.002 91.724 42.2233 91.5742 42.5098C91.431 42.7897 91.3268 43.1185 91.2617 43.4961C91.1966 43.8672 91.1641 44.2676 91.1641 44.6973V45.0684C91.1641 45.4785 91.2194 45.8529 91.3301 46.1914C91.4408 46.5299 91.6035 46.8197 91.8184 47.0605C92.0332 47.3014 92.2936 47.4902 92.5996 47.627C92.9056 47.7637 93.2539 47.832 93.6445 47.832C94.1263 47.832 94.5853 47.7409 95.0215 47.5586C95.4577 47.3698 95.8353 47.0768 96.1543 46.6797L97.5801 48.3105C97.3652 48.623 97.0625 48.9258 96.6719 49.2188C96.2878 49.5052 95.8255 49.7396 95.2852 49.9219C94.7448 50.1042 94.1328 50.1953 93.4492 50.1953ZM105.48 47.6367V35H108.547V50H105.793L105.48 47.6367ZM98.8984 44.8438V44.6387C98.8984 43.8379 98.9863 43.1087 99.1621 42.4512C99.3444 41.7871 99.6081 41.2174 99.9531 40.7422C100.305 40.2604 100.738 39.8893 101.252 39.6289C101.766 39.3685 102.355 39.2383 103.02 39.2383C103.632 39.2383 104.165 39.375 104.621 39.6484C105.077 39.9154 105.464 40.293 105.783 40.7812C106.109 41.263 106.372 41.8327 106.574 42.4902C106.776 43.1413 106.929 43.8477 107.033 44.6094V44.9609C106.936 45.6901 106.783 46.3704 106.574 47.002C106.372 47.6335 106.109 48.1901 105.783 48.6719C105.464 49.1471 105.074 49.5215 104.611 49.7949C104.156 50.0618 103.618 50.1953 103 50.1953C102.336 50.1953 101.747 50.0618 101.232 49.7949C100.725 49.528 100.298 49.1536 99.9531 48.6719C99.6081 48.1901 99.3444 47.6237 99.1621 46.9727C98.9863 46.3216 98.8984 45.612 98.8984 44.8438ZM101.945 44.6387V44.8438C101.945 45.2604 101.975 45.6478 102.033 46.0059C102.098 46.3639 102.202 46.6797 102.346 46.9531C102.489 47.2266 102.678 47.4414 102.912 47.5977C103.146 47.7474 103.433 47.8223 103.771 47.8223C104.227 47.8223 104.602 47.7181 104.895 47.5098C105.188 47.2949 105.409 46.9987 105.559 46.6211C105.708 46.2435 105.786 45.804 105.793 45.3027V44.2773C105.793 43.8607 105.751 43.4863 105.666 43.1543C105.581 42.8223 105.454 42.5423 105.285 42.3145C105.122 42.0866 104.917 41.9141 104.67 41.7969C104.423 41.6732 104.13 41.6113 103.791 41.6113C103.459 41.6113 103.176 41.6895 102.941 41.8457C102.707 41.9954 102.515 42.207 102.365 42.4805C102.222 42.7539 102.115 43.0762 102.043 43.4473C101.978 43.8118 101.945 44.209 101.945 44.6387Z" fill="#1F0077"/>
</g>
</svg>
