<svg width="245" height="187" viewBox="0 0 245 187" fill="none" xmlns="http://www.w3.org/2000/svg">
<path d="M147.123 45.0659L164.983 23.5304L182.844 45.0659V128.461" stroke="#CCDDE2" stroke-width="4.01" stroke-miterlimit="10"/>
<g opacity="0.81">
<path opacity="0.81" d="M176.239 48.6653H171.44V53.4646H176.239V48.6653Z" stroke="#CCDDE2" stroke-width="4.01" stroke-miterlimit="10"/>
<path opacity="0.81" d="M167.163 48.6653H162.364V53.4646H167.163V48.6653Z" stroke="#CCDDE2" stroke-width="4.01" stroke-miterlimit="10"/>
<path opacity="0.81" d="M158.09 48.6653H153.291V53.4646H158.09V48.6653Z" stroke="#CCDDE2" stroke-width="4.01" stroke-miterlimit="10"/>
</g>
<g opacity="0.46">
<path opacity="0.46" d="M176.239 59.8128H171.44V64.6121H176.239V59.8128Z" stroke="#CCDDE2" stroke-width="4.01" stroke-miterlimit="10"/>
<path opacity="0.46" d="M167.163 59.8128H162.364V64.6121H167.163V59.8128Z" stroke="#CCDDE2" stroke-width="4.01" stroke-miterlimit="10"/>
<path opacity="0.46" d="M158.09 59.8128H153.291V64.6121H158.09V59.8128Z" stroke="#CCDDE2" stroke-width="4.01" stroke-miterlimit="10"/>
</g>
<g opacity="0.25">
<path opacity="0.25" d="M176.239 71.4309H171.44V76.2302H176.239V71.4309Z" stroke="#CCDDE2" stroke-width="4.01" stroke-miterlimit="10"/>
<path opacity="0.25" d="M167.163 71.4309H162.364V76.2302H167.163V71.4309Z" stroke="#CCDDE2" stroke-width="4.01" stroke-miterlimit="10"/>
<path opacity="0.25" d="M158.09 71.4309H153.291V76.2302H158.09V71.4309Z" stroke="#CCDDE2" stroke-width="4.01" stroke-miterlimit="10"/>
</g>
<g opacity="0.25">
<path opacity="0.25" d="M176.239 81.4128H171.44V86.2121H176.239V81.4128Z" stroke="#CCDDE2" stroke-width="4.01" stroke-miterlimit="10"/>
<path opacity="0.25" d="M167.163 81.4128H162.364V86.2121H167.163V81.4128Z" stroke="#CCDDE2" stroke-width="4.01" stroke-miterlimit="10"/>
<path opacity="0.25" d="M158.09 81.4128H153.291V86.2121H158.09V81.4128Z" stroke="#CCDDE2" stroke-width="4.01" stroke-miterlimit="10"/>
</g>
<path d="M189.489 115.39V14.2101H235.84V128.655" stroke="#CCDDE2" stroke-width="4.01" stroke-miterlimit="10"/>
<path d="M194.094 23.531V29.4519H200.015V18.5847H194.094V23.531ZM195.066 19.5566H199.041V23.531H195.066V19.5566ZM195.066 24.5056H199.041V28.4691H195.066V24.5056Z" fill="#D7E8F0"/>
<path d="M204.537 23.531V29.4519H210.455V18.5847H204.537V23.531ZM205.509 19.5566H209.483V23.531H205.509V19.5566ZM205.509 24.5056H209.483V28.4691H205.509V24.5056Z" fill="#D7E8F0"/>
<path d="M214.691 23.531V29.4519H220.609V18.5847H214.691V23.531ZM215.663 19.5566H219.637V23.531H215.663V19.5566ZM215.663 24.5056H219.637V28.4691H215.663V24.5056Z" fill="#D7E8F0"/>
<path d="M224.249 18.5847V29.4519H230.167V18.5847H224.249ZM229.195 28.4691H225.22V24.5056H229.195V28.4691ZM229.195 23.5229H225.22V19.5484H229.195V23.5229Z" fill="#D7E8F0"/>
<path d="M194.094 38.1493V44.0702H200.015V33.2031H194.094V38.1493ZM195.066 34.1749H199.041V38.1493H195.066V34.1749ZM195.066 39.1212H199.041V43.0983H195.066V39.1212Z" fill="#D7E8F0"/>
<path d="M204.537 38.1493V44.0702H210.455V33.2031H204.537V38.1493ZM205.509 34.1749H209.483V38.1493H205.509V34.1749ZM205.509 39.1212H209.483V43.0983H205.509V39.1212Z" fill="#D7E8F0"/>
<path d="M214.691 38.1493V44.0702H220.609V33.2031H214.691V38.1493ZM215.663 34.1749H219.637V38.1493H215.663V34.1749ZM215.663 39.1212H219.637V43.0983H215.663V39.1212Z" fill="#D7E8F0"/>
<path d="M224.249 38.1493V44.0702H230.167V33.2031H224.249V38.1493ZM225.22 34.1749H229.195V38.1493H225.22V34.1749ZM225.22 39.1212H229.195V43.0983H225.22V39.1212Z" fill="#D7E8F0"/>
<path d="M194.094 52.7674V58.6855H200.015V47.8211H194.094V52.7674ZM195.066 48.7929H199.041V52.7674H195.066V48.7929ZM195.066 53.7419H199.041V57.7164H195.066V53.7419Z" fill="#D7E8F0"/>
<path d="M204.537 52.7674V58.6855H210.455V47.8211H204.537V52.7674ZM205.509 48.7929H209.483V52.7674H205.509V48.7929ZM205.509 53.7419H209.483V57.7164H205.509V53.7419Z" fill="#D7E8F0"/>
<path d="M214.691 52.7674V58.6855H220.609V47.8211H214.691V52.7674ZM215.663 48.7929H219.637V52.7674H215.663V48.7929ZM215.663 53.7419H219.637V57.7164H215.663V53.7419Z" fill="#D7E8F0"/>
<path d="M224.249 52.7674V58.6855H230.167V47.8211H224.249V52.7674ZM225.22 48.7929H229.195V52.7674H225.22V48.7929ZM225.22 53.7419H229.195V57.7164H225.22V53.7419Z" fill="#D7E8F0"/>
<path d="M194.094 67.3963V73.3144H200.015V62.4391H194.094V67.3963ZM195.066 63.4219H199.041V67.3963H195.066V63.4219ZM195.066 68.3681H199.041V72.3426H195.066V68.3681Z" fill="#D7E8F0"/>
<path d="M204.537 67.3963V73.3144H210.455V62.4391H204.537V67.3963ZM205.509 63.4219H209.483V67.3963H205.509V63.4219ZM205.509 68.3681H209.483V72.3426H205.509V68.3681Z" fill="#D7E8F0"/>
<path d="M214.691 67.3963V73.3144H220.609V62.4391H214.691V67.3963ZM215.663 63.4219H219.637V67.3963H215.663V63.4219ZM215.663 68.3681H219.637V72.3426H215.663V68.3681Z" fill="#D7E8F0"/>
<path d="M224.249 67.3963V73.3144H230.167V62.4391H224.249V67.3963ZM225.22 63.4219H229.195V67.3963H225.22V63.4219ZM225.22 68.3681H229.195V72.3426H225.22V68.3681Z" fill="#D7E8F0"/>
<path d="M194.094 82.0035V87.9243H200.015V77.0572H194.094V82.0035ZM195.066 78.0318H199.041V82.0035H195.066V78.0318ZM195.066 82.9781H199.041V86.9525H195.066V82.9781Z" fill="#D7E8F0"/>
<path d="M204.537 82.0035V87.9243H210.455V77.0572H204.537V82.0035ZM205.509 78.0318H209.483V82.0035H205.509V78.0318ZM205.509 82.9781H209.483V86.9525H205.509V82.9781Z" fill="#D7E8F0"/>
<path d="M214.691 82.0035V87.9243H220.609V77.0572H214.691V82.0035ZM215.663 78.0318H219.637V82.0035H215.663V78.0318ZM215.663 82.9781H219.637V86.9525H215.663V82.9781Z" fill="#D7E8F0"/>
<path d="M224.249 82.0035V87.9243H230.167V77.0572H224.249V82.0035ZM225.22 78.0318H229.195V82.0035H225.22V78.0318ZM225.22 82.9781H229.195V86.9525H225.22V82.9781Z" fill="#D7E8F0"/>
<path d="M83.3952 128.685V82.8724C83.395 76.4858 81.163 70.3001 77.0851 65.3849C76.3659 64.5181 75.4648 63.8204 74.4454 63.3416C73.4259 62.8627 72.3136 62.6147 71.1874 62.6147C70.0612 62.6147 68.9489 62.8627 67.9295 63.3416C66.91 63.8204 66.0087 64.5181 65.2897 65.3849C61.2118 70.3001 58.9799 76.4858 58.9796 82.8724V128.769" stroke="#CCDDE2" stroke-width="4.01" stroke-miterlimit="10"/>
<g opacity="0.81">
<path opacity="0.81" d="M63.4957 78.7267H66.776V75.4465H63.4957V78.7267Z" stroke="#CCDDE2" stroke-width="4.01" stroke-miterlimit="10"/>
<path opacity="0.81" d="M69.6943 78.7268H72.9746V75.4465H69.6943V78.7268Z" stroke="#CCDDE2" stroke-width="4.01" stroke-miterlimit="10"/>
<path opacity="0.81" d="M75.8955 78.7268H79.1758V75.4465H75.8955V78.7268Z" stroke="#CCDDE2" stroke-width="4.01" stroke-miterlimit="10"/>
</g>
<g opacity="0.46">
<path opacity="0.46" d="M63.4957 86.3457H66.776V83.0654H63.4957V86.3457Z" stroke="#CCDDE2" stroke-width="4.01" stroke-miterlimit="10"/>
<path opacity="0.46" d="M69.6943 86.3457H72.9746V83.0654H69.6943V86.3457Z" stroke="#CCDDE2" stroke-width="4.01" stroke-miterlimit="10"/>
<path opacity="0.46" d="M75.8955 86.3457H79.1758V83.0654H75.8955V86.3457Z" stroke="#CCDDE2" stroke-width="4.01" stroke-miterlimit="10"/>
</g>
<g opacity="0.25">
<path opacity="0.25" d="M63.4957 94.287H66.776V91.0067H63.4957V94.287Z" stroke="#CCDDE2" stroke-width="4.01" stroke-miterlimit="10"/>
<path opacity="0.25" d="M69.6943 94.287H72.9746V91.0067H69.6943V94.287Z" stroke="#CCDDE2" stroke-width="4.01" stroke-miterlimit="10"/>
<path opacity="0.25" d="M75.8955 94.287H79.1758V91.0067H75.8955V94.287Z" stroke="#CCDDE2" stroke-width="4.01" stroke-miterlimit="10"/>
</g>
<g opacity="0.25">
<path opacity="0.25" d="M63.4957 101.109H66.776V97.8283H63.4957V101.109Z" stroke="#CCDDE2" stroke-width="4.01" stroke-miterlimit="10"/>
<path opacity="0.25" d="M69.6943 101.109H72.9746V97.8283H69.6943V101.109Z" stroke="#CCDDE2" stroke-width="4.01" stroke-miterlimit="10"/>
<path opacity="0.25" d="M75.8955 101.109H79.1758V97.8283H75.8955V101.109Z" stroke="#CCDDE2" stroke-width="4.01" stroke-miterlimit="10"/>
</g>
<path d="M22.7605 128.894V51.899H54.4417V128.785" stroke="#CCDDE2" stroke-width="4.01" stroke-miterlimit="10"/>
<path d="M51.2922 58.2692V62.3145H47.2469V54.8882H51.2922V58.2692ZM50.6252 55.547H47.9112V58.2692H50.6334L50.6252 55.547ZM50.6252 58.928H47.9112V61.6502H50.6334L50.6252 58.928Z" fill="#D7E8F0"/>
<path d="M44.1545 58.2692V62.3145H40.1093V54.8882H44.1545V58.2692ZM43.4903 55.547H40.768V58.2692H43.4903V55.547ZM43.4903 58.928H40.768V61.6502H43.4903V58.928Z" fill="#D7E8F0"/>
<path d="M37.2155 58.2692V62.3145H33.1703V54.8882H37.2155V58.2692ZM36.5513 55.547H33.8291V58.2692H36.5513V55.547ZM36.5513 58.928H33.8291V61.6502H36.5513V58.928Z" fill="#D7E8F0"/>
<path d="M30.6822 54.8882V62.3145H26.637V54.8882H30.6822ZM27.3012 61.6502H30.0234V58.928H27.3012V61.6502ZM27.3012 58.2692H30.0234V55.547H27.3012V58.2692Z" fill="#D7E8F0"/>
<path d="M51.2922 68.2601V72.2972H47.2469V64.8818H51.2922V68.2601ZM50.6252 65.5379H47.9112V68.2601H50.6334L50.6252 65.5379ZM50.6252 68.9189H47.9112V71.6411H50.6334L50.6252 68.9189Z" fill="#D7E8F0"/>
<path d="M44.1545 68.2601V72.2972H40.1093V64.8818H44.1545V68.2601ZM43.4903 65.5379H40.768V68.2601H43.4903V65.5379ZM43.4903 68.9189H40.768V71.6411H43.4903V68.9189Z" fill="#D7E8F0"/>
<path d="M37.2155 68.2601V72.2972H33.1703V64.8818H37.2155V68.2601ZM36.5513 65.5379H33.8291V68.2601H36.5513V65.5379ZM36.5513 68.9189H33.8291V71.6411H36.5513V68.9189Z" fill="#D7E8F0"/>
<path d="M30.6822 68.2601V72.2972H26.637V64.8818H30.6822V68.2601ZM30.018 65.5379H27.2957V68.2601H30.018V65.5379ZM30.018 68.9189H27.2957V71.6411H30.018V68.9189Z" fill="#D7E8F0"/>
<path d="M51.2922 78.2531V82.2983H47.2469V74.8721H51.2922V78.2531ZM50.6252 75.5309H47.9112V78.2531H50.6334L50.6252 75.5309ZM50.6252 78.9119H47.9112V81.6341H50.6334L50.6252 78.9119Z" fill="#D7E8F0"/>
<path d="M44.1545 78.2531V82.2983H40.1093V74.8721H44.1545V78.2531ZM43.4903 75.5309H40.768V78.2531H43.4903V75.5309ZM43.4903 78.9119H40.768V81.6341H43.4903V78.9119Z" fill="#D7E8F0"/>
<path d="M37.2155 78.2531V82.2983H33.1703V74.8721H37.2155V78.2531ZM36.5513 75.5309H33.8291V78.2531H36.5513V75.5309ZM36.5513 78.9119H33.8291V81.6341H36.5513V78.9119Z" fill="#D7E8F0"/>
<path d="M30.6822 78.2531V82.2983H26.637V74.8721H30.6822V78.2531ZM30.018 75.5309H27.2957V78.2531H30.018V75.5309ZM30.018 78.9119H27.2957V81.6341H30.018V78.9119Z" fill="#D7E8F0"/>
<path d="M51.2922 88.2434V92.2886H47.2469V84.8624H51.2922V88.2434ZM50.6252 85.5212H47.9112V88.2434H50.6334L50.6252 85.5212ZM50.6334 88.9022H47.9112V91.6244H50.6334V88.9022Z" fill="#D7E8F0"/>
<path d="M44.1545 88.2434V92.2886H40.1093V84.8624H44.1545V88.2434ZM43.4903 85.5212H40.768V88.2434H43.4903V85.5212ZM43.4903 88.9022H40.768V91.6244H43.4903V88.9022Z" fill="#D7E8F0"/>
<path d="M37.2155 88.2434V92.2886H33.1703V84.8624H37.2155V88.2434ZM36.5513 85.5212H33.8291V88.2434H36.5513V85.5212ZM36.5513 88.9022H33.8291V91.6244H36.5513V88.9022Z" fill="#D7E8F0"/>
<path d="M30.6822 88.2434V92.2886H26.637V84.8624H30.6822V88.2434ZM30.018 85.5212H27.2957V88.2434H30.018V85.5212ZM30.018 88.9022H27.2957V91.6244H30.018V88.9022Z" fill="#D7E8F0"/>
<path d="M51.2922 98.2337V102.279H47.2469V94.8527H51.2922V98.2337ZM50.6252 95.5114H47.9112V98.2337H50.6334L50.6252 95.5114ZM50.6252 98.8924H47.9112V101.615H50.6334L50.6252 98.8924Z" fill="#D7E8F0"/>
<path d="M44.1545 98.2337V102.279H40.1093V94.8527H44.1545V98.2337ZM43.4903 95.5114H40.768V98.2337H43.4903V95.5114ZM43.4903 98.8924H40.768V101.615H43.4903V98.8924Z" fill="#D7E8F0"/>
<path d="M37.2155 98.2337V102.279H33.1703V94.8527H37.2155V98.2337ZM36.5513 95.5114H33.8291V98.2337H36.5513V95.5114ZM36.5513 98.8924H33.8291V101.615H36.5513V98.8924Z" fill="#D7E8F0"/>
<path d="M30.6822 98.2337V102.279H26.637V94.8527H30.6822V98.2337ZM30.018 95.5114H27.2957V98.2337H30.018V95.5114ZM30.018 98.8924H27.2957V101.615H30.018V98.8924Z" fill="#D7E8F0"/>
<path d="M105.094 44.816C105.094 44.816 104.324 55.2966 92.7135 54.3275C92.7135 54.3275 96.7805 64.7563 99.6987 66.602L114.361 75.882L117.872 59.4643L105.094 44.816Z" fill="#2E2E2E"/>
<path d="M92.6644 84.2747L61.9414 128.764L28.0607 128.881V128.26C28.0615 126.812 28.6122 125.417 29.6017 124.359C30.5912 123.301 31.9456 122.658 33.3908 122.56L42.7389 121.937L69.9992 72.7243C71.2866 70.3276 73.0571 68.2244 75.1989 66.5473C77.3408 64.8701 79.8074 63.6555 82.4428 62.9806C85.0782 62.3058 87.8249 62.1849 90.5093 62.6259C93.1936 63.0672 95.7574 64.0603 98.0381 65.543L98.2722 65.6955L113.963 75.6153L102.829 102.445L88.6927 90.043" fill="white"/>
<path d="M196.569 110.188C193.741 118.06 188.566 119.337 182.514 118.932C179.348 114.783 175.597 109.132 172.564 104.909C169.04 99.9822 165.51 95.062 161.975 90.1495C161.074 88.8864 160.173 87.6314 159.253 86.3683V105.296C159.256 106.273 159.191 107.249 159.059 108.217C141.817 122.952 117.189 104.463 113.83 101.792C113.577 101.599 113.451 101.49 113.451 101.49C111.842 89.831 113.579 81.0137 113.949 74.347C114.456 65.4399 116.105 62.6088 117.57 59.8702L118.177 58.3349C119.315 56.2143 119.266 55.6862 119.418 55.5854L119.372 55.1962C119.372 55.1962 119.963 54.5319 119.963 54.5156C123.289 49.0249 125.851 44.4434 131.358 41.1413C129.453 42.546 128.135 45.9488 130.155 47.808C132.504 49.9722 135.703 47.4133 137.63 45.9025C140.093 44.0429 142.255 41.8143 144.038 39.2957C144.602 38.479 145.309 37.6106 145.201 36.5734C149.191 36.5163 152.567 37.9346 156.683 40.3138C161.888 43.3273 166.036 47.8734 168.868 53.1872L196.569 110.188Z" fill="#2E2E2E"/>
<path d="M146.837 25.8171V25.8933C146.837 27.4817 146.206 29.0048 145.082 30.128C143.959 31.2512 142.436 31.8822 140.848 31.8822C139.83 31.8868 138.828 31.625 137.943 31.1227C137.688 30.9904 137.446 30.8355 137.219 30.6599C137.126 30.584 137.053 30.4865 137.006 30.3763C136.958 30.2658 136.938 30.1457 136.947 30.0259C136.956 29.9064 136.994 29.7905 137.058 29.6886C137.121 29.5866 137.208 29.5014 137.312 29.4404C138.539 28.6999 139.694 27.6219 140.107 26.2826C140.234 25.8715 140.276 25.4393 140.233 25.0113C140.196 24.4647 140.017 23.9374 139.713 23.482C139.409 23.0266 138.99 22.6593 138.498 22.417C138.344 22.3585 138.183 22.319 138.019 22.3C137.557 22.2238 136.93 22.2319 136.789 22.5722C137.519 20.9498 137.694 19.1319 137.287 17.4C137.034 16.3253 136.538 15.3227 135.839 14.4682C135.849 14.7763 135.791 15.0826 135.669 15.3657C135.547 15.6488 135.364 15.9014 135.133 16.1056C134.902 16.3097 134.629 16.4603 134.333 16.5466C134.037 16.6329 133.726 16.653 133.422 16.6051C131.056 16.3329 130.795 14.0299 130.795 14.0299C130.795 14.0299 130.778 14.0544 130.778 14.0707C129.531 16.5643 126.51 16.3873 124.446 15.0643C123.715 14.61 123.09 14.0048 122.612 13.2894C122.214 10.5944 124.607 8.22066 127.15 8.06005C127.343 6.38588 128.715 4.68449 130.381 4.68449C130.96 4.68286 131.529 4.83667 132.028 5.12958C132.528 5.42249 132.939 5.84416 133.22 6.35049C133.264 6.42971 133.303 6.51164 133.337 6.59549C134.094 5.66993 135.292 4.68993 136.479 4.68993C137.31 4.69102 138.121 4.95127 138.798 5.43419C139.475 5.91711 139.985 6.59903 140.257 7.38494C140.257 7.26516 141.346 6.87861 141.452 6.8405C141.894 6.71201 142.353 6.64966 142.813 6.65538C143.616 6.67634 144.4 6.89848 145.094 7.30137C145.789 7.70425 146.371 8.27483 146.788 8.9611C146.83 9.20011 146.849 9.44239 146.848 9.68521C146.848 10.4107 146.677 11.1261 146.349 11.7732C146.723 11.912 147.067 12.1208 147.362 12.3884C147.997 12.9432 148.388 13.7253 148.451 14.5662C148.451 14.6505 148.451 14.7349 148.451 14.8193C148.452 15.4547 148.263 16.0759 147.906 16.6024C148.298 16.7505 148.669 16.9492 149.009 17.1931C150.023 17.924 150.708 19.0254 150.915 20.2583C150.96 20.5281 150.983 20.8014 150.983 21.075C150.982 22.2333 150.562 23.3521 149.8 24.2243C149.037 25.0963 147.985 25.6622 146.837 25.8171Z" fill="#3FBDF1"/>
<path d="M146.837 25.8171V25.8933C146.837 27.4817 146.206 29.0048 145.082 30.128C143.959 31.2512 142.436 31.8822 140.848 31.8822C139.83 31.8868 138.828 31.625 137.943 31.1227C139.171 30.3823 140.325 29.3043 140.739 27.9677C140.886 27.4689 140.918 26.943 140.83 26.4304C140.742 25.9178 140.538 25.4325 140.233 25.0113C140.196 24.4647 140.017 23.9374 139.713 23.482C139.409 23.0266 138.99 22.6593 138.498 22.417C138.344 22.3585 138.183 22.319 138.019 22.3C138.315 20.6304 138.058 18.9103 137.287 17.4C137.034 16.3253 136.538 15.3227 135.839 14.4682C135.849 14.7763 135.791 15.0826 135.669 15.3657C135.547 15.6488 135.364 15.9014 135.133 16.1056C134.902 16.3097 134.629 16.4603 134.333 16.5466C134.037 16.6329 133.726 16.653 133.422 16.6051C131.056 16.3329 130.795 14.0299 130.795 14.0299C130.795 14.0299 130.778 14.0544 130.778 14.0707C129.531 16.5643 126.51 16.3873 124.446 15.0643C123.715 14.61 123.09 14.0048 122.612 13.2894C122.214 10.5944 124.607 8.22066 127.15 8.06005C127.343 6.38588 128.715 4.68449 130.381 4.68449C130.96 4.68286 131.529 4.83667 132.028 5.12958C132.528 5.42249 132.939 5.84416 133.22 6.35049C133.264 6.42971 133.303 6.51164 133.337 6.59549C134.094 5.66993 135.292 4.68993 136.479 4.68993C137.31 4.69102 138.121 4.95127 138.798 5.43419C139.475 5.91711 139.985 6.59903 140.257 7.38494C140.257 7.26516 141.346 6.87861 141.452 6.8405C141.894 6.71201 142.353 6.64966 142.813 6.65538C143.616 6.67634 144.4 6.89848 145.094 7.30137C145.789 7.70425 146.371 8.27483 146.788 8.9611C146.83 9.20011 146.849 9.44239 146.848 9.68521C146.848 10.4107 146.677 11.1261 146.349 11.7732C146.723 11.912 147.067 12.1208 147.362 12.3884C147.282 12.76 147.153 13.1196 146.981 13.4582C147.566 13.6801 148.077 14.0623 148.456 14.5607C148.456 14.6451 148.456 14.7295 148.456 14.8139C148.458 15.4492 148.268 16.0705 147.912 16.5969C148.303 16.745 148.674 16.9437 149.014 17.1877C148.923 17.5756 148.763 17.9442 148.543 18.2765C149.54 18.6451 150.382 19.3398 150.934 20.2474C150.979 20.5172 151.002 20.7905 151.002 21.0641C151.004 22.227 150.582 23.351 149.815 24.226C149.049 25.1006 147.99 25.6663 146.837 25.8171Z" fill="#3FBDF1"/>
<path d="M131.374 184.49H92.6644V183.742C92.6633 182.262 93.2364 180.839 94.2629 179.773C95.2895 178.706 96.6898 178.08 98.1688 178.025L107.305 177.647H128.875L131.374 184.49Z" fill="#3FBDF1"/>
<path d="M61.9415 128.764L28.0607 128.679V127.931C28.0596 126.45 28.6332 125.027 29.6602 123.961C30.6873 122.895 32.0882 122.268 33.5677 122.214L42.7035 121.841L66.4658 122.219L61.9415 128.764Z" fill="#3FBDF1"/>
<path d="M118.014 128.571H135.98C141.641 128.555 147.102 126.484 151.349 122.742C155.596 119 158.339 113.843 159.068 108.23C159.199 107.261 159.264 106.284 159.261 105.307V86.3735" stroke="black" stroke-width="4.01" stroke-miterlimit="10"/>
<path d="M124.539 101.424L114.007 101.786H113.83L107.179 101.92C105.714 101.949 104.255 102.122 102.824 102.434C90.9522 105.001 83.3653 116.897 85.8997 128.668C86.2732 130.422 86.8582 132.124 87.6419 133.737L107.305 177.647L98.1688 178.017C96.6898 178.072 95.2897 178.698 94.2632 179.764C93.2364 180.831 92.6633 182.253 92.6644 183.733V184.482H131.374L128.875 177.647L110.887 128.502" stroke="black" stroke-width="4.01" stroke-miterlimit="10"/>
<path d="M92.6644 84.285L61.9414 128.763" stroke="black" stroke-width="4.01" stroke-miterlimit="10"/>
<path d="M102.818 102.445L88.6818 90.043" stroke="black" stroke-width="4.01" stroke-miterlimit="10"/>
<path d="M132.58 128.555L132.488 128.47" stroke="black" stroke-width="4.01" stroke-miterlimit="10"/>
<path d="M98.2613 65.6955L89.0847 46.8958" stroke="black" stroke-width="4.01" stroke-miterlimit="10"/>
<path d="M209.802 128.502C209.802 128.518 209.818 128.527 209.826 128.546H202.057" stroke="black" stroke-width="4.01" stroke-miterlimit="10"/>
<path d="M120.102 128.587C120.102 128.546 120.077 128.503 120.069 128.47" stroke="black" stroke-width="4.01" stroke-miterlimit="10"/>
<path d="M145.203 36.8209C148.088 36.7438 150.951 37.3327 153.571 38.5413C159.682 41.386 164.767 46.0435 168.138 51.8802C171.851 58.3564 174.857 65.3443 178.156 72.0246C182.29 80.42 186.43 88.8115 190.575 97.1998C192.571 101.249 194.567 105.298 196.564 109.349L200.799 117.927C201.67 119.36 202.897 120.543 204.36 121.362C205.822 122.178 207.468 122.607 209.143 122.609C210.82 122.609 212.463 123.088 213.877 123.99C215.291 124.893 216.418 126.181 217.124 127.702L217.495 128.503H207.278" stroke="black" stroke-width="4.01" stroke-miterlimit="10"/>
<path d="M114.01 101.792C112.809 94.0937 113.062 86.3435 113.669 78.6015C114.758 64.7645 118.967 50.9002 130.25 41.9495C130.542 41.7182 130.836 41.4895 131.14 41.2772" stroke="black" stroke-width="4.01" stroke-miterlimit="10"/>
<path d="M141.934 55.1956C141.722 63.346 148.677 71.6052 148.677 71.6052C148.677 71.6052 148.693 71.6215 148.693 71.6297C152.221 76.5297 155.744 81.4441 159.261 86.3732C160.17 87.6363 161.071 88.8913 161.983 90.1517C165.52 95.0696 169.05 99.9898 172.573 104.912C175.583 109.147 178.423 113.593 181.589 117.758C182.405 118.825 183.238 119.87 184.115 120.888C185.234 122.195 186.388 123.684 187.752 124.738C189.116 125.791 190.697 126.774 192.107 127.884C193.289 128.876 194.3 130.054 195.102 131.372C195.978 132.869 196.071 134.562 196.819 136.059C198.132 138.705 201.374 138.267 202.484 135.741C204.025 132.237 200.658 124.661 200.658 124.661" stroke="black" stroke-width="4.01" stroke-miterlimit="10"/>
<path d="M245 128.546H202.057" stroke="black" stroke-width="4.01" stroke-miterlimit="10"/>
<path d="M113.952 75.6153L98.2722 65.6955L98.0381 65.543C95.7574 64.0603 93.1936 63.0672 90.5092 62.6259C87.8248 62.1849 85.0781 62.3058 82.4427 62.9806C79.8073 63.6555 77.3407 64.8701 75.1989 66.5473C73.057 68.2244 71.2865 70.3276 69.9992 72.7243L42.7388 121.937L33.3853 122.56C31.9401 122.658 30.5858 123.301 29.5962 124.359C28.6067 125.417 28.056 126.812 28.0552 128.26V128.881" stroke="black" stroke-width="4.01" stroke-miterlimit="10"/>
<path d="M85.1864 32.1278C86.4822 32.3809 86.9722 32.2965 87.9087 32.4816C87.9803 32.4928 88.0538 32.4803 88.1177 32.4462C88.1814 32.4122 88.2326 32.3583 88.2634 32.2924C88.2941 32.2268 88.3026 32.1531 88.2879 32.082C88.2729 32.011 88.2353 31.947 88.1809 31.8991L85.083 28.9046C84.2345 28.1819 83.6489 27.1992 83.417 26.1089L83.3898 26C83.4965 25.6295 83.7004 25.2947 83.9805 25.0298C84.2606 24.7652 84.6066 24.5804 84.9823 24.4946C85.6408 24.3879 86.3162 24.475 86.9259 24.7451C87.9359 25.1425 89.2916 25.4964 90.5819 25.9401C92.3666 26.5692 93.866 27.8182 94.8068 29.46L94.9265 29.6723C98.6353 36.1172 102.879 42.2392 107.612 47.9738L117.684 60.3518" stroke="black" stroke-width="4.01" stroke-miterlimit="10"/>
<path d="M86.7954 48.1647C86.218 48.1647 85.6558 47.9796 85.1914 47.6366C84.727 47.2936 84.3846 46.8109 84.2147 46.2591L81.6231 38.2694L79.3365 30.7207L76.3556 21.0023C76.2402 20.6253 76.2163 20.2265 76.286 19.8386C76.3559 19.4507 76.5173 19.0848 76.7569 18.772C76.9967 18.4592 77.3076 18.208 77.6639 18.0395C78.0203 17.871 78.4117 17.7901 78.8056 17.8037C79.315 17.8184 79.8074 17.9905 80.2152 18.2962C80.6233 18.6016 80.9268 19.0257 81.0841 19.5106L85.192 32.1281L89.3706 44.6258C89.5026 45.0317 89.5366 45.4634 89.4697 45.8851C89.4027 46.3067 89.2369 46.7066 88.9857 47.0518C88.7344 47.3973 88.405 47.6779 88.0242 47.8715C87.6436 48.0648 87.2225 48.1652 86.7954 48.1647Z" fill="#3FBDF1"/>
<path d="M86.7954 48.1647C86.218 48.1647 85.6558 47.9796 85.1914 47.6366C84.727 47.2936 84.3846 46.8109 84.2147 46.2591L81.6231 38.2694L79.3365 30.7207L76.3556 21.0023C76.2402 20.6253 76.2163 20.2265 76.286 19.8386C76.3559 19.4507 76.5173 19.0848 76.7569 18.772C76.9967 18.4592 77.3076 18.208 77.6639 18.0395C78.0203 17.871 78.4117 17.7901 78.8056 17.8037C79.315 17.8184 79.8074 17.9905 80.2152 18.2962C80.6233 18.6016 80.9268 19.0257 81.0841 19.5106L85.192 32.1281L89.3706 44.6258C89.5026 45.0317 89.5366 45.4634 89.4697 45.8851C89.4027 46.3067 89.2369 46.7066 88.9857 47.0518C88.7344 47.3973 88.405 47.6779 88.0242 47.8715C87.6436 48.0648 87.2225 48.1652 86.7954 48.1647Z" stroke="black" stroke-width="4.01" stroke-miterlimit="10"/>
<path d="M76.2032 35.9334C75.5556 35.9073 74.9284 35.6996 74.393 35.3345C74.1006 35.1173 73.8548 34.8437 73.6702 34.5301C73.4854 34.2162 73.3656 33.8686 73.3177 33.5077C73.2695 33.1467 73.2945 32.7797 73.3909 32.4288C73.4873 32.0777 73.6531 31.7494 73.8785 31.4635C74.2838 30.9637 74.8301 30.5976 75.4464 30.4128C76.2351 30.1539 77.0877 30.1653 77.8692 30.4454C78.7011 30.8058 79.3822 31.4437 79.7966 32.2503" stroke="black" stroke-width="4.01" stroke-miterlimit="10"/>
<path d="M77.8119 41.1266C77.1613 41.1209 76.5256 40.9323 75.9771 40.5822C75.6796 40.3726 75.427 40.105 75.2345 39.796C75.0423 39.4868 74.9138 39.1421 74.8569 38.7825C74.8 38.4229 74.8158 38.0554 74.9037 37.7021C74.9914 37.3485 75.149 37.0164 75.3673 36.7248C75.7615 36.2147 76.3005 35.8352 76.9136 35.6359C77.6938 35.3577 78.5447 35.3482 79.3309 35.6087C80.1122 35.8809 80.8826 36.3655 81.261 37.0869" stroke="black" stroke-width="4.01" stroke-miterlimit="10"/>
<path d="M82.7556 41.7805C82.2882 41.1606 81.6243 40.7183 80.8727 40.5253C80.1208 40.3325 79.3259 40.4006 78.6178 40.7188C78.0786 40.9508 77.6207 41.3384 77.303 41.8322C77.1282 42.1129 77.0112 42.4259 76.9592 42.7526C76.9075 43.0795 76.9214 43.4133 77.0006 43.7345C77.0798 44.0557 77.2224 44.3579 77.4203 44.623C77.618 44.8882 77.867 45.1111 78.1523 45.2785L78.5226 45.4773C78.5226 45.4773 80.7439 46.3702 84.4488 46.7975" stroke="black" stroke-width="4.01" stroke-miterlimit="10"/>
<path d="M107.484 128.595C108.511 128.595 119.067 128.595 120.102 128.595C124.245 128.579 128.413 128.571 132.58 128.563C153.215 128.511 173.926 128.478 192.742 128.47" stroke="black" stroke-width="4.01" stroke-miterlimit="10"/>
<path d="M202.03 128.461C208.313 128.461 211.805 128.461 217.481 128.461C226.737 128.478 235.078 128.502 242.15 128.538" stroke="black" stroke-width="4.01" stroke-miterlimit="10"/>
<path d="M0 128.993C0.495444 128.993 38.5521 128.824 85.8943 128.68" stroke="black" stroke-width="4.01" stroke-miterlimit="10"/>
<path d="M145.203 36.5759C145.312 37.6212 144.605 38.4978 144.041 39.2981C142.258 41.817 140.096 44.0454 137.633 45.9049C135.706 47.4049 132.507 49.9638 130.158 47.8105C128.138 45.9512 129.442 42.5485 131.361 41.1438L131.385 41.1275" stroke="black" stroke-width="4.01" stroke-miterlimit="10"/>
<path d="M126.341 18.6966C126.341 18.6966 129.755 19.026 130.299 21.9633" stroke="black" stroke-width="4.01" stroke-miterlimit="10"/>
<path d="M124.751 27.2599C123.958 27.387 123.147 27.3603 122.364 27.1809C122.216 27.1447 122.08 27.0729 121.966 26.9722C121.852 26.8712 121.765 26.744 121.711 26.6017C121.657 26.4593 121.639 26.306 121.658 26.1552C121.677 26.0041 121.732 25.8601 121.82 25.7354C122.636 24.5894 123.453 23.4569 124.354 22.3789C124.493 22.2431 124.588 22.0686 124.626 21.8781C124.626 21.8781 124.591 18.2874 125.535 15.6169" stroke="black" stroke-width="4.01" stroke-miterlimit="10"/>
<path d="M127.902 21.8813C128.022 21.3118 127.727 20.7677 127.243 20.6661C126.758 20.5643 126.269 20.9432 126.149 21.5127C126.03 22.0822 126.325 22.6261 126.809 22.7279C127.293 22.8298 127.783 22.4505 127.902 21.8813Z" fill="black"/>
<path d="M145.203 36.8206C143.948 33.181 143.371 31.3217 143.371 31.3217" stroke="black" stroke-width="4.01" stroke-linecap="round" stroke-linejoin="round"/>
<path d="M131.388 35.6041L131.369 48.1644" stroke="black" stroke-width="4.01" stroke-miterlimit="10"/>
<path d="M123.499 27.3397C123.499 27.3397 124.376 34.5644 127.882 35.9337C131.388 37.303 134.87 33.0781 134.87 33.0781" stroke="black" stroke-width="4.01" stroke-linecap="round" stroke-linejoin="round"/>
<path d="M124.218 30.6254C124.672 30.9434 125.198 31.1429 125.749 31.206C126.3 31.2692 126.858 31.1941 127.373 30.9875" stroke="black" stroke-width="4.01" stroke-linecap="round" stroke-linejoin="round"/>
<path d="M133.01 6.24977C133.011 5.69498 132.867 5.14972 132.591 4.66816C132.234 4.0494 131.683 3.56484 131.024 3.28881C130.365 3.01278 129.633 2.9605 128.942 3.1399C128.25 3.31929 127.636 3.72083 127.195 4.28242C126.753 4.84429 126.508 5.53518 126.496 6.24977" stroke="black" stroke-width="4.01" stroke-miterlimit="10" stroke-linecap="round"/>
<path d="M131.211 11.0463C131.208 10.2604 131.013 9.4876 130.643 8.79425C130.273 8.10117 129.739 7.50909 129.088 7.06918C125.821 4.86962 121.114 8.22884 122.048 12.0154C122.375 13.3357 123.325 14.3511 124.444 15.0671C126.504 16.3901 129.529 16.5725 130.77 14.0762L130.789 14.0353C130.789 14.0353 131.061 16.3329 133.416 16.6106C133.72 16.6574 134.032 16.6367 134.327 16.5499C134.623 16.4633 134.896 16.3125 135.126 16.1086C135.357 15.9047 135.54 15.6526 135.663 15.37C135.786 15.0875 135.845 14.7815 135.836 14.4736C137.706 16.7412 137.984 19.9181 136.792 22.5722C137.007 22.0931 138.183 22.281 138.501 22.4225C139.922 23.0513 140.559 24.8398 140.113 26.2826C139.696 27.6274 138.542 28.6972 137.32 29.4458C137.216 29.5063 137.129 29.5909 137.065 29.6927C137.001 29.7943 136.963 29.9097 136.954 30.0292C136.945 30.1487 136.964 30.2688 137.012 30.3793C137.059 30.4895 137.132 30.5867 137.224 30.6627C138.112 31.3372 139.171 31.7505 140.281 31.8561C141.391 31.9617 142.508 31.7554 143.507 31.2602C144.506 30.765 145.347 30.0009 145.936 29.0536C146.524 28.1062 146.836 27.0138 146.837 25.8988V25.8226C147.896 25.69 148.881 25.2062 149.633 24.4487C150.385 23.6911 150.862 22.7032 150.988 21.6429C151.113 20.5826 150.88 19.5108 150.325 18.5986C149.77 17.6864 148.925 16.9865 147.925 16.6106C148.282 16.0841 148.471 15.4629 148.47 14.8275C148.47 13.961 148.126 13.1302 147.513 12.5177C146.901 11.9049 146.07 11.5608 145.203 11.5608" stroke="black" stroke-width="4.01" stroke-linecap="round" stroke-linejoin="round"/>
<path d="M133.01 4.57072C133.743 3.56077 134.51 3 135.85 3C136.683 3.00082 137.495 3.2616 138.172 3.74616C138.85 4.23099 139.359 4.91508 139.628 5.70316C139.593 5.59428 140.717 5.19139 140.829 5.15872C141.271 5.03105 141.729 4.96871 142.19 4.97361C143.424 5.00791 144.598 5.51669 145.466 6.39461C146.335 7.27226 146.832 8.45125 146.853 9.68578C146.852 10.4112 146.682 11.1264 146.355 11.7737" stroke="black" stroke-width="4.01" stroke-linecap="square" stroke-linejoin="round"/>
<path d="M146.837 25.8171V25.8933C146.837 27.4817 146.206 29.0048 145.082 30.128C143.959 31.2512 142.436 31.8822 140.848 31.8822C139.83 31.8868 138.828 31.625 137.943 31.1227C137.688 30.9904 137.446 30.8355 137.219 30.6599C137.126 30.584 137.053 30.4865 137.006 30.3763C136.958 30.2658 136.938 30.1457 136.947 30.0259C136.956 29.9064 136.994 29.7905 137.058 29.6886C137.121 29.5866 137.208 29.5014 137.312 29.4404C138.539 28.6999 139.694 27.6219 140.107 26.2826C140.234 25.8715 140.276 25.4393 140.233 25.0113C140.196 24.4647 140.017 23.9374 139.713 23.482C139.409 23.0266 138.99 22.6593 138.498 22.417C138.344 22.3585 138.183 22.319 138.019 22.3C137.557 22.2238 136.93 22.2319 136.789 22.5722C137.519 20.9498 137.694 19.1319 137.287 17.4C137.034 16.3253 136.538 15.3227 135.839 14.4682C135.849 14.7763 135.791 15.0826 135.669 15.3657C135.547 15.6488 135.364 15.9014 135.133 16.1056C134.902 16.3097 134.629 16.4603 134.333 16.5466C134.037 16.6329 133.726 16.653 133.422 16.6051C131.056 16.3329 130.795 14.0299 130.795 14.0299C130.795 14.0299 130.778 14.0544 130.778 14.0707C129.531 16.5643 126.51 16.3873 124.446 15.0643C123.715 14.61 123.09 14.0048 122.612 13.2894C122.214 10.5944 124.607 8.22066 127.15 8.06005C127.343 6.38588 128.715 4.68449 130.381 4.68449C130.96 4.68286 131.529 4.83667 132.028 5.12958C132.528 5.42249 132.939 5.84416 133.22 6.35049C133.264 6.42971 133.303 6.51164 133.337 6.59549C134.094 5.66993 135.292 4.68993 136.479 4.68993C137.31 4.69102 138.121 4.95127 138.798 5.43419C139.475 5.91711 139.985 6.59903 140.257 7.38494C140.257 7.26516 141.346 6.87861 141.452 6.8405C141.894 6.71201 142.353 6.64966 142.813 6.65538C143.616 6.67634 144.4 6.89848 145.094 7.30137C145.789 7.70425 146.371 8.27483 146.788 8.9611C146.83 9.20011 146.849 9.44239 146.848 9.68521C146.848 10.4107 146.677 11.1261 146.349 11.7732C146.723 11.912 147.067 12.1208 147.362 12.3884C147.997 12.9432 148.388 13.7253 148.451 14.5662C148.451 14.6505 148.451 14.7349 148.451 14.8193C148.452 15.4547 148.263 16.0759 147.906 16.6024C148.298 16.7505 148.669 16.9492 149.009 17.1931C150.023 17.924 150.708 19.0254 150.915 20.2583C150.96 20.5281 150.983 20.8014 150.983 21.075C150.982 22.2333 150.562 23.3521 149.8 24.2243C149.037 25.0963 147.985 25.6622 146.837 25.8171Z" fill="#3FBDF1"/>
<path d="M146.837 25.8171V25.8933C146.837 27.4817 146.206 29.0048 145.082 30.128C143.959 31.2512 142.436 31.8822 140.848 31.8822C139.83 31.8868 138.828 31.625 137.943 31.1227C139.171 30.3823 140.325 29.3043 140.739 27.9677C140.886 27.4689 140.918 26.943 140.83 26.4304C140.742 25.9178 140.538 25.4325 140.233 25.0113C140.196 24.4647 140.017 23.9374 139.713 23.482C139.409 23.0266 138.99 22.6593 138.498 22.417C138.344 22.3585 138.183 22.319 138.019 22.3C138.315 20.6304 138.058 18.9103 137.287 17.4C137.034 16.3253 136.538 15.3227 135.839 14.4682C135.849 14.7763 135.791 15.0826 135.669 15.3657C135.547 15.6488 135.364 15.9014 135.133 16.1056C134.902 16.3097 134.629 16.4603 134.333 16.5466C134.037 16.6329 133.726 16.653 133.422 16.6051C131.056 16.3329 130.795 14.0299 130.795 14.0299C130.795 14.0299 130.778 14.0544 130.778 14.0707C129.531 16.5643 126.51 16.3873 124.446 15.0643C123.715 14.61 123.09 14.0048 122.612 13.2894C122.214 10.5944 124.607 8.22066 127.15 8.06005C127.343 6.38588 128.715 4.68449 130.381 4.68449C130.96 4.68286 131.529 4.83667 132.028 5.12958C132.528 5.42249 132.939 5.84416 133.22 6.35049C133.264 6.42971 133.303 6.51164 133.337 6.59549C134.094 5.66993 135.292 4.68993 136.479 4.68993C137.31 4.69102 138.121 4.95127 138.798 5.43419C139.475 5.91711 139.985 6.59903 140.257 7.38494C140.257 7.26516 141.346 6.87861 141.452 6.8405C141.894 6.71201 142.353 6.64966 142.813 6.65538C143.616 6.67634 144.4 6.89848 145.094 7.30137C145.789 7.70425 146.371 8.27483 146.788 8.9611C146.83 9.20011 146.849 9.44239 146.848 9.68521C146.848 10.4107 146.677 11.1261 146.349 11.7732C146.723 11.912 147.067 12.1208 147.362 12.3884C147.282 12.76 147.153 13.1196 146.981 13.4582C147.566 13.6801 148.077 14.0623 148.456 14.5607C148.456 14.6451 148.456 14.7295 148.456 14.8139C148.458 15.4492 148.268 16.0705 147.912 16.5969C148.303 16.745 148.674 16.9437 149.014 17.1877C148.923 17.5756 148.763 17.9442 148.543 18.2765C149.54 18.6451 150.382 19.3398 150.934 20.2474C150.979 20.5172 151.002 20.7905 151.002 21.0641C151.004 22.227 150.582 23.351 149.815 24.226C149.049 25.1006 147.99 25.6663 146.837 25.8171Z" fill="#3FBDF1"/>
<path d="M126.341 18.6966C126.341 18.6966 129.755 19.026 130.299 21.9633" stroke="black" stroke-width="4.01" stroke-miterlimit="10"/>
<path d="M124.751 27.2599C123.958 27.387 123.147 27.3603 122.364 27.1809C122.216 27.1447 122.08 27.0729 121.966 26.9722C121.852 26.8712 121.765 26.744 121.711 26.6017C121.657 26.4593 121.639 26.306 121.658 26.1552C121.677 26.0041 121.732 25.8601 121.82 25.7354C122.636 24.5894 123.453 23.4569 124.354 22.3789C124.493 22.2431 124.588 22.0686 124.626 21.8781C124.626 21.8781 124.591 18.2874 125.535 15.6169" stroke="black" stroke-width="4.01" stroke-miterlimit="10"/>
<path d="M127.902 21.8813C128.022 21.3118 127.727 20.7677 127.243 20.6661C126.758 20.5643 126.269 20.9432 126.149 21.5127C126.03 22.0822 126.325 22.6261 126.809 22.7279C127.293 22.8298 127.783 22.4505 127.902 21.8813Z" fill="black"/>
<path d="M145.203 36.8206C143.948 33.181 143.371 31.3217 143.371 31.3217" stroke="black" stroke-width="4.01" stroke-linecap="round" stroke-linejoin="round"/>
<path d="M131.388 35.6041L131.369 48.1644" stroke="black" stroke-width="4.01" stroke-miterlimit="10"/>
<path d="M123.499 27.3397C123.499 27.3397 124.376 34.5644 127.882 35.9337C131.388 37.303 134.87 33.0781 134.87 33.0781" stroke="black" stroke-width="4.01" stroke-linecap="round" stroke-linejoin="round"/>
<path d="M124.218 30.6254C124.672 30.9434 125.198 31.1429 125.749 31.206C126.3 31.2692 126.858 31.1941 127.373 30.9875" stroke="black" stroke-width="4.01" stroke-linecap="round" stroke-linejoin="round"/>
<path d="M133.01 6.24977C133.011 5.69498 132.867 5.14972 132.591 4.66816C132.234 4.0494 131.683 3.56484 131.024 3.28881C130.365 3.01278 129.633 2.9605 128.942 3.1399C128.25 3.31929 127.636 3.72083 127.195 4.28242C126.753 4.84429 126.508 5.53518 126.496 6.24977" stroke="black" stroke-width="4.01" stroke-miterlimit="10" stroke-linecap="round"/>
<path d="M131.211 11.0463C131.208 10.2604 131.013 9.4876 130.643 8.79425C130.273 8.10117 129.739 7.50909 129.088 7.06918C125.821 4.86962 121.114 8.22884 122.048 12.0154C122.375 13.3357 123.325 14.3511 124.444 15.0671C126.504 16.3901 129.529 16.5725 130.77 14.0762L130.789 14.0353C130.789 14.0353 131.061 16.3329 133.416 16.6106C133.72 16.6574 134.032 16.6367 134.327 16.5499C134.623 16.4633 134.896 16.3125 135.126 16.1086C135.357 15.9047 135.54 15.6526 135.663 15.37C135.786 15.0875 135.845 14.7815 135.836 14.4736C137.706 16.7412 137.984 19.9181 136.792 22.5722C137.007 22.0931 138.183 22.281 138.501 22.4225C139.922 23.0513 140.559 24.8398 140.113 26.2826C139.696 27.6274 138.542 28.6972 137.32 29.4458C137.216 29.5063 137.129 29.5909 137.065 29.6927C137.001 29.7943 136.963 29.9097 136.954 30.0292C136.945 30.1487 136.964 30.2688 137.012 30.3793C137.059 30.4895 137.132 30.5867 137.224 30.6627C138.112 31.3372 139.171 31.7505 140.281 31.8561C141.391 31.9617 142.508 31.7554 143.507 31.2602C144.506 30.765 145.347 30.0009 145.936 29.0536C146.524 28.1062 146.836 27.0138 146.837 25.8988V25.8226C147.896 25.69 148.881 25.2062 149.633 24.4487C150.385 23.6911 150.862 22.7032 150.988 21.6429C151.113 20.5826 150.88 19.5108 150.325 18.5986C149.77 17.6864 148.925 16.9865 147.925 16.6106C148.282 16.0841 148.471 15.4629 148.47 14.8275C148.47 13.961 148.126 13.1302 147.513 12.5177C146.901 11.9049 146.07 11.5608 145.203 11.5608" stroke="black" stroke-width="4.01" stroke-linecap="round" stroke-linejoin="round"/>
<path d="M133.01 4.57072C133.743 3.56077 134.51 3 135.85 3C136.683 3.00082 137.495 3.2616 138.172 3.74616C138.85 4.23099 139.359 4.91508 139.628 5.70316C139.593 5.59428 140.717 5.19139 140.829 5.15872C141.271 5.03105 141.729 4.96871 142.19 4.97361C143.424 5.00791 144.598 5.51669 145.466 6.39461C146.335 7.27226 146.832 8.45125 146.853 9.68578C146.852 10.4112 146.682 11.1264 146.355 11.7737" stroke="black" stroke-width="4.01" stroke-linecap="square" stroke-linejoin="round"/>
</svg>
