<svg width="212" height="160" viewBox="0 0 212 160" fill="none" xmlns="http://www.w3.org/2000/svg">
<path d="M144.055 142.136L139.533 146.405C139.415 146.516 139.321 146.65 139.257 146.799C139.193 146.948 139.16 147.108 139.159 147.27V154.07C139.159 154.366 139.27 154.651 139.468 154.87C139.667 155.089 139.941 155.226 140.235 155.254L149.136 156.119L154.044 151.486C154.162 151.375 154.257 151.242 154.321 151.093C154.386 150.944 154.419 150.783 154.419 150.621V143.78C154.419 143.483 154.309 143.197 154.109 142.978C153.909 142.758 153.634 142.622 153.339 142.594L144.982 141.818C144.814 141.803 144.644 141.823 144.485 141.878C144.325 141.933 144.178 142.021 144.055 142.136Z" fill="#3FBDF1"/>
<path d="M143.582 140.95L138.274 145.961C138.136 146.091 138.025 146.249 137.95 146.424C137.875 146.598 137.836 146.787 137.837 146.977V154.956C137.836 155.303 137.965 155.637 138.199 155.894C138.432 156.151 138.752 156.312 139.098 156.345L149.544 157.361L155.305 151.923C155.443 151.792 155.553 151.635 155.629 151.46C155.704 151.285 155.742 151.097 155.742 150.907V142.878C155.742 142.53 155.612 142.194 155.377 141.937C155.143 141.68 154.821 141.52 154.474 141.488L144.669 140.573C144.471 140.555 144.272 140.579 144.084 140.644C143.897 140.709 143.726 140.813 143.582 140.95Z" fill="#3FBDF1"/>
<path d="M171.462 96.6205V103.459C171.462 103.622 171.428 103.782 171.364 103.931C171.3 104.079 171.206 104.213 171.089 104.325L166.177 108.957L157.271 108.092C157.014 108.069 156.772 107.959 156.584 107.781C158.056 107.602 159.294 106.918 159.674 106.179C160.258 105.034 160.102 103.038 157.614 102.69C157.133 102.626 156.656 102.528 156.188 102.397V100.106C156.188 99.9448 156.221 99.7845 156.285 99.6362C156.349 99.4877 156.443 99.354 156.562 99.2435L161.082 94.9702C161.205 94.8576 161.349 94.7713 161.507 94.7171C161.664 94.6626 161.831 94.6413 161.998 94.6544L170.354 95.4326C170.655 95.4529 170.937 95.5871 171.143 95.8077C171.349 96.0283 171.463 96.3188 171.462 96.6205Z" fill="#3FBDF1"/>
<path d="M172.787 95.7184V103.745C172.787 103.937 172.747 104.126 172.671 104.301C172.595 104.477 172.484 104.635 172.345 104.766L166.589 110.2L156.143 109.186C155.797 109.152 155.476 108.991 155.243 108.734C155.01 108.477 154.881 108.142 154.881 107.794V107.762C155.45 107.853 156.028 107.859 156.598 107.781C158.07 107.602 159.308 106.918 159.688 106.178C160.272 105.034 160.116 103.038 157.628 102.69C157.147 102.626 156.67 102.528 156.202 102.397C155.085 102.056 155.017 101.683 155.017 101.683L154.879 101.77V99.8246C154.878 99.6348 154.916 99.4467 154.99 99.2721C155.065 99.0974 155.175 98.9404 155.314 98.8106L160.624 93.7981C160.768 93.6619 160.94 93.558 161.127 93.493C161.315 93.4278 161.514 93.403 161.711 93.4204L171.517 94.336C171.862 94.3687 172.183 94.5282 172.417 94.7834C172.652 95.0386 172.784 95.3719 172.787 95.7184Z" fill="#3FBDF1"/>
<path d="M173.117 117.341L167.772 122.377C167.633 122.508 167.522 122.667 167.446 122.843C167.37 123.019 167.33 123.208 167.33 123.4V131.436C167.33 131.786 167.46 132.123 167.695 132.382C167.93 132.641 168.253 132.803 168.601 132.837L179.129 133.86L184.932 128.385C185.071 128.253 185.182 128.095 185.258 127.919C185.334 127.743 185.373 127.553 185.373 127.362V119.282C185.374 118.932 185.243 118.593 185.006 118.334C184.77 118.075 184.445 117.913 184.096 117.881L174.222 116.966C174.022 116.945 173.819 116.969 173.629 117.033C173.438 117.098 173.263 117.203 173.117 117.341Z" fill="#3FBDF1"/>
<path d="M172.556 115.94L166.282 121.862C166.119 122.016 165.989 122.202 165.9 122.408C165.811 122.614 165.765 122.836 165.765 123.061V132.491C165.765 132.901 165.918 133.297 166.194 133.6C166.47 133.904 166.849 134.095 167.257 134.134L179.603 135.334L186.41 128.907C186.574 128.753 186.704 128.567 186.794 128.361C186.882 128.154 186.928 127.932 186.927 127.707V118.218C186.924 117.807 186.769 117.413 186.491 117.111C186.213 116.81 185.832 116.622 185.424 116.586L173.835 115.508C173.604 115.486 173.37 115.513 173.15 115.588C172.929 115.662 172.727 115.783 172.556 115.94Z" fill="#3FBDF1"/>
<path d="M187.605 122.248L182.043 127.499C181.898 127.636 181.783 127.801 181.705 127.984C181.626 128.167 181.585 128.364 181.585 128.563V136.924C181.585 137.288 181.721 137.639 181.965 137.909C182.21 138.178 182.546 138.347 182.908 138.382L193.856 139.447L199.891 133.752C200.036 133.615 200.151 133.45 200.23 133.267C200.309 133.084 200.349 132.887 200.349 132.688V124.267C200.348 123.902 200.212 123.551 199.966 123.281C199.72 123.011 199.383 122.843 199.019 122.809L188.745 121.85C188.537 121.831 188.328 121.857 188.132 121.926C187.935 121.994 187.756 122.104 187.605 122.248Z" fill="#3FBDF1"/>
<path d="M187.026 120.791L180.498 126.953C180.328 127.113 180.193 127.307 180.1 127.522C180.008 127.737 179.96 127.968 179.96 128.202V138.017C179.96 138.443 180.119 138.854 180.405 139.17C180.691 139.485 181.085 139.683 181.51 139.724L194.35 140.974L201.445 134.286C201.616 134.125 201.751 133.931 201.843 133.716C201.936 133.502 201.983 133.27 201.983 133.036V123.16C201.983 122.732 201.823 122.32 201.535 122.004C201.247 121.687 200.851 121.49 200.425 121.45L188.365 120.329C188.121 120.306 187.876 120.336 187.646 120.416C187.415 120.495 187.203 120.623 187.026 120.791Z" fill="#3FBDF1"/>
<path d="M171.542 128.316L163.744 135.677C163.54 135.868 163.378 136.1 163.268 136.356C163.157 136.613 163.1 136.89 163.101 137.169V148.893C163.103 149.402 163.293 149.892 163.635 150.269C163.977 150.646 164.446 150.883 164.952 150.934L180.301 152.427L188.77 144.436C188.973 144.244 189.134 144.013 189.245 143.756C189.355 143.5 189.413 143.223 189.413 142.944V131.147C189.411 130.637 189.219 130.145 188.875 129.768C188.531 129.39 188.058 129.154 187.55 129.106L173.144 127.764C172.853 127.737 172.56 127.773 172.284 127.868C172.007 127.963 171.755 128.116 171.542 128.316Z" fill="#3FBDF1"/>
<path d="M170.725 126.273L161.57 134.911C161.331 135.136 161.141 135.407 161.011 135.708C160.881 136.009 160.814 136.334 160.814 136.662V150.42C160.814 151.018 161.036 151.595 161.438 152.038C161.84 152.481 162.393 152.759 162.989 152.816L180.999 154.567L190.933 145.183C191.171 144.958 191.361 144.686 191.491 144.385C191.621 144.084 191.688 143.76 191.688 143.432V129.596C191.688 128.996 191.465 128.418 191.061 127.975C190.657 127.531 190.102 127.255 189.505 127.199L172.606 125.627C172.265 125.594 171.92 125.635 171.596 125.746C171.271 125.858 170.974 126.037 170.725 126.273Z" fill="#3FBDF1"/>
<path d="M116.53 27.4332C122.939 22.5718 132.646 18.207 145.632 20.4706" stroke="#CCDDE2" stroke-width="4.59" stroke-miterlimit="10"/>
<path d="M119.785 31.2329C125.488 27.271 133.257 24.2291 143.387 24.8814" stroke="white" stroke-width="4.59" stroke-linecap="round" stroke-linejoin="round"/>
<path d="M164.55 29.1821C170.812 34.966 174.103 43.1188 175.307 51.4273C176.105 56.9532 176.112 62.5645 175.328 68.0923C175.268 68.4168 175.227 68.7448 175.206 69.0742C175.612 68.8915 176.031 68.7423 176.461 68.6278C181.638 67.298 187.145 67.0829 192.155 69.1291C196.323 70.8297 199.871 73.812 202.581 77.3689C206.204 82.1537 208.395 87.868 208.9 93.8485C209.816 105.293 204.343 114.521 196.135 121.031L196.042 121.106" stroke="#CCDDE2" stroke-width="4.59" stroke-linejoin="round"/>
<path d="M163.549 34.6895C171.666 44.2271 172.18 57.0514 171.464 69.2738C171.448 69.5416 171.347 70.2511 171.254 70.9721" stroke="white" stroke-width="4.59" stroke-linecap="round" stroke-linejoin="round"/>
<path d="M174.559 72.352C180.546 71.7569 187.193 71.5807 192.286 74.5561C197.321 77.4996 201.07 82.2581 203.228 87.646C205.68 93.7617 206.073 100.921 203.334 107.014C200.26 113.835 195.169 118.717 189.409 123.288C189.392 123.299 190.095 123.455 190.828 123.62" stroke="white" stroke-width="4.59" stroke-linecap="round" stroke-linejoin="round"/>
<path d="M70.3641 142.661C69.0821 143.122 67.7397 143.395 66.3792 143.469C47.0546 144.657 28.9202 134.085 16.1486 122.249C15.5649 121.709 15.0042 121.155 14.464 120.594" stroke="black" stroke-width="4.59" stroke-miterlimit="10"/>
<path d="M88.954 135.068C90.0709 136.776 92.6916 136.094 92.6916 136.094C107.308 133.095 103.044 113.743 90.6798 104.762" stroke="black" stroke-width="4.59" stroke-miterlimit="10"/>
<path d="M105.978 88.8913C100.68 93.9725 95.9486 97.0556 91.5152 98.8821L93.3462 86.0806C73.3762 74.1375 68.0615 87.4539 68.0615 87.4539C67.2971 88.7036 66.9423 103.531 66.8416 108.591C66.8164 108.591 66.1824 108.591 66.1549 108.591C53.5664 107.918 42.1886 96.4032 42.1886 96.4032C48.5493 80.4318 71.2567 60.6975 71.2567 60.6975C87.0176 49.6447 99.0477 53.3618 99.0477 53.3618C95.3421 53.6296 100.391 63.8904 100.391 63.8904C107.832 70.3518 110.579 60.7021 110.579 60.7021C117.78 77.937 105.978 88.8913 105.978 88.8913Z" fill="#353642"/>
<path d="M119 81.4364C119 81.4364 117.693 98.2272 106.333 97.671C106.333 97.671 102.074 93.0636 102.181 89.5594C102.289 86.0552 111.794 64.1717 111.794 64.1717C111.794 64.1717 117.956 79.5389 119 81.4364Z" fill="#353642"/>
<path d="M15.5078 121.583V121.64L16.4782 122.555C16.4782 122.555 16.0754 122.929 15.5078 123.471C14.7685 124.158 13.7499 125.105 12.99 125.828C11.674 127.078 4.9448 133.805 3.14807 127.687C3.50284 125.547 4.8624 121.146 10.0741 115.799C17.4853 108.182 16.453 109.127 18.3139 109.253C19.1722 109.308 20.2845 109.811 21.2367 110.34C18.8288 111.342 15.1782 114.123 15.5078 121.583Z" fill="#3FBDF1"/>
<path d="M23.2486 111.605C23.2486 111.605 15.9632 112.292 15.5078 121.582V121.64C15.478 122.212 15.478 122.814 15.5078 123.455C14.7685 124.141 13.7499 125.089 12.99 125.812C11.674 127.062 4.9448 133.789 3.14807 127.671C3.50284 125.531 4.8624 121.129 10.0741 115.783C17.4853 108.165 16.453 109.111 18.3139 109.237C19.1722 109.291 20.2845 109.795 21.2367 110.324C21.9288 110.716 22.6004 111.144 23.2486 111.605Z" fill="#3FBDF1"/>
<path d="M91.4672 99.2686C99.707 94.1027 112.927 87.488 112.895 72.6381C112.895 69.111 112.531 66.2294 111.751 63.5011L111.675 63.2401C111.403 62.3569 111.035 61.5059 110.579 60.7018" stroke="black" stroke-width="4.59" stroke-miterlimit="10"/>
<path d="M51.7216 124.974C49.815 123.351 48.0938 121.786 46.9494 120.705L46.931 120.687C46.0292 119.847 45.4891 119.314 45.4891 119.314C44.7223 118.268 44.0403 117.254 43.4291 116.279C43.4172 116.264 43.4085 116.247 43.404 116.228C38.959 109.041 38.6913 103.315 42.8317 94.8897C42.8558 94.8288 42.8832 94.769 42.9141 94.7111C43.3719 93.7956 43.8777 92.8389 44.4362 91.8501C52.7241 77.2016 77.0406 49.9073 98.0177 53.3588" stroke="black" stroke-width="4.59" stroke-miterlimit="10"/>
<path d="M16.1555 122.242C11.8067 127.639 8.7557 129.555 6.69346 129.978C4.63123 130.402 2.7315 128.573 3.03133 126.458C3.98806 119.775 11.7655 111.78 15.5924 108.204C16.1786 107.653 16.9307 107.311 17.7316 107.233C18.5324 107.154 19.3367 107.343 20.019 107.77L21.9348 108.962C27.5951 112.491 33.5025 115.934 39.442 119.106C44.8872 122.018 50.8702 125.76 57.3155 124.913" stroke="black" stroke-width="4.59" stroke-miterlimit="10"/>
<path d="M94.1588 72.1183C94.2328 74.775 94.1648 77.4339 93.9551 80.0834C93.2296 89.6714 91.2703 99.1288 90.1923 108.678C89.5056 114.789 89.0845 120.928 89.0021 127.078C88.9334 132.241 88.9197 136.18 89.0731 141.344C89.1715 144.667 91.0506 146.789 93.9116 148.21C96.3218 149.405 98.0018 149.163 99.5033 151.573C102.591 156.54 96.5278 156.892 94.0604 156.237C87.139 154.406 76.956 153.402 73.0032 146.519C69.8515 141.026 69.4509 137.435 68.6544 131.296C67.7846 124.645 67.0522 117.966 66.8966 111.255C66.6563 100.449 67.494 83.0681 71.3667 72.8485" stroke="black" stroke-width="4.59" stroke-miterlimit="10"/>
<path d="M180.617 123.368L180.58 123.405L179.722 123.318L179.754 123.288L180.617 123.368Z" fill="#3FBDF1"/>
<path d="M167.001 122.198L174.053 122.896L167.001 122.255V122.198Z" fill="#3FBDF1"/>
<path d="M180.617 123.368L180.58 123.404L179.722 123.317L179.628 123.404L179.219 123.368L179.312 123.281L179.342 123.249L179.754 123.287L180.617 123.368Z" fill="#3FBDF1"/>
<path d="M180.617 123.368L180.581 123.404L179.722 123.317L179.312 123.281L179.342 123.249L179.754 123.287L180.617 123.368Z" fill="#3FBDF1"/>
<path d="M162.611 135.613L173.036 136.631L162.611 135.695V135.613Z" fill="#3FBDF1"/>
<path d="M182.748 137.325L182.693 137.38L181.423 137.252L181.285 137.38L180.679 137.325L180.816 137.197L180.862 137.152L181.471 137.206L182.748 137.325Z" fill="#3FBDF1"/>
<path d="M182.748 137.325L182.693 137.38L181.423 137.252L180.816 137.197L180.862 137.152L181.471 137.206L182.748 137.325Z" fill="#3FBDF1"/>
<path d="M111.671 63.2383C111.671 63.2383 118.404 85.7009 126.28 90.9332C133.701 95.861 143.664 93.7233 151.489 91.0316C153.65 90.2877 155.822 89.5622 158.127 89.5965C161.37 89.6423 167.98 90.361 168.839 94.1353" stroke="black" stroke-width="4.59" stroke-miterlimit="10"/>
<path d="M102.82 91.7404C114.44 115.272 135.044 110.578 145.651 106.325C146.612 105.934 147.654 105.785 148.686 105.89C149.711 106.002 150.517 106.437 151.471 106.806C153.094 107.446 154.927 107.906 156.687 107.787C158.448 107.668 160.592 106.327 159.851 104.251C159.26 102.596 157.42 102.715 156.01 102.397C154.6 102.079 154.261 100.024 155.58 99.3577C155.596 99.3526 155.611 99.344 155.623 99.3325" stroke="black" stroke-width="4.59" stroke-miterlimit="10"/>
<path d="M155.742 141.609L149.544 147.466L137.837 146.377L144.042 140.522L155.742 141.609Z" stroke="black" stroke-width="4.59" stroke-linecap="square" stroke-linejoin="round"/>
<path d="M149.544 147.467V157.364L137.837 156.226V146.377L149.544 147.467Z" stroke="black" stroke-width="4.59" stroke-linecap="square" stroke-linejoin="round"/>
<path d="M155.742 141.609V151.513L149.544 157.363V147.466L155.742 141.609Z" stroke="black" stroke-width="4.59" stroke-linecap="square" stroke-linejoin="round"/>
<path d="M191.784 127.497L181.178 137.52L161.151 135.654L165.838 131.228V133.725L179.628 135.068L186.927 128.174V127.041L191.784 127.497Z" stroke="black" stroke-width="4.59" stroke-linecap="square" stroke-linejoin="round"/>
<path d="M181.178 137.517V154.448L161.151 152.502V135.656L181.178 137.517Z" stroke="black" stroke-width="4.59" stroke-linecap="square" stroke-linejoin="round"/>
<path d="M191.782 127.499V144.441L181.178 154.448V137.517L191.782 127.499Z" stroke="black" stroke-width="4.59" stroke-linecap="square" stroke-linejoin="round"/>
<path d="M186.927 116.51L179.628 123.404L165.838 122.125L173.144 115.229L186.927 116.51Z" stroke="black" stroke-width="4.59" stroke-linecap="square" stroke-linejoin="round"/>
<path d="M179.628 125.936V123.404L165.838 122.125V132.768" stroke="black" stroke-width="4.59" stroke-linecap="square" stroke-linejoin="round"/>
<path d="M186.927 116.511V128.175L179.628 135.069V123.405L186.927 116.511Z" stroke="black" stroke-width="4.59" stroke-linecap="square" stroke-linejoin="round"/>
<path d="M187.131 120.617L187.445 120.321L202.011 121.676L194.295 128.971L192.132 128.767" stroke="black" stroke-width="4.59" stroke-linecap="square" stroke-linejoin="round"/>
<path d="M192.004 128.753L194.295 128.971V141.287L191.784 141.044" stroke="black" stroke-width="4.59" stroke-linecap="square" stroke-linejoin="round"/>
<path d="M202.008 121.676V134.003L194.293 141.287V128.966L202.008 121.676Z" stroke="black" stroke-width="4.59" stroke-linecap="square" stroke-linejoin="round"/>
<path d="M172.785 94.4983L166.587 100.355L154.879 99.2659L161.084 93.4088L172.785 94.4983Z" stroke="black" stroke-width="4.59" stroke-linecap="square" stroke-linejoin="round"/>
<path d="M154.877 107.73V109.118L166.584 110.255V100.358L155.623 99.3373L154.877 99.2687V100.127V101.017" stroke="black" stroke-width="4.59" stroke-linecap="square" stroke-linejoin="round"/>
<path d="M172.785 94.4987V104.402L166.587 110.253V100.356L172.785 94.4987Z" stroke="black" stroke-width="4.59" stroke-linecap="square" stroke-linejoin="round"/>
<path d="M112.895 52.0615C113.96 53.4875 115.827 53.7713 117.066 52.7894" stroke="black" stroke-width="4.59" stroke-miterlimit="10"/>
<path d="M129.817 37.8504C129.358 38.9916 128.552 39.9593 127.513 40.6167C126.473 41.2738 125.253 41.5874 124.026 41.5125C123.999 41.0108 123.85 40.523 123.593 40.0911C122.492 38.2967 121.458 41.1921 117.471 38.3928C111.948 34.5018 109.418 35.8751 109.418 35.8751C109.19 35.9941 109.009 37.372 108.947 37.6123C108.569 39.0085 108.194 40.3979 107.803 41.7917C107.574 42.6432 107.345 43.4878 107.116 44.3324C107.057 44.176 106.989 44.0231 106.912 43.8746C106.66 41.8627 106.04 39.4411 103.788 40.1003C103.332 40.2424 102.915 40.4901 102.573 40.8236C100.904 42.4395 101.691 44.3644 102.946 45.891C103.248 46.352 103.6 46.7787 103.994 47.1636C103.68 47.6214 102.403 49.4525 102.403 49.4525C102.27 49.6356 99.4437 45.2502 99.2515 44.7878C99.029 43.6981 98.991 42.5784 99.1393 41.4759C99.7733 36.944 102.415 31.9612 106.464 29.9265C107.471 29.4229 107.274 28.7591 107.466 27.894C107.472 27.8436 107.494 27.7965 107.53 27.7603C107.566 27.7239 107.612 27.7006 107.663 27.6937C107.713 27.6868 107.764 27.6971 107.808 27.7225C107.852 27.7482 107.886 27.7875 107.906 27.8345C108.867 29.3039 111.723 29.6106 111.723 29.6106C121.531 28.6241 124.577 33.5314 126.477 34.6117C127.244 35.0358 128.131 35.1866 128.995 35.0397C129.001 35.3192 129.083 35.5918 129.233 35.8275C129.383 36.0633 129.595 36.2532 129.846 36.3764L129.727 36.8341C129.641 37.1733 129.672 37.5315 129.817 37.8504Z" fill="#3FBDF1"/>
<path d="M124.019 41.5128C125.244 41.5874 126.462 41.2752 127.5 40.6201C128.539 39.9651 129.345 39.0001 129.805 37.8621C129.984 37.427 130.124 36.9765 130.222 36.5163L130.148 36.4957C130.043 36.47 129.941 36.4306 129.846 36.3789C129.595 36.2556 129.383 36.0656 129.233 35.8298C129.083 35.5941 129.001 35.3217 128.995 35.0422C128.987 34.888 129.004 34.7335 129.045 34.5845L129.638 32.3918C129.638 32.3918 127.654 33.4446 125.793 32.3689C123.932 31.2931 121.277 26.3996 111.039 27.3678C111.039 27.3678 108.789 27.1595 107.835 25.6626C107.815 25.6166 107.78 25.5784 107.736 25.5537C107.693 25.5292 107.642 25.5198 107.592 25.5267C107.543 25.5338 107.497 25.5569 107.461 25.5926C107.426 25.6283 107.404 25.6745 107.397 25.7244C107.205 26.5896 106.784 27.1572 105.779 27.6608C101.721 29.6978 99.0775 34.6806 98.4549 39.2102C98.2208 41.1015 98.4941 43.0211 99.2468 44.7721C99.4391 45.2298 102.266 49.6198 102.399 49.4367C102.399 49.4367 103.676 47.6056 103.989 47.1479L104.065 47.0472L103.966 46.9579C103.601 46.6205 103.258 46.2589 102.941 45.8753C101.687 44.3486 100.899 42.4237 102.568 40.8078C102.91 40.4743 103.327 40.2264 103.783 40.0845C106.036 39.4254 106.656 41.8469 106.908 43.8588C106.956 44.2429 106.963 44.6313 106.928 45.017L107.111 44.3303C107.34 43.4857 107.569 42.6412 107.798 41.7897C108.18 40.3958 108.556 39.0065 108.942 37.6103C109.004 37.37 109.194 35.9921 109.414 35.8731C109.414 35.8731 111.943 34.5135 117.466 38.3908C121.453 41.19 122.488 38.2947 123.589 40.0891C123.846 40.5208 123.994 41.0085 124.021 41.5105C124.027 41.6716 124.022 41.833 124.007 41.9934C124.011 42.0147 124.011 42.0362 124.007 42.0575C123.975 42.4077 123.93 42.7579 123.884 43.0989C123.426 46.3903 122.533 49.7663 120.778 52.6205C118.649 56.0789 113.943 59.0956 109.892 56.7129C108.631 55.969 107.551 54.9116 106.585 53.8175" stroke="black" stroke-width="4.59" stroke-miterlimit="10"/>
<path d="M121.041 48.5493C121.294 48.0567 121.169 47.488 120.762 47.2792C120.355 47.0703 119.82 47.3001 119.567 47.7926C119.314 48.2852 119.439 48.854 119.846 49.0629C120.253 49.2719 120.788 49.0419 121.041 48.5493Z" fill="black"/>
<path d="M114.656 47.3664C114.908 46.8739 114.783 46.3053 114.376 46.0964C113.969 45.8874 113.434 46.1172 113.181 46.6098C112.928 47.1023 113.054 47.6711 113.461 47.8801C113.868 48.089 114.403 47.859 114.656 47.3664Z" fill="black"/>
<path d="M115.743 49.3651C115.743 49.3651 117.695 50.9031 118.015 49.6649C118.116 49.2827 119.217 45.5656 119.217 45.5656C119.217 45.5656 121.222 44 123.662 45.7533" stroke="black" stroke-width="4.59" stroke-miterlimit="10"/>
<path d="M117.031 44.1424C117.031 44.1424 113.845 41.8948 111.19 44.0325" stroke="black" stroke-width="4.59" stroke-miterlimit="10"/>
<path d="M101.572 48.3948L99.9199 53.7232L98.0316 53.3684C96.8437 55.3506 98.3749 61.757 100.401 63.897C106.18 70.022 109.734 62.9518 109.734 62.9518L110.579 60.695L111.803 57.4311" stroke="black" stroke-width="4.59" stroke-miterlimit="10"/>
<path d="M151.629 32.0681C152.06 32.4549 152.404 32.9278 152.641 33.4561C152.878 33.9843 153.001 34.5563 153.002 35.1351V35.7897C153.004 36.2526 153.103 36.7099 153.292 37.1322C153.481 37.5544 153.756 37.9328 154.1 38.2425C154.443 38.5521 154.848 38.7865 155.288 38.9305C155.728 39.0747 156.193 39.125 156.653 39.0788C158.363 38.9049 159.612 37.3507 159.612 35.6227V35.1329C159.611 34.5584 159.73 33.99 159.961 33.4643C160.193 32.9383 160.532 32.4668 160.956 32.0796" stroke="#CCDDE2" stroke-width="4.59" stroke-linejoin="round"/>
<path d="M151.629 32.0681C152.06 32.4549 152.404 32.9278 152.641 33.4561C152.878 33.9843 153.001 34.5563 153.002 35.1351V35.7897C153.004 36.2526 153.103 36.7099 153.292 37.1322C153.481 37.5544 153.756 37.9328 154.1 38.2425C154.443 38.5521 154.848 38.7865 155.288 38.9305C155.728 39.0747 156.193 39.125 156.653 39.0788C158.363 38.9049 159.612 37.3507 159.612 35.6227V35.1329C159.611 34.5584 159.73 33.99 159.961 33.4643C160.193 32.9383 160.532 32.4668 160.956 32.0796" stroke="#CCDDE2" stroke-width="4.59" stroke-linejoin="round"/>
<path d="M151.629 32.0688C151.41 31.8779 151.172 31.7092 150.92 31.5653C148.984 30.4543 147.44 28.7713 146.499 26.7475C145.558 24.724 145.266 22.4585 145.663 20.2623C146.061 18.0662 147.128 16.047 148.719 14.4814C150.31 12.9161 152.346 11.8813 154.548 11.519C156.75 11.1569 159.011 11.4851 161.019 12.4586C163.027 13.432 164.685 15.0033 165.765 16.9563C166.845 18.9096 167.294 21.149 167.051 23.3676C166.807 25.5862 165.883 27.6749 164.405 29.3474C164.382 29.3696 164.362 29.3941 164.344 29.4206C163.563 30.2783 162.652 31.0082 161.645 31.5836C161.397 31.7216 161.166 31.8891 160.958 32.0825" stroke="#CCDDE2" stroke-width="4.59" stroke-linejoin="round"/>
<path d="M155.149 31.3641C154.451 30.0961 153.275 28.4161 152.446 27.219C151.545 25.9494 150.809 24.5704 150.256 23.1151C150.182 22.9581 150.154 22.7837 150.173 22.6116C150.185 22.5262 150.229 22.4484 150.296 22.3946C150.364 22.3411 150.449 22.3154 150.535 22.3232C150.688 22.353 150.764 22.5132 150.844 22.6528C151.173 23.3067 151.642 23.8803 152.217 24.3328C152.54 24.5823 152.998 24.7906 153.334 24.5617C153.436 24.4722 153.518 24.3621 153.575 24.2385C153.631 24.1151 153.661 23.981 153.662 23.8453C153.763 22.8815 153.511 21.9135 152.952 21.1216C152.723 20.8103 152.325 20.5082 152.002 20.7119C151.679 20.9156 151.773 21.4191 151.965 21.7579C152.307 22.3857 152.773 22.9375 153.335 23.3793C153.897 23.8213 154.543 24.1442 155.234 24.3282C155.573 24.4418 155.939 24.4456 156.28 24.3397C156.469 24.2534 156.635 24.1222 156.762 23.9574C156.889 23.7926 156.974 23.5995 157.01 23.3944C157.078 22.9824 157.043 22.5601 156.907 22.1653C156.719 21.5496 156.355 20.9202 155.744 20.7142C155.553 20.6398 155.341 20.6398 155.149 20.7142C155.022 20.7821 154.917 20.8847 154.845 21.0097C154.774 21.1346 154.739 21.2774 154.744 21.4214C154.759 21.7096 154.847 21.9893 155 22.2339C155.355 22.8528 155.855 23.3765 156.456 23.7601C157.058 24.1435 157.743 24.3754 158.454 24.4358C158.929 24.5033 159.412 24.388 159.805 24.1131C159.969 23.9611 160.101 23.778 160.193 23.5743C160.285 23.3708 160.336 23.1509 160.343 22.9275C160.395 22.2575 160.206 21.591 159.809 21.0483C159.729 20.9408 159.608 20.8195 159.477 20.8629C159.347 20.9064 159.31 21.0529 159.294 21.1834C159.235 21.6961 159.278 22.2154 159.421 22.7114C159.564 23.2072 159.804 23.6697 160.127 24.0719C160.485 24.509 161.027 24.889 161.576 24.7585C161.784 24.6951 161.971 24.5763 162.116 24.415C162.262 24.2538 162.361 24.0561 162.403 23.843C162.482 23.4157 162.439 22.9746 162.279 22.5704C162.082 22.6913 161.914 22.8531 161.785 23.0451C161.657 23.2371 161.571 23.4546 161.535 23.6828C161.434 24.1405 161.441 24.5983 161.363 25.0561C160.933 27.6241 158.104 28.7708 157.555 31.2359" stroke="#CCDDE2" stroke-width="4.59" stroke-linejoin="round"/>
<path d="M156.294 7.50486L156.186 1" stroke="#CCDDE2" stroke-width="4.59" stroke-linejoin="round"/>
<path d="M143.886 13.557L139.384 8.86261" stroke="#CCDDE2" stroke-width="4.59" stroke-linejoin="round"/>
<path d="M168.745 13.8497L173.348 9.25146" stroke="#CCDDE2" stroke-width="4.59" stroke-linejoin="round"/>
<path d="M171.203 75.3043C172.505 75.3043 173.561 74.249 173.561 72.9468C173.561 71.645 172.505 70.5894 171.203 70.5894C169.901 70.5894 168.846 71.645 168.846 72.9468C168.846 74.249 169.901 75.3043 171.203 75.3043Z" fill="#3FBDF1"/>
</svg>
